<?xml version="1.0" encoding="utf-8"?>
<!-- Generator: Adobe Illustrator 25.0.0, SVG Export Plug-In . SVG Version: 6.00 Build 0)  -->
<svg version="1.1" id="图层_1" xmlns="http://www.w3.org/2000/svg" xmlns:xlink="http://www.w3.org/1999/xlink" x="0px" y="0px"
	 viewBox="0 0 1860 560" style="enable-background:new 0 0 1860 560;" xml:space="preserve">
<style type="text/css">
	.st0{fill-rule:evenodd;clip-rule:evenodd;fill:#FDD000;}
	.st1{fill-rule:evenodd;clip-rule:evenodd;fill:#327D39;}
</style>
<g>
	<path class="st0" d="M276.1,279.9c0-120.2,97.3-217.5,217.5-217.5S711,159.7,711,279.9s-97.3,217.5-217.5,217.5
		S276.1,400.1,276.1,279.9L276.1,279.9z"/>
	<path class="st1" d="M783.6,151.5c0,13.2,0.2,26.2,0.2,39.4l180.4-0.2c12.2,0.6,18.6,11.7,17.9,15v24.5H794.3l-0.8,39.4l188.6,0.2
		l-0.4,25.6c-0.6,8.5-6.8,13.6-16.7,14.2l-180.8,0.2l-0.4,40.2l178.1-0.8c38.8-2.5,59.2-32.8,59.4-53c0-31.1,0.2-62.5,0.2-93.6
		c-3.1-23.1-21.8-51.1-71.1-51.3L783.6,151.5L783.6,151.5L783.6,151.5z"/>
	<path class="st1" d="M1081.4,270c-1,17.9,1.9,39.4,34.4,39.8l101.8,0.2c33.2-1.4,26.4-41.6,0.4-39.8L1081.4,270z M1269.4,151.7
		l-0.2,39.4l-155.8-0.2c-14.2,4.5-30.3,12.6-31.3,40.4h134.2c12.6,1.4,46,4.7,59.4,32.4c3.7,5.8,4.7,23.9,2.9,43.3
		c-1.2,18.1-18.1,39.8-62.2,42l-85.7,0.2c-46.8,1.2-85.7-25.8-88.8-62.9l0.2-59.6c-0.2-34.8,19.6-59,49.3-69.1
		c14-4.1,24.3-5.8,41-5.4L1269.4,151.7z"/>
	<path class="st1" d="M1446.1,190.9l-56.7,0.2c-10.3,1.4-46.8,4.3-50.3,33.6l-0.8,49.1c1.6,13,7.8,31.3,49.1,35.9h62.9
		c20.4-4.3,45.1-7.4,47.2-41l-0.6-44.3C1495.1,207.3,1474.5,193.3,1446.1,190.9L1446.1,190.9z M1451.4,151.5
		c60,3.7,83.9,41.8,84.9,67.4l0.6,58.5c-2.3,46.8-45.1,67.8-78.7,71.5h-72.6c-57.7-2.1-84.5-39.6-86.8-67.6l0.8-65.3
		c7.2-53.8,69.1-64.5,84.1-64.1L1451.4,151.5z"/>
	<path class="st1" d="M783.4,387.1c0,3.3-0.2,6.6,0,10.1h17.1l-0.2,43.5h11.3v-43.5l17.9-0.2l-0.4-9.5L783.4,387.1L783.4,387.1
		L783.4,387.1z"/>
	<path class="st1" d="M863.6,395.9c-2.9,0.2-5.8,1.4-8,3.9c-2.1,2.1-7.2,16.7,0.4,28.7c3.5,3.7,12,6,19.2,0
		c4.5-3.9,6.8-18.8,0.6-29.1C873.4,397.6,868.5,395.5,863.6,395.9L863.6,395.9z M868.1,387.1c5.6,0.4,11.1,2.1,15.9,5.6
		c12,10.3,8.5,34.2,1.9,41.6c-4.5,6-25.6,11.1-39.8,0.2c-7-7.2-10.9-27-0.4-40.8C849.7,389.3,858.8,386.5,868.1,387.1L868.1,387.1z"
		/>
	<path class="st1" d="M978,400.7l-7.8,18.1l15.3,0.2L978,400.7L978,400.7z M971.6,387.1l13.4,0.2l21.8,53.6h-13.4l-4.7-12.6h-20.6
		l-5.2,12.6l-13.6-0.4L971.6,387.1L971.6,387.1z"/>
	<path class="st1" d="M901.7,387.1c0,3.3-0.2,6.6,0,10.1h17.1l-0.2,43.5h11.3v-43.5l17.9-0.2l-0.4-9.5L901.7,387.1L901.7,387.1
		L901.7,387.1z"/>
	<path class="st1" d="M1019.4,387.3h11.3l0.6,38.1c0.4,3.3,3.9,5.4,7.6,5.6l17.5,0.2l-0.2,9.7l-19.6-0.2
		c-8.9-0.2-16.7-6.4-16.9-15.7C1019.6,412.2,1019.4,399.9,1019.4,387.3L1019.4,387.3z"/>
	<path class="st1" d="M1142.6,387.1v9.9h-30.1c-7.2,2.5-5.2,10.1,0.2,11.7l14,0.2c14.6,0.2,18.3,7.8,18.6,14c0,1.2,0,2.5,0.2,3.5
		c-0.4,9.9-7.6,14.6-15.5,14.4l-31.9-0.2l0.2-9.3l28.9-0.2c9.3-1.9,6.2-12.4-0.8-12.6l-14-0.2c-13.2,0.2-16.7-8.9-16.9-14
		c0-7,2.1-16.3,16.1-16.9L1142.6,387.1L1142.6,387.1L1142.6,387.1z"/>
	<path class="st1" d="M1201.6,387.3c0,3.1-0.2,6.2-0.2,9.5L1181,397c-7.6,0.4-9.1,6-9.5,12.4h29.7l-0.2,9.5h-29.7
		c0.6,5.4,2.3,12,11.1,12.2h19c0,3.3-0.2,6.4-0.2,9.7c-7.6,0-15.9,0-23.1-0.2c-12-2.3-17.9-8-19.6-22.5c-0.4-3.9-0.4-7,0.2-11.7
		c2.5-7.2,5.6-17.9,19-18.6L1201.6,387.3L1201.6,387.3L1201.6,387.3z"/>
	<path class="st1" d="M1258.7,387.5l0.2,9.5c-1.6,0-3.5,0-5.2,0h-14c-4.3,1-9.5,0.8-11.5,11.7c-0.2,6,0,9.3,1,14.8
		c2.1,3.9,3.7,7.2,11.3,7.8l18.3,0.2l-0.2,9.5h-22.1c-10.1-0.6-18.6-6.6-20.4-19.6c-0.4-4.5-0.8-9.3,0.2-15.9
		c2.3-10.9,10.1-16.7,19.8-17.7L1258.7,387.5L1258.7,387.5L1258.7,387.5z"/>
	<path class="st1" d="M1273.7,387.3c5.4,0.2,7.6,0,11.5,0c0,12.2,0.2,24.3,0.2,36.5c2.9,12.4,23.7,9.7,23.7,0
		c0-12.2,0.2-24.3,0.2-36.7h11.1c0,12.6-0.2,25.1-0.2,37.7c-1.2,8.2-6.6,14.2-16.7,15.9c-5.2,0.4-10.5,0.6-17.3-1
		c-6.4-2.5-11.5-6.2-12.4-16.5C1273.9,411.6,1273.9,395.9,1273.7,387.3L1273.7,387.3z"/>
	<path class="st1" d="M1368.8,396.6h-19c0,4.7,0.2,9.5,0.2,14.4l19.4-0.2C1375.2,407.9,1376.2,399.7,1368.8,396.6L1368.8,396.6z
		 M1338.5,387.3l30.1,0.2c16.7,0.6,17.9,10.7,17.7,16.5c-0.8,8.5-4.7,11.3-9.7,13.8c4.9,1.2,7.2,5.6,7.8,7.2
		c1.2,3.1,0.8,4.5,1.2,6.4c0.4,2.7,0.6,4.1,1,6.8l0.4,2.5h-12.8l-1.4-10.5c-1.2-7.4-5.6-9.3-9.9-9.9h-13.2v20.4l-11.1-0.2
		C1338.7,422.9,1338.7,405,1338.5,387.3L1338.5,387.3z"/>
	<polygon class="st1" points="1403.6,387.1 1414.7,387.1 1414.7,440.7 1403.6,440.7 	"/>
	<polygon class="st1" points="1428.1,387.1 1474.3,387.1 1474.3,397 1456.4,397 1456.4,440.7 1445,440.7 1445,397 1428.1,397 	"/>
	<path class="st1" d="M1484.6,387.3h13.2l12.6,20.8l13.2-21h13.6l-21.4,30.7c0,7.6,0.2,15.3,0.2,22.9h-11.5v-23.5L1484.6,387.3
		L1484.6,387.3L1484.6,387.3z"/>
	<path class="st1" d="M486.5,173.7h13.8c13.6,0,24.5,10.9,24.5,24.5v50.3h49.5c13.6,0,24.5,10.9,24.5,24.5v13.8
		c0,13.6-10.9,24.5-24.5,24.5h-49.5v48.9c0,13.6-10.9,24.5-24.5,24.5h-13.8c-13.6,0-24.5-10.9-24.5-24.5v-48.9h-49.5
		c-13.6,0-24.5-10.9-24.5-24.5v-13.8c0-13.6,10.9-24.5,24.5-24.5H462v-50.3C462,184.9,472.9,173.7,486.5,173.7L486.5,173.7z"/>
	<path class="st1" d="M305.4,169.8c31.5-42.3,91.7-76.3,152.3-71.9c66.8,7.2,94.6,41.2,144.5,89.7c8.5,14.2,77.7,27.4,76.1-22.3
		C663.6,141.8,610,67.2,498.1,62C475.2,64.9,380.8,54.8,305.4,169.8L305.4,169.8z"/>
	<path class="st1" d="M682.2,389.8c-31.5,42.3-93,76.3-153.8,71.9c-66.8-7.2-94.6-41.2-144.5-89.7c-8.5-14.2-77.1-27.4-75.6,22.3
		c14.2,22.3,67.8,98.5,180.2,103.7C511.1,495.3,606.5,505,682.2,389.8L682.2,389.8z"/>
</g>
</svg>
