<?xml version="1.0" encoding="utf-8"?>
<!-- Generator: Adobe Illustrator 25.0.0, SVG Export Plug-In . SVG Version: 6.00 Build 0)  -->
<svg version="1.1" id="图层_1" xmlns="http://www.w3.org/2000/svg" xmlns:xlink="http://www.w3.org/1999/xlink" x="0px" y="0px"
	 viewBox="0 0 1860 560" style="enable-background:new 0 0 1860 560;" xml:space="preserve">
<style type="text/css">
	.st0{fill:#FF6A00;}
	.st1{fill-rule:evenodd;clip-rule:evenodd;fill:#FF6A00;}
</style>
<g>
	<g>
		<path class="st0" d="M1056.7,205.5c0-19.9-14.8-28.9-44.1-29.7c-30.4-0.7-43.4,7.2-45.9,23.9h31.5c1.4-5.4,5.1-8.3,12.7-8.3
			c7.6,0.4,13,4,13.4,13.7c-17,0.4-29.7,1.1-38.3,3.3c-16.6,4-25,13-25,25.3c0,8.3,3.6,14.5,10.9,18.1c5.4,2.9,12.7,4.7,21.3,4.3
			c14.5-0.4,25-4.7,31.1-13v11.6h31.8L1056.7,205.5z M1024.1,221c0,11.2-5.8,17-17.4,17c-7.2,0-11.2-2.5-11.2-8c0-5.1,4-8,11.6-9.4
			c2.9-0.4,8.3-0.7,16.6-0.7v1.1H1024.1z"/>
		<path class="st0" d="M1287.9,205.5c0-19.9-14.8-28.9-44.1-29.7c-30.4-0.7-43.4,7.2-45.9,23.9h31.5c1.4-5.4,5.1-8.3,12.7-8.3
			c7.6,0.4,13,4,13.4,13.7c-17,0.4-29.7,1.1-38.3,3.3c-16.6,4-25,13-25,25.3c0,8.3,3.6,14.5,10.9,18.1c5.4,2.9,12.7,4.7,21.3,4.3
			c14.5-0.4,25-4.7,31.1-13v11.6h31.8L1287.9,205.5z M1255.3,221c0,11.2-5.8,17-17.4,17c-7.2,0-11.2-2.5-11.2-8c0-5.1,4-8,11.6-9.4
			c2.9-0.4,8.3-0.7,16.6-0.7v1.1H1255.3z"/>
		<path class="st0" d="M629.8,144.7l-55,110.3h35.8l8.7-19.9h55l8,19.9h39.8l-52.5-110.3L629.8,144.7L629.8,144.7z M629.8,210.9
			l18.1-40.2l17,40.2H629.8z"/>
		<rect x="732.6" y="144.7" class="st0" width="34.7" height="110.3"/>
		<rect x="789" y="144.7" class="st0" width="34.7" height="22.1"/>
		<rect x="789" y="178.4" class="st0" width="34.7" height="76.3"/>
		<path class="st0" d="M1396.4,209.5h24.2v31.5c-5.1,1.4-9.4,2.2-13,2.9c-4,0.7-7.2,1.1-10.5,1.1c-13,0-23.2-3.6-30.4-11.2
			c-7.2-7.6-10.9-17.7-10.9-31.5s3.3-24.6,10.1-32.6c6.9-8,16.3-11.6,28.2-11.6c7.6,0,13.7,1.4,18.4,4.7c4.7,3.3,7.2,7.2,7.6,12.3
			h17c-0.4-8.7-4-15.6-11.2-20.6c-7.2-5.1-17-7.6-29.7-7.6c-17.7,0-31.8,5.1-42,14.8c-10.1,9.8-15.2,23.5-15.2,40.9
			c0,16.6,5.1,30,15.2,39.4c10.1,9.4,24.2,14.5,42,14.5c6.1,0,12.7-0.7,19.2-1.8c6.9-1.1,13.7-2.9,21.7-5.1v-52.1h-40.9V209.5z"/>
		<path class="st0" d="M1574.4,187.8c-6.5-6.9-15.9-10.1-27.5-10.1c0,0,0,0-0.4,0c0,0,0,0-0.4,0c-11.6,0-20.6,3.6-27.5,10.9
			c-6.9,7.2-10.1,17.4-10.1,30c0,11.9,3.3,21,9.8,27.9c6.5,6.9,15.2,10.1,26.4,10.1c0,0,0,0,0.4,0l0,0c12.3,0,21.7-3.6,28.6-10.5
			c6.9-7.2,10.1-17,10.1-29.7C1584.1,204,1580.9,194.6,1574.4,187.8z M1563.2,238c-4,5.1-9.8,7.6-17,8c-7.2,0-13-2.5-17-7.2
			c-4-5.1-6.1-11.9-6.1-21c0-9.4,2.2-16.6,6.1-22.1c4.3-5.4,9.8-8,17-8c7.2,0,12.7,2.5,16.6,7.6c4,5.1,6.1,12.3,6.1,21.3
			C1569.3,225.7,1567.5,233,1563.2,238z"/>
		<path class="st0" d="M1652.9,178.7V229c0,5.1-1.8,9.4-5.8,12.3c-4,3.3-9,4.7-15.2,4.7c-6.1,0-10.5-1.4-13.4-4.3
			c-2.9-2.9-4.3-7.6-4.3-14.1v-49.2h-14.5v48.1c0,6.1,0.4,10.5,0.7,13c0.7,2.5,1.4,4.7,2.9,6.5c2.5,3.3,5.8,5.8,10.1,7.6
			c4.3,1.8,9,2.9,14.1,2.9c5.8,0,10.9-1.1,15.6-3.6c4.3-2.5,7.6-5.8,9.4-9.8V255h0.7l0,0h13l0,0h1.1v-14.8v-1.1v-60.4L1652.9,178.7
			L1652.9,178.7z"/>
		<path class="st0" d="M1752.3,187.8c-6.1-6.9-14.8-10.5-25.7-10.5l0,0c0,0,0,0-0.4,0c-5.4,0-10.5,1.1-14.5,3.3
			c-4,2.2-7.6,5.4-10.5,9.8v-11.9h-14.5v1.1v14.8v0.7v89.4h14.5l0,0v-40.2c2.9,4,6.9,7.2,10.9,9.4c4.3,2.2,9.4,3.3,14.5,3.3
			c0,0,0,0,0.4,0l0,0c11.2,0,19.9-3.3,25.7-10.1c5.8-6.9,9-16.6,9-29.3C1761.8,204.8,1758.5,195,1752.3,187.8z M1740,239.5
			c-4,5.4-9.4,8-16.3,8c-6.5,0-11.9-2.9-16.3-8.3c-4-5.8-6.1-13.4-6.1-23.2c0-9,2.2-15.9,6.1-21.3c4.3-5.1,9.8-8,16.6-8
			c6.9,0,11.9,2.9,15.9,8.3c4,5.8,6.1,13.4,6.1,22.8C1746.2,227.2,1744,234.1,1740,239.5z"/>
		<path class="st0" d="M1498.8,178.7c-1.1,0-2.2,0-3.3,0c-6.1,0-11.2,1.1-15.2,3.6c-4,2.5-6.5,6.1-8,10.9v-1.1v-13.4h-14.8v11.9v9.4
			v55h15.2v-43c0-6.5,1.8-11.6,5.4-15.2c3.6-3.6,8.7-5.4,15.6-5.4c1.1,0,2.2,0,3.6,0.4c1.4,0,2.9,0.4,4.7,0.7v-13
			C1500.9,178.7,1499.8,178.7,1498.8,178.7z"/>
		<path class="st0" d="M845.8,255h34v-13.7v-0.4c9,11.6,20.3,16.3,34,15.6c7.6-0.4,14.8-2.9,21-7.6c8.7-6.9,13.4-15.9,14.1-27.5
			c1.1-11.6-1.8-22.1-8.3-31.8c-6.5-8-14.8-12.7-24.6-13.7c-13.7-1.8-26,2.9-35.8,13.4V144h-34L845.8,255z M911.3,229
			c-6.5,8.7-14.1,10.9-23.9,5.8c-0.4-0.4-1.1-0.7-1.4-1.1c-2.9-2.9-5.1-6.1-5.8-10.1c-1.1-5.8-1.1-11.9,0.7-17.7
			c1.1-4,3.3-7.2,6.5-9.4c3.6-2.2,8-2.9,11.9-2.5c5.8,1.1,10.1,4.3,12.7,10.1c1.4,3.6,2.2,7.6,2.2,11.6
			C914.5,220.7,913.4,225,911.3,229z"/>
		<path class="st0" d="M1077,255h34v-13.7v-0.4c9,11.6,20.3,16.3,34,15.6c7.6-0.4,14.8-2.9,21-7.6c8.7-6.9,13.4-15.9,14.1-27.5
			c1.1-11.6-1.8-22.1-8.3-31.8c-6.5-8-14.8-12.7-24.6-13.7c-13.7-1.8-26,2.9-35.8,13.4V144h-34L1077,255z M1142.4,229
			c-6.5,8.7-14.1,10.9-23.9,5.8c-0.4-0.4-1.1-0.7-1.4-1.1c-2.9-2.9-5.1-6.1-5.8-10.1c-1.1-5.8-1.1-11.9,0.7-17.7
			c1.1-4,3.3-7.2,6.5-9.4c3.6-2.2,8-2.9,11.9-2.5c5.8,1.1,10.1,4.3,12.7,10.1c1.4,3.6,2.2,7.6,2.2,11.6
			C1145.3,220.7,1144.6,225,1142.4,229z"/>
	</g>
	<g>
		<path class="st0" d="M1436.5,313.6v108.2h92.2c6.9,0,9.8-6.5,9.4-13.4v-94.8H1436.5z M1530.6,407.7c0,4-0.7,6.9-6.1,6.9h-81v-94.8
			h87.2V407.7z"/>
		<path class="st0" d="M1501.3,394.3c0,2.2-0.7,3.3-2.5,3.3h-8v6.1h9.8c6.1,0,8-2.2,8-9c0,0,0-36.5,0-42h3.6c4.7,0,8.7-2.9,10.1-6.9
			h-13.7v-14.5h-7.6v14.8H1455v6.9h45.9v41.2H1501.3z"/>
		<path class="st0" d="M1489.4,360.3l-33.6,40.9c0,0,1.1,0,3.6,0c5.1,0,8.3-4.7,11.2-7.6c2.5-2.9,27.1-33.3,27.1-33.3H1489.4z"/>
	</g>
	<g>
		<path class="st0" d="M1139.9,312.2h-103.1v95.9c0,6.9,5.4,12.3,12.3,12.3h81.4c6.9,0,12.3-5.4,12.3-12.3h-87.9v-31.5h70.5
			c8,0,14.5-6.5,14.5-14.5L1139.9,312.2L1139.9,312.2z M1079.1,363.9h-24.6v-39.4h24.6V363.9z M1121.8,363.9h-24.6v-39.4h24.6V363.9
			z"/>
	</g>
	<g>
		<path class="st0" d="M1273.8,312.2h-103.1v95.9c0,6.9,5.4,12.3,12.3,12.3h8.7h72.7c6.9,0,12.3-5.4,12.3-12.3h-87.9v-31.5h70.5
			c8,0,14.5-6.5,14.5-14.5V312.2z M1213.3,363.9h-24.6v-39.4h24.6V363.9z M1255.7,363.9h-24.6v-39.4h24.6V363.9z"/>
	</g>
	<path class="st0" d="M997.4,420.4c6.9,0,12.3-5.4,12.3-12.3h-45.2v-10.5h30c6.9,0,12.3-5.4,12.3-12.3h-42.3v-8.7h27.1
		c15.9,0,15.6-15.6,15.6-15.6v-48.8H904v64h42.3v8.7H904v12.3h42.3v10.5h-44.9V420h95.9V420.4z M964.8,364.3v-12.7l0,0h9
		c6.9,0,12.3-5.4,12.3-12.3h-21.3v-14.5h24.6v39.4H964.8z M946.7,364.3h-24.6v-12.7h24.6V364.3z M946.7,339.3h-24.6v-14.5h24.6
		V339.3z"/>
	<g>
		<path class="st0" d="M805.3,403.4h21c10.9,0,19.5-10.1,19.5-21v-48.5h-40.5V403.4z M819.4,346.9h11.9v43.4h-11.9V346.9z"/>
		<path class="st0" d="M804.9,312.2v13h49.2v97.7c8.7,0,15.9-7.2,15.9-15.9v-83.6c4-2.2,6.9-6.5,6.9-11.6h-72V312.2z"/>
		<path class="st0" d="M798.4,340.1v-27.9h-38v111.1c8.7,0,15.9-7.2,15.9-15.9v-4h6.5c8.7,0,15.6-7.2,15.6-15.9v-20.3
			c0-5.8-3.3-10.9-8-13.4C795.5,350.5,798.4,345.8,798.4,340.1z M783.9,355.6V390h-8.7v-64.8h8.7V344c0,4.7-1.8,8.7-5.1,11.6H783.9z
			"/>
	</g>
	<g>
		<path class="st0" d="M1304.1,420.7c0,0,1.1,0,3.6,0c5.1,0,8.7-4.7,11.2-7.6c2.5-2.9,11.2-13.7,11.2-13.7h-8.3L1304.1,420.7z"/>
		<path class="st0" d="M1384.4,399.4c0,0,8.7,10.9,11.2,13.7c2.5,2.9,6.1,7.6,11.2,7.6c2.9,0,3.6,0,3.6,0l-17.7-21.3L1384.4,399.4
			L1384.4,399.4z"/>
		<path class="st0" d="M1309.2,363.6L1309.2,363.6v15.2c0,0,4-0.7,5.8-5.4h84.7c9.4-0.4,10.1-5.8,10.1-5.8h-46.3V356
			c0,0,25.7,0,35.5,0c9.8,0,11.2-6.1,11.2-6.1h-47v-9.8c0,0,25.7,0,35.5,0c9.8,0,11.2-6.1,11.2-6.1h-47v-9c0,0,28.6,0,35.5,0
			c9.8,0,11.9-6.1,11.9-6.1h-46.7l4.7-6.5h-7.6l-4.7,6.5h-32.2l4.7-6.5h-8l-20.3,26h8.7v25.3H1309.2z M1355.9,367.2h-39.4V356h39.4
			V367.2z M1316.4,349.5v-9.8h39.4v9.8H1316.4z M1319.7,324.5h36.2v9h-39.4v-4.3L1319.7,324.5z"/>
		<path class="st0" d="M1355.9,391.1v33.6c0,0,7.6-1.4,7.6-14.1c0-4,0-15.2,0-19.5c0.7,0,25.7,0,35.5,0c9.8,0,11.2-6.1,11.2-6.1
			h-46.7v-7.2h-7.6v7.2h-46.7v6.1L1355.9,391.1L1355.9,391.1z"/>
	</g>
	<g>
		<g>
			<path class="st1" d="M591.1,396.5c-0.4-0.4-0.7-0.7-1.4-1.1c1.8-0.4,3.3-1.1,4.3-1.8c0.7-1.1,1.4-2.2,1.4-3.6
				c0-1.1-0.4-2.2-0.7-2.9c-0.7-1.1-1.1-1.4-2.2-1.8c-0.7-0.4-2.2-0.4-4-0.4h-9v19.9h2.5v-9h2.9c0.7,0,1.1,0,1.4,0
				c0.4,0,0.7,0.4,1.1,0.7c0.4,0.4,0.7,0.7,1.4,1.4c0.4,0.7,1.1,1.4,1.8,2.9l2.5,4h3.3l-3.6-5.4
				C592.6,398.3,591.8,397.2,591.1,396.5z M587.5,393.6h-5.8v-6.5h6.1c1.4,0,2.5,0.4,3.3,0.7c0.7,0.7,1.1,1.4,1.1,2.2
				c0,0.7-0.4,1.1-0.4,1.8c-0.4,0.4-0.7,1.1-1.4,1.1C589.7,393.2,589,393.6,587.5,393.6z"/>
			<path class="st1" d="M586.8,375.9c-10.5,0-18.8,8.7-18.8,19.2c0,10.5,8.3,19.2,18.8,19.2s18.8-8.7,18.8-19.2
				S597.3,375.9,586.8,375.9z M586.8,411.3c-8.7,0-15.9-7.2-15.9-15.9c0-9,7.2-16.3,15.9-16.3s15.9,7.2,15.9,16.3
				C602.7,404.1,595.5,411.3,586.8,411.3z"/>
			<path class="st1" d="M480.4,220c-13.4,26.8-53.9,71.6-70.2,90.4c-10.9,12.3-21.3,24.6-28.9,36.2c-8,11.6-12.7,22.4-12.7,32.9
				c1.1,81.4,239.8-38,286.1-69.8C586.4,339,513,367.5,432,372.6c-22.4,1.1-20.3-10.5-6.9-28.6c30.7-40.9,88.6-98.4,90.8-138.9
				c3.6-52.8-49.6-70.2-104.5-69.8c-38,0.4-77.4,11.6-104.5,21c-92.6,32.6-150.9,85-187.4,143.3c-39.1,57.5-26,112.5,56.1,114.3
				c62.9-2.5,103.8-19.9,146.5-42c0.4,0-117.9,33.6-161.3,9c-2.2-0.4-5.8-2.2-8.3-4.3c-23.9-23.5,6.9-50.6,42.3-66.2v-45.9
				c6.5,3.6,10.5,5.4,13.7,6.5l26.4-26.4l-9-23.2c79.2-27.5,111.1-38.3,175.8-49.2L390,161.3l18.8-10.9c35.5,11.9,69.1,16.3,76.7,38
				C484.4,188.8,489.5,199.7,480.4,220z"/>
		</g>
		<path d="M407.7,150.9l-18.8,10.9l11.6,10.9c-64.4,10.9-96.6,21.7-175.8,49.2l9,23.2l-26.4,26.4c-4.7-1.8-9.4-4-13.7-6.5v45.9
			c-35.8,15.6-66.6,43.4-42.3,66.2c2.2,2.2,6.1,4,8.3,4.3c-4.7-2.5-9.4-6.1-10.9-15.9c-0.4-20.6,34-42,52.8-48.5v-35.5
			c14.1,5.4,29.3,8.3,45.2,8.3c30.7,0,58.6-11.2,80.7-29.3c0.7,2.9,1.4,6.5,1.1,10.5h8.7c1.1-9-4-16.3-4-16.3
			c-7.6-12.3-21.3-11.9-21.3-11.9s7.2,3.3,12.3,10.9c-19.9,16.6-45.9,26.8-73.8,26.8c-11.9,0-23.5-1.8-34.4-5.4l28.2-27.9l-8-20.3
			c56.4-19.9,103.8-35.1,181.2-48.5l-17.4-14.5l9-5.4c46.7,13,77.4,22.8,75.6,47.8C492.4,168.9,451.1,165.3,407.7,150.9z"/>
	</g>
</g>
</svg>
