<?xml version="1.0" encoding="utf-8"?>
<!-- Generator: Adobe Illustrator 25.0.0, SVG Export Plug-In . SVG Version: 6.00 Build 0)  -->
<svg version="1.1" id="图层_1" xmlns="http://www.w3.org/2000/svg" xmlns:xlink="http://www.w3.org/1999/xlink" x="0px" y="0px"
	 viewBox="0 0 1860 560" style="enable-background:new 0 0 1860 560;" xml:space="preserve">
<style type="text/css">
	.st0{fill:#251BDC;}
	.st1{fill:#E10904;}
	.st2{fill:#FFFFFF;}
</style>
<path class="st0" d="M1013.9,492.5c-14.9,0.1-25.5-1.6-36-3.3c-9.4-1.5-18.4-4.5-27.7-6.7c-18.1-4.3-36.6-4.6-55-1.7
	c-5.8,0.9-11.4,3.5-17.2,4c-7.3,0.5-14.5,1.8-21.7,2.5c-18.1,1.8-36.3,2.1-54.3-0.3c-9.3-1.2-17.8-5.9-25.1-12.3
	c-10.6-9.4-17.4-21.2-21.9-34.4c-2.8-8.3-2.4-17.1-4.5-25.5c2.1-10.7,2.1-21.6,7.3-31.9c5.9-11.6,13.7-21.1,23-30
	c11.1-10.6,23.6-19.7,35-29.9c12.1-11,23.4-22.6,33.6-35.4c5-6.2,8.4-13.5,13.4-19.7c16.4-20,37.3-29.6,63-26.8
	c13.3,1.4,24.8,7.9,34.8,16.8c9.1,8.1,15.7,18.1,22.7,27.7c8.7,12,18.5,22.9,28.8,33.5c15.9,16.4,32.9,31.6,50.7,46.1
	c11.3,9.2,17.7,21.7,21.1,35.8c4,16.5,1.3,32.3-4.1,47.9c-3.1,9-7.3,17.3-13.9,24.2c-6.8,7.2-15.2,11.8-24.5,15
	C1031.2,491.9,1020.4,492.3,1013.9,492.5z M905.2,381.3c0-22.5,0-45,0-67.5c0-4.9-0.1-4.9-4.9-5c-5.7-0.1-11.4-0.2-17.2-0.2
	c-5.1-0.1-5.2,0-5.2,5.2c-0.1,9.3,0,18.5,0,27.8c0,6.6,0.8,6.2-5.9,6.2c-5.5,0-11.1-0.1-16.6,0c-4.1,0.1-8.2-0.4-12.4,0.5
	c-14.9,3.3-26.1,11.6-34.1,24.5c-9,14.5-8.9,30-4.9,45.7c5.3,20.8,25.4,35.7,46.9,35.7c15.8,0,31.6,0,47.4,0c7.4,0,6.8,0.9,6.8-6.5
	C905.2,425.5,905.2,403.4,905.2,381.3z M1017.1,402.6c0-15.6,0-31.2,0-46.8c0-4.5-0.1-4.6-4.6-4.6c-5.9-0.1-11.8-0.1-17.8,0
	c-8.7,0.1-7.6-1.1-7.6,7.5c-0.1,21.5,0,43,0,64.6c0,4.8-0.1,4.8-4.9,4.9c-6.9,0.1-13.8,0.1-20.7,0c-9.5-0.1-13.6-4.3-13.6-13.7
	c0-19.7,0-39.5,0-59.2c0-4.1-0.1-4.2-4.3-4.2c-6.3,0-12.6,0.1-19,0.2c-4.8,0.1-4.9,0.1-4.9,4.9c0,22.9,0,45.8,0,68.7
	c0,3.2,0.5,6.3,1.9,9.2c6.1,12.2,16.3,19.1,29.6,19.6c20.3,0.8,40.6,0.2,61,0.2c4.7,0,4.8-0.1,4.8-5
	C1017.1,433.4,1017.1,418,1017.1,402.6z"/>
<path class="st1" d="M432.5,373.1c6.2,3.4,12.1,7.2,17.1,12.3c15.4,15.6,18.4,34.4,14.3,55c-1.5,7.6-4.8,14.4-9.5,20.6
	c-5.5,7.4-12.8,12.4-21.1,16.1c-10.4,4.7-21.4,6.7-32.8,6.8c-42.4,0.1-84.9,0.1-127.3,0.2c-5.3,0-4.5-0.1-4.5-5.7
	c0-58.4,0-116.9,0-175.3c0-12.4,0-24.9,0-37.3c0-4.2,0.1-4.3,4.1-4.3c37.3,0,74.6-0.2,111.9,0.1c15,0.1,29.6,3.3,43.1,10.4
	c18.4,9.6,28.2,24.9,29.6,45.6c0.8,12.1-0.9,23.9-6.3,34.9c-3.7,7.7-8.9,14.3-16.5,18.7c-0.7,0.4-1.2,0.9-1.8,1.4
	C432.7,372.7,432.6,372.9,432.5,373.1z M356.6,443c10.8,0,21.7-0.1,32.5,0c6.1,0.1,11.6-1.7,16.8-4.9c11.1-6.9,13.2-25.4,5.6-33.4
	c-5.6-5.8-12.1-9.7-20.2-9.7c-23.3-0.2-46.6-0.1-69.9-0.1c-4.1,0-4.2,0.1-4.2,4.3c-0.1,13-0.1,26.1,0,39c0,4.7,0.1,4.7,5,4.7
	C333.6,443,345.1,443,356.6,443z M357,304.9c-11.8,0-23.6,0-35.5,0c-4.1,0-4.2,0.1-4.3,4.2c-0.1,12.2-0.1,24.5,0,36.7
	c0,5.2,0.1,5.2,5,5.2c21.9,0,43.8,0,65.6,0c2,0,3.9-0.1,5.9-0.7c13.3-3.5,19.4-12,18.7-26.8c-0.4-9.7-4.9-15.2-14.2-17.7
	c-2.9-0.8-5.8-1.1-8.8-1.1C378.7,304.9,367.8,304.9,357,304.9z"/>
<path class="st1" d="M1225,301.5c-2.7,0-4.6,0-6.5,0c-25.9,0-51.7,0-77.6,0c-1.4,0-2.8-0.1-4.1,0c-1.8,0.1-3-0.4-2.9-2.6
	c0.1-9.1,0.2-18.2,0.1-27.3c0-2.1,1-2.7,2.9-2.7c1.4,0.1,2.8,0,4.1,0c66.2,0,132.3,0,198.5,0c1,0,2,0.1,3,0c3.3-0.5,4,1.1,3.9,4.1
	c-0.2,7.9,0,15.8-0.1,23.7c0,4.4-0.1,4.5-4.6,4.5c-21.9,0-43.8,0-65.8,0c-1.4,0-2.8,0-4.1,0c-1.3,0-2.4,0.7-2.7,1.9
	c-1.4,5.9-4.4,11.3-5.5,17.7c1.9,0.8,3.9,0.5,5.7,0.5c21.7,0,43.4,0,65.2,0c1.4,0,2.8,0.1,4.1,0c1.8,0,2.4,0.9,2.4,2.5
	c-0.1,1.4,0,2.8,0,4.1c0,44.6,0,89.3,0,133.9c0,5.2-0.4,10.3-3.7,14.6c-3.1,3.9-7.1,6.1-12.1,6.3c-1.8,0.1-3.6,0.1-5.3,0.1
	c-58.1,0-116.1,0-174.2,0c-0.8,0-1.6,0-2.4,0c-4.3-0.1-4.4-0.1-4.4-4.7c0-35,0-69.9,0-104.9c0-15.6,0-31.2,0-46.8
	c0-5.2,0.1-5.2,5.1-5.2c22.5,0,45-0.1,67.5,0.1c3.1,0,4.7-0.4,6.2-4.1C1219.8,312.2,1221.2,306.7,1225,301.5z M1241.3,416.1
	c-19.7,0-39.5,0-59.2,0c-4.7,0-4.5,0-4.5,4.6c0,9.5,0,19,0,28.4c0,4.6,0.1,4.7,4.4,4.7c38.3,0,76.6,0.1,114.9,0
	c5.7,0,8.2-2.5,8.3-8.4c0.1-8.3,0.1-16.6,0.1-24.9c0-4.4-0.1-4.4-4.7-4.4C1280.8,416.1,1261,416.1,1241.3,416.1z M1241.2,384.8
	c19.6,0,39,0,58.6,0c5.4,0,5.1,0.2,5.1-5.2c0-8.3,0-16.6,0-24.9c0-5.5,0.4-5.2-5.1-5.2c-1.2,0-2.4,0-3.6,0c-35.1,0-70.2,0-105.3,0
	c-3.4,0-6.7,0.1-10.1-0.1c-2.7-0.2-3.3,1-3.3,3.4c0.1,8.9,0.1,17.8,0.1,26.7c0,5.4-0.4,5.2,5.1,5.2
	C1202.1,384.8,1221.7,384.8,1241.2,384.8z"/>
<path class="st1" d="M573.7,482.4c-18.8,0-37.5-0.1-56.3,0.1c-10.6,0.1-19.5-4.1-27.4-10.6c-5.2-4.3-8.8-9.8-12.5-15.5
	c-1.4-2.1-1.8-4.6-1.9-6.5c-0.5-9.2-0.8-18.5-0.1-27.7c0.2-3.8,2.6-7.6,4.6-11c4.7-8.4,10.8-15.7,19.2-20.5
	c6.2-3.5,12.9-5.6,20.3-5.6c23.3,0.1,46.6,0.1,69.9,0.1c5.7,0,4.9,0.2,5.5-5.6c1.1-10.6-4.3-16.6-13-21c-5.1-2.5-10.2-3.8-16.1-3.7
	c-23.7,0.2-47.4,0.1-71.1,0.1c-1.4,0-2.8-0.1-4.1,0c-2.3,0.1-3.1-0.8-3.1-3.1c0.1-9.1,0.1-18.2,0-27.3c-0.1-2.7,1.2-3.3,3.6-3.3
	c9.9,0.1,19.7,0.1,29.6,0.1c20.6,0.1,41.1-0.5,61.6,0.2c26.4,0.9,49,16.7,56.5,43.4c0.6,2.1,0.7,4.3,0.7,6.5c0,35,0,69.9,0,104.9
	c0,5.9-0.1,6-5.8,6C613.6,482.4,593.6,482.4,573.7,482.4z M562.5,450.6c9.1,0,18.1,0,27.2,0c4.9,0,5-0.1,5-4.7
	c0.1-8.3,0.1-16.6,0-24.9c0-4.7-0.1-4.7-5-4.7c-17.2,0-34.3,0.2-51.5-0.1c-6.6-0.1-11.3,2.7-15.4,7.2c-4.5,5-6,10.8-2.8,16.9
	c3.1,6,7.9,10.3,15.3,10.2C544.4,450.6,553.4,450.6,562.5,450.6z"/>
<path class="st1" d="M1371.1,375.6c0-33.2,0-66.4,0-99.5c0-1.4,0.1-2.8,0-4.1c-0.1-2,0.5-3,2.7-2.9c1.4,0.1,2.8,0,4.1,0
	c27.3,0,54.4,0,81.7,0c1.4,0,2.8-0.1,4.1,0c2.3,0.1,3.1-0.9,3.1-3.2c-0.1-3.1,0.1-6.3-0.1-9.5c-0.1-1.9,0.4-3,2.6-2.9
	c11.3,0.1,22.5,0.1,33.8,0c2,0,2.8,0.9,2.8,2.8c-0.1,2.8,0,5.5,0,8.3c0,5.4-0.2,5,5.3,5c3.6,0,7.1,0,10.7,0c20.5,0,41.1,0,61.6,0
	c5.6,0,5.7,0.1,5.7,5.9c0,5.7-0.2,11.4,0.1,17.2c0.1,3.2-1.2,4.2-4.1,3.9c-1.4-0.1-2.8,0-4.1,0c-56.2,0-112.5,0-168.7,0
	c-7.5,0-6.6-0.7-6.6,6.6c0,57.6,0,115.3,0,172.9c0,7.5,0.7,6.5-6.7,6.5c-7.5,0.1-15,0-22.5,0c-5.3,0-5.2,0.2-5.2-5.2
	c0-32.8,0-65.5,0-98.3C1371.1,377.9,1371.1,376.7,1371.1,375.6z"/>
<path class="st1" d="M1525.9,448.7c7.2,4.3,14.9,7.5,23.5,7.6c11.3,0.1,22.5,0,33.8,0.1c4.6,0,4.6,0.1,4.7,4.4
	c0.1,5.3-0.1,10.7,0.1,16c0.1,2.5-0.8,3.4-3.4,3.4c-18.1-0.1-36.3,0.1-54.4-0.3c-4.3-0.1-8.8-2.1-12.9-3.9c-4.9-2.1-10-3.8-14-7.5
	c-1.7-1.6-4.2-1.7-7-0.5c-10,4.6-20.1,8.8-30.4,12.6c-2.4,0.9-5,1.7-7.8,1.7c-14.4-0.1-28.8,0-43.3-0.1c-4,0-4.1-0.1-4.1-4.3
	c-0.1-5.3,0.1-10.7-0.1-16c-0.1-2.8,0.9-3.8,3.8-3.7c9.3,0.1,18.5,0.2,27.8,0c9.8-0.3,18-5,26.8-10.1c-2.6-1.6-4.4-2.7-6.2-3.8
	c-14.5-8.4-29-16.9-43.5-25.2c-2.9-1.7-4.3-3.4-4.1-6.9c0.3-5.5,0.2-11.1,0.1-16.6c-0.1-2.3,0.9-3.3,3.1-3.1c1.2,0.1,2.4,0,3.6,0
	c53.1,0,106.2,0,159.3,0c7.5,0,6.5-0.8,6.6,6.7c0,0.6,0,1.2,0,1.8c0,12.4-0.1,12.2-12,17.8c-4.3,2-8.4,4.8-12.4,7.3
	c-5.3,3.4-11.1,6.2-16.5,9.6c-5.6,3.6-11.6,6.7-17.6,9.7C1528,446.1,1526.4,446.5,1525.9,448.7z M1524.2,417.5
	c-0.1-0.3-0.2-0.5-0.4-0.8c-17.9,0-35.7,0-53.6,0c7.9,5.5,16,10.1,24.1,14.8c1.4,0.8,2.6,0.5,3.9-0.2
	C1506.9,426.7,1515.6,422.1,1524.2,417.5z"/>
<path class="st0" d="M1115,257.6c0.2,11.3-0.6,21-3.6,30.5c-5.4,17.7-15.9,29.3-35.1,31.5c-10.4,1.2-20.8,0.8-30.8-2.2
	c-6.7-2-12.9-5.3-17.4-11c-4.8-6.2-8.2-12.8-9.3-20.7c-1.8-12.4-2.1-24.8-1.2-37.2c0.6-8.1,0.9-16.3,4-23.9
	c6.5-15.9,14.9-25.5,35.1-27.6c9.5-1,18.9-0.1,27.7,4c13.6,6.3,21.6,17.7,26.8,31.3C1114.7,240.9,1115.5,249.8,1115,257.6z"/>
<path class="st0" d="M823.5,229.2c0.2,14.2-1.7,26.4-7.3,37.7c-9.4,19-28.4,27.4-48.8,25.5c-13.2-1.2-22.3-8-29.7-18.3
	c-5.2-7.1-9.2-14.8-10.8-23.2c-1.6-8.8-2.7-17.8-1.2-27c1.3-8.5,2.3-17,5.7-25c4.6-10.6,9.6-20.9,19.8-27.3c9.5-6,19.7-7.5,30.4-4.6
	c15,4.1,25.4,14.2,33.3,27.3C821.7,205.5,824.1,217.8,823.5,229.2z"/>
<path class="st1" d="M1492.3,383.6c-18.5,0-37.1,0-55.6,0c-4.5,0-4.6-0.1-4.6-4.5c-0.1-12,0-24.1,0-36.1c0-4.7-0.1-4.8-4.9-4.9
	c-4.3-0.1-8.7-0.1-13,0c-2.3,0.1-3.1-0.7-3.1-3c0-5.9-0.1-11.8-0.4-17.8c-0.1-2.7,0.9-3.4,3.4-3.4c4.6,0.1,9.1,0.1,13.6,0
	c4.3-0.1,4.3-0.1,4.5-4.2c0.3-7.7,0.3-7.7,7.9-7.7c6.7,0,13.4,0.1,20.1-0.1c2.7-0.1,3.8,0.7,3.9,3.6c0.2,8.4,0.4,8.4,8.5,8.4
	c18.5,0,37.1,0,55.6,0c4.9,0,4.9-0.1,4.9-4.9c0.1-7.7,0.1-7.7,7.9-7.7c7.3,0,14.6,0.1,21.9-0.1c2.9-0.1,3.8,1,3.7,3.8
	c-0.1,2.7-1.2,6.1,0.7,8c2.1,2.1,5.6,0.7,8.5,0.8c4.1,0.2,8.3,0.1,12.4,0c2.3-0.1,3.1,0.9,3,3.2c-0.1,5.9-0.1,11.8,0,17.8
	c0.1,2.8-1.3,3.3-3.6,3.2c-5.9-0.1-11.8,0.1-17.8-0.1c-2.6-0.1-3.4,0.9-3.4,3.4c0.1,6.7-0.2,13.4,0.1,20.1
	c0.6,12.1-7.3,22.8-22.2,22.1C1527.1,383,1509.8,383.6,1492.3,383.6z M1498.4,337.8c-9.8,0-19.7,0-29.6,0c-5.3,0-5.3,0.1-5.3,5.6
	c0,4.3,0.2,8.7-0.1,13c-0.2,3.2,1.1,4,4.1,4c7.5-0.2,15-0.1,22.5-0.1c11,0,22.1,0.1,33.1,0c7.1-0.1,9.8-3,9.9-10.1
	c0-2.5,0.1-5.2,0-7.7c-0.1-4.5-0.1-4.6-4.5-4.6C1518.5,337.8,1508.4,337.8,1498.4,337.8z"/>
<path class="st0" d="M940.6,149c-0.6-6.8,1.3-13.3,1.5-20c0.1-2,1.2-3.9,2.1-5.8c5.3-11.6,11.5-22.6,20.9-31.3
	c4.9-4.6,10.1-8.5,16.5-11.2c9.8-4.2,18.9-2.8,27.5,2.3c15.8,9.4,25.3,23.5,30,41.1c3.6,13.2,0.7,25.7-4.1,37.9
	c-4.3,10.8-10.5,20.5-18.8,28.8c-5.5,5.5-12.3,8.7-19.1,11.8c-2.5,1.1-5.7,0.7-8.7,0.8c-9.8,0.6-19.3-0.8-27.8-6
	c-6.9-4.2-11.4-10.4-14.9-17.6C941,169.9,941.3,159.4,940.6,149z"/>
<path class="st0" d="M915.8,133.1c-0.2,18.7-4.7,36.1-16.9,50.8c-8.9,10.8-20.2,16.2-34.7,14.6c-10.8-1.2-18.2-7.1-24.7-14.8
	c-6.3-7.4-11.1-15.9-13-25.4c-2.1-10.5-4-21.3-2.5-32.2c0.9-6.8,1.4-13.7,3.4-20.1c4.1-13.8,11.1-25.8,24.2-33.4
	c15.2-8.8,31.8-5.3,43.1,5.5c14.2,13.5,19.7,30.7,21.2,49.7C915.9,129.5,915.8,131.3,915.8,133.1z"/>
<path class="st1" d="M708.1,402c0,24.1,0,48.2,0,72.2c0,1.2-0.1,2.4,0,3.6c0.3,2.7-0.7,4-3.6,3.9c-3.1-0.2-6.3-0.1-9.5-0.1
	c-9.9,0-19.7-0.1-29.6,0.1c-2.7,0.1-4.1-0.6-3.9-3.6c0.1-1.2,0-2.4,0-3.6c0-48.6,0-97.1,0-145.7c0-1,0-2,0-3
	c0.1-4.3,0.1-4.4,4.1-4.4c12.6-0.1,25.2-0.1,37.9,0c4.3,0,4.4,0.1,4.4,4.7c0.1,17,0,33.9,0,51C708.1,385.5,708.1,393.7,708.1,402z"
	/>
<path class="st1" d="M684.7,303.7c-6.5,0-13-0.1-19.5,0.1c-2.5,0.1-3.6-0.7-3.5-3.3c0.1-11.4,0.1-22.9,0-34.3c0-2.2,0.7-3.2,3-3.2
	c13.4,0.1,26.8,0.1,40.2,0c2.7,0,3.3,1.2,3.3,3.6c-0.1,11.3-0.1,22.5,0,33.7c0,2.5-0.8,3.5-3.4,3.5
	C698.1,303.6,691.4,303.7,684.7,303.7z"/>
<path class="st2" d="M905.2,381.3c0,22.1,0,44.3,0,66.4c0,7.4,0.7,6.5-6.8,6.5c-15.8,0.1-31.6,0-47.4,0c-21.5,0-41.5-14.9-46.9-35.7
	c-4-15.7-4.1-31.2,4.9-45.7c8-12.9,19.3-21.2,34.1-24.5c4.1-0.9,8.2-0.5,12.4-0.5c5.5-0.1,11.1,0,16.6,0c6.7,0,5.9,0.4,5.9-6.2
	c0.1-9.3,0-18.5,0-27.8c0-5.2,0.1-5.2,5.2-5.2c5.7,0.1,11.4,0.1,17.2,0.2c4.8,0.1,4.9,0.2,4.9,5
	C905.2,336.3,905.2,358.8,905.2,381.3z M877.6,401.4L877.6,401.4c0-8.9-0.1-17.8,0.1-26.6c0.1-2.9-1-3.8-3.8-3.7
	c-6.1,0.1-12.2,0.2-18.3,0c-3.7-0.1-6.9,0.9-10.1,2.7c-14,7.5-16.8,24.4-14.3,35.3c3.2,14,12.7,21.3,27.2,21.3
	c5.2,0,10.2-0.2,15.4,0.1c3.2,0.1,4-1.1,4-4.1C877.6,418,877.6,409.7,877.6,401.4z"/>
<path class="st2" d="M1017.1,402.6c0,15.4,0,30.8,0,46.2c0,4.9-0.1,5-4.8,5c-20.3,0-40.7,0.6-61-0.2c-13.3-0.5-23.5-7.4-29.6-19.6
	c-1.4-2.8-1.9-6-1.9-9.2c0-22.9,0-45.8,0-68.7c0-4.8,0.1-4.9,4.9-4.9c6.3-0.1,12.6-0.2,19-0.2c4.1,0,4.2,0.1,4.3,4.2
	c0.1,19.7,0,39.5,0,59.2c0,9.4,4.1,13.6,13.6,13.7c6.9,0.1,13.8,0.1,20.7,0c4.8,0,4.9-0.1,4.9-4.9c0-21.5,0-43,0-64.6
	c0-8.5-1.1-7.5,7.6-7.5c5.9-0.1,11.8-0.1,17.8,0c4.4,0.1,4.6,0.1,4.6,4.6C1017.2,371.5,1017.1,387,1017.1,402.6z"/>
<path class="st0" d="M877.6,401.4c0,8.3-0.1,16.6,0.1,24.8c0.1,3-0.8,4.3-4,4.1c-5.1-0.2-10.2-0.1-15.4-0.1
	c-14.4,0-23.9-7.2-27.2-21.3c-2.5-11,0.3-27.8,14.3-35.3c3.2-1.7,6.4-2.8,10.1-2.7c6.1,0.2,12.2,0.2,18.3,0c2.8-0.1,3.9,0.8,3.8,3.7
	C877.5,383.7,877.6,392.6,877.6,401.4L877.6,401.4z"/>
</svg>
