<?xml version="1.0" encoding="utf-8"?>
<!-- Generator: Adobe Illustrator 25.0.0, SVG Export Plug-In . SVG Version: 6.00 Build 0)  -->
<svg version="1.1" id="图层_1" xmlns="http://www.w3.org/2000/svg" xmlns:xlink="http://www.w3.org/1999/xlink" x="0px" y="0px"
	 viewBox="0 0 1860 560" style="enable-background:new 0 0 1860 560;" xml:space="preserve">
<style type="text/css">
	.st0{fill-rule:evenodd;clip-rule:evenodd;fill:#C8152D;}
	.st1{fill-rule:evenodd;clip-rule:evenodd;fill:#231815;}
</style>
<g>
	<path class="st0" d="M132.3,280c0-104.5,84.6-189.2,189.2-189.2c86.3,0,159.1,58,182,137.1h-80.8l-47-118.1l-52.9,131.6
		l-54.2-130.3l-99.9,246.7l40.6,57.6h226l38.9-58.8l-5.1-12.3h30c-26.2,72.8-96.1,124.8-178.2,124.8
		C217.4,469.2,132.3,384.5,132.3,280z M426.4,236H506c0.8,3,1.3,6.3,2.1,9.7h-77.9L426.4,236z M433.6,254.2h75.8
		c0.4,3,0.8,6.3,1.3,9.7h-72.8L433.6,254.2z M440.8,272h70.3c0,2.5,0,5.1,0,7.6v1.7h-66.4L440.8,272z M448,290.2h62.6
		c0,3.4-0.4,6.3-0.8,9.7h-58.4L448,290.2z M455.2,307.9H509c-0.4,3.4-0.8,6.3-1.7,9.7H459L455.2,307.9z M462.4,326.1h42.7
		c-0.8,3.4-1.7,6.3-2.5,9.7h-36.4L462.4,326.1z M252.1,225.4l-54.2,132h215l-54.2-132.9l-53.3,131.2L252.1,225.4z"/>
	<path class="st1" d="M1007.5,299.5c-0.8,5.9,4.2,16.5-4.7,19c-1.3,1.3-2.5,3-4.7,3c-2.1-0.4-3.8-1.7-5.5-3
		c-1.7-0.4-3.8-0.4-5.5-1.3c0.8-5.5,0.4-11.8,0.4-16.9c1.7-1.3,5.1-0.8,6.8-0.4c1.3-0.8,4.2,0,5.9-1.3
		C1003.3,297.4,1005,298.6,1007.5,299.5z M765,296.1c0.8,0.8,2.1,1.3,3,1.3l-0.8,25c-6.8,3.4-14-0.8-20.3-0.4l-16.1,0.8
		c-2.5-7.2-2.5-16.5-1.3-24.1l3-3L765,296.1z M1266.1,295.2c-0.4,4.2,6.3,4.7,4.7,8.9c-1.3,3-4.7,2.5-7.6,2.5
		c-1.7-4.2-4.2,2.1-6.3-1.3c-2.5-0.4-5.1-2.1-5.9-4.7c-0.4-2.1,0.4-4.2,2.1-5.1c1.3-0.4,3-0.8,4.2-1.3
		C1260.6,294,1263.5,294,1266.1,295.2z M1313.5,285.5c-0.4,4.2,3,7.6,5.5,10.2c1.3,1.7,2.5,4.7,1.3,7.2c-2.1,2.5-2.5,6.8-6.3,7.2
		c-0.8,3.4-4.7,2.5-7.2,2.1c-1.3-5.9-0.8-13.1-0.4-19.5c2.5-2.5-1.7-11.8,5.1-9.3L1313.5,285.5z M1036.3,280.4
		c2.5,10.2-0.8,20.7,0.4,31.7c-1.3,1.7-1.7,4.2-0.8,5.9c-1.7,6.3,3,15.2-4.7,18.2c-2.1,0.4-3.8,0-4.7-1.7l0.4-21.2
		c0.8-1.3,1.3-2.5,0.8-3.8c-0.4-8.9-0.8-18.6,0.4-27.1c0.8-1.3,2.1-3,3.4-3C1033.3,278.3,1034.6,279.6,1036.3,280.4z M1352,270.3
		c0,2.1-1.7,2.5-3.4,3c-5.1,4.7-11.8,5.1-16.9,10.6c-1.7,0.4-2.5,2.5-4.7,1.7c-3-3.4-5.5-7.2-7.2-11.4c-0.8-1.3-0.4-2.5-0.4-3.8
		c1.3-3.4,4.7-0.8,6.8-2.1c4.7,0.4,8-2.5,13.1-1.3c3-1.7,6.3,0,9.3,0.8C1349.4,268.6,1350.7,269,1352,270.3z M1266.9,265.6
		c0,0.4,0.8,0.8,0,1.3c0.8,2.5-2.5,3-3.4,5.1c0,0.8,0,1.7-0.8,2.1c-3.4-0.4-9.3,1.7-8.9-3c0.8-2.1,0-5.1,2.5-6.3
		C1258.9,262.2,1264.8,261.4,1266.9,265.6z M1005.8,251.6c-0.4,6.8,0.4,13.1,0.8,19.5c0.8,2.1,4.2,3,2.5,5.5
		c-1.3,2.5-4.7,1.3-6.3,1.3l-10.6-0.4c-1.7-3,3-5.1,3-8c-1.3-5.1-1.7-10.6-3.4-15.7c-0.4-1.7,0.8-2.5,1.3-3.8
		C996.5,250.4,1002.8,247,1005.8,251.6z M966.9,250.4c2.5,2.1,0.8,6.3,2.1,8.9c-0.8,3-1.3,5.9-3.8,7.6c-3.8,2.5-7.6,3.8-12.3,4.2
		c-1.3-0.8-2.1-2.1-2.5-3.4c-1.3-5.9,5.5-8,3.4-14c1.3-0.8,0.4-2.1,1.7-3c2.1,0.4,5.1-0.4,6.8-2.1
		C964.3,248.3,965.6,249.5,966.9,250.4z M1038.8,250.4c1.3,5.1-3,7.6-4.7,11.8c-1.7,1.7-4.2,3.8-6.3,3c-2.5-4.2-9.3-3-8.5-9.3
		c0-2.5-0.4-5.5,1.7-7.2c3-0.4,5.9-2.5,8.5-0.8C1032.5,249.5,1036.3,248.7,1038.8,250.4z M736.2,240.6c1.3,3.8,3.4,8,8,9.3
		c3.8,1.3,8.5,2.5,9.3,7.2c-0.4,1.3-0.8,2.1-1.7,3c-6.8,1.7-14.4,1.3-21.6,1.7c-3-0.8-7.2,0.4-8.9-2.5c0-8.9,5.9-15.7,11.4-22
		C735.4,236.4,735.4,239.4,736.2,240.6z M1335.9,234.7c-0.4,3.4-0.8,6.8-3.4,8.5c-6.8,1.7-13.1,3-20.3,3c-3-1.3-2.5-5.1-3-8
		c0.8-1.7,1.7-3,3-4.2C1320.7,236.4,1329.6,225.4,1335.9,234.7z M1234.3,224.6c0.4,2.1,0,3.4-0.4,5.1c-2.5-0.4-4.7,0.8-6.8,0.4
		c0-3,3-4.2,3-7.2C1231.4,224.1,1233.5,222.9,1234.3,224.6z M1282.6,208.1c0.4,8.5,0.8,16.5,0.8,24.5c3.4,13.1,0.4,29.2,3,42.7
		c0,8.5-1.7,17.8,0,26.2c0.4,3-0.8,5.1-1.3,7.6c-0.4,1.7-1.7,3-1.7,5.1c-4.7,4.7-1.3,16.9-11.4,14.4c-2.1-1.7-2.5-4.7-4.7-6.8
		c0.8-5.5,7.6-8,7.2-14c2.1-7.6-0.8-16.1,1.3-24.1c0.8-0.8,0.8-2.1,0.4-3c-3-3-2.5-8.5-1.7-12.3c0.4-1.7-0.4-3.8,0.8-5.1
		c0.4-2.5,1.7-4.7,1.7-7.2c1.3-4.7,0.8-10.6,0.4-15.7c-0.8-2.1-1.7-4.2-3.8-5.1c-5.1-1.3-10.2-2.1-15.2-3c-0.8-0.8-2.5-0.8-3-2.5
		c-0.4-2.1,0-3.8,0.8-5.1c3.4,0,5.9-3,9.3-1.3c2.1,0,5.1,2.1,6.3,0c-1.3-6.8,4.2-10.6,6.3-16.1
		C1279.2,205.9,1282.2,205.9,1282.6,208.1z M1006.7,200.4c1.3,1.3,0.8,3.8,0.4,5.5c-3.8,4.2,0.8,13.5-7.6,14c-3.4-1.3-8,0-9.3-4.2
		c-2.1-3-5.5-5.1-4.7-9.7l5.5-5.9c3.4-0.4,6.8-2.5,10.2-0.8C1003.3,200.4,1005.4,199.6,1006.7,200.4z M1337.2,195.8
		c0.8,1.3,0.4,2.5,0.4,3.8c-3.8,3.4-7.2,10.2-13.1,8c-1.7-0.8-3.8-0.8-5.5-1.3l-0.4,0.4l-8.9-0.8c0-2.5-0.8-6.8,2.1-8
		c3.8-0.8,8.9,0.4,11.8-3C1327.9,196.6,1332.9,192,1337.2,195.8z M772.6,190.3c0.8,1.3,1.3,3,0.8,4.7c-0.8,0.8-1.3,2.1-1.3,3.4
		c-3.8,7.2-9.3,14-10.6,22c-4.2,5.1-8,13.5-15.7,13.5c-2.5-1.3-5.9-3.8-6.3-7.2c1.7-6.8,8.5-11.8,10.2-18.6
		c0.8-5.9-0.8-12.7,2.5-17.4c4.7-2.1,11.8,0.4,16.9-2.1C770.9,188.2,771.8,189.4,772.6,190.3z M716.3,189c1.7,3.4,3.8,7.6,2.1,11.8
		c-4.2,8.5-9.3,16.1-14.4,24.5c0,4.2-1.7,8-4.2,11.4c-2.1,2.1-4.2-0.4-6.3-0.4c-2.1-5.9-8.5-8.9-12.7-13.1c-0.4-3,1.7-4.7,3.8-5.5
		c5.5,0.8,9.3-0.4,12.3-5.1c4.2-7.6,3.8-16.9,8.5-24.5C708.7,188.2,712.5,189.4,716.3,189z M1263.5,189.9c1.7,0.8,0.8,3,0.8,4.7
		c-3.4,1.7-3,7.6-7.2,7.6c-2.5-1.7-5.5-2.5-8.5-3c-2.1-2.5-1.7-5.5-0.4-8c2.1-2.5,3-8,8-6.3c2.1,2.1,3.8,3,5.9,5.1L1263.5,189.9z
		 M1658.8,159.8c1.3,1.3,0.8,3.8,0.4,5.5c0,10.6-2.5,19.9-1.7,30.5c-3.4,2.5-1.7,7.2-4.2,9.7c-2.5,2.5-7.2,1.3-10.6,0.8
		c-11.4-3-23.3,0-35.1,0c-14-0.4-26.7,2.5-41.1,1.3c-0.8,0.8-1.3,1.3-2.5,1.3c-1.3-2.5-0.4-6.3-1.3-9.3c-0.4-8.5-1.7-16.5-1.7-25
		c-0.8-1.7-1.3-3.4-2.1-5.1c0.4-1.3-0.8-2.1-0.4-3c2.1-2.1,5.1-0.4,7.2,0c8.9-1.7,16.1,3.4,24.1-0.4c11.8-0.8,22.4,4.2,34.7,1.7
		c7.6-3.4,15.2-5.5,22-10.6c2.5,0,4.2-3,7.2-1.3C1656.3,157.3,1658,157.7,1658.8,159.8z M1548.8,144.2c4.2,2.1,1.7,7.6,5.9,9.7
		c0,3.8-2.5,6.3-3,9.7c-2.1,3.4,0,7.6,0.4,11c-1.7,7.6,3,14.4,0,22c-0.4,3.4-1.7,6.3-1.7,9.7c-4.2,1.7-9.7,0.4-12.3,5.1
		c0.8,3-2.1,8.9,2.5,10.6c5.1,0,9.3,5.1,11,9.3c4.2-0.4,3,9.3,7.6,4.2c0.4-2.1,0.8-4.7,0.8-6.8c0-1.3,0-4.2,1.3-5.1l2.1-0.8
		c18.2,1.7,36-1.7,54.2-0.8c11.8-1.3,23.7-2.1,35.5-2.5c3.8-2.1,8.9-1.3,12.3-5.1c2.5-0.8,4.7-1.3,5.5-3.4h0.8
		c-2.5,9.3-1.3,20.7-0.8,30.5c0,4.2-3,8.9,0,12.7c0,0.8,0.4,2.5-0.4,3c-2.1-2.5-5.5-1.3-8.5-0.8c-5.1-0.8-8.5,3-13.5,0.8
		c-6.8-2.5-14.4-1.7-21.2,0.8c-1.7,1.3-1.3,3.4-1.3,5.5c1.3,6.8,0.4,14.4-0.4,21.6c2.5,6.3,0.4,14.8,1.7,22
		c0,18.6,3.4,36.4,0.8,54.6c-1.3,2.1-3.8,2.5-5.9,3c-14.8-1.3-30.5,0-44-3.8c-1.7-0.4-3.8-0.4-5.1-1.3c-1.3-4.2-5.9-4.2-6.8-8.5
		c-0.8-3-1.7-6.3,0.8-9.3c0.8-1.3-0.4-3.8,2.1-3c4.2,0.4,7.6,4.2,12.3,3c4.2-3.8,8-7.6,10.6-12.3c-2.5-11.4,5.1-19.5,1.3-30.5
		c-1.3-6.8,0.8-13.5,0.8-19.9c-0.8-6.3,0.8-13.5-1.3-19.5c-11-2.5-21.2,3.8-32.2,0l-5.9-0.8c-2.1-4.2,4.7-7.6-0.4-10.6
		c-5.9-3.4-5.5,4.7-10.6,4.2c-0.8,3.4-6.3,5.5-4.7,9.7c1.3,3.8-1.3,7.6,2.5,10.2c2.1,5.1-1.7,9.7,0.8,14.8c-1.3,4.7,0,9.3-0.8,14.4
		l0.4,0.4c-0.8,4.2,0.8,9.3-1.3,13.1c-1.7,11.4,2.5,24.1-2.5,34.3c-0.8,3.8-3,8-7.2,8.9c-1.7,1.3-1.7,3.8-3.8,4.7
		c-7.6,2.5-14.4-1.3-20.3-4.7c-1.3,0.8-1.7-1.3-3-0.8c-1.3-3-5.1-1.7-7.2-3c-1.7-2.1-7.6-1.3-5.5-5.5c3.8-1.3,7.6-3.8,10.2-7.6
		c1.3-0.4,2.1-2.1,2.5-3.4c0.4-3.8,0.4-7.6,2.1-10.6c3.8-13.5-2.5-27.1,1.3-40.2c-0.4-2.5-1.7-5.1-4.2-5.9
		c-7.6,2.5-11,12.3-17.8,15.7c-4.2,0.4-7.6-0.8-11.4-1.3c-3.8-3.4-10.2-5.1-11-10.2c-1.3-1.7-4.2-1.7-3-4.7
		c-0.4-1.3-2.1-0.8-2.1-1.7c1.3-2.1,4.2-3,6.3-5.1c5.5,0,8.5-5.1,14-5.5c5.1,0,6.3-6.3,11-7.6c3.8-4.7,10.2-5.9,12.3-11.8
		c3-3,6.3-5.9,6.3-10.2c1.3-1.7,3.8-3.4,2.5-6.3c-3.4-1.7-3.4-6.3-7.2-6.8c-2.5,2.1-4.7,5.5-7.6,6.8c-1.3,4.2-5.9,1.7-7.2,5.1
		c-1.7,0.8-3.8,0.4-5.9,0.4c-0.8-2.1-3.4-1.3-4.7-2.1c-1.7-2.5-5.9-4.2-4.7-8l-2.1-2.1l-0.4-16.1c4.7-3,9.3-4.7,14-6.8
		c1.7-5.1,5.9-1.3,8.5-3.4c5.1-5.1,11.8-7.6,15.2-13.5c3.8-2.1,5.1-7.6,8.9-9.7c1.7-2.5,1.7-6.3,4.2-8.9c0-7.6,7.6-12.3,9.7-19
		c3-3.4,6.3-6.3,10.6-6.8c0.8-0.8,2.1-2.1,3.4-0.8C1545,141.6,1546.7,144.2,1548.8,144.2z M1250,137.4c1.3,3,3.8,5.9,6.3,8.5
		c0.8,5.9,8.5,6.3,8.9,12.7c2.5,1.7,2.5,4.7,2.5,7.6c-1.3,1.7-2.5,3-2.5,5.1c2.5,1.7,3,5.1,6.3,4.2c2.1,0.8,4.2,0.8,6.3,0.4
		c5.9-4.2,0.4-11,3.4-16.5c-0.4-3.8-0.8-8,1.3-11.4c7.2,3,14,7.6,19.9,14c5.9,0.4,10.6-1.3,15.7,0l0.4-0.4c6.3,1.3,14-0.8,19.5,1.7
		c5.1,0.8,7.6-4.7,12.7-3.4c3.4-3.8,8-4.2,12.7-5.1c2.1-0.4,4.2,0.4,5.1,2.5c0.4,10.2,1.3,21.2-0.8,30.9c-3.4,4.7-2.1,11.4-3.8,16.5
		c-1.3,5.9-3,12.3-2.5,18.2l-0.4,0.4c0.8,7.2-0.4,15.2,1.3,22.4c-0.4,5.9-4.7,10.6-3.8,17.4c-0.8,1.3,0,3,0.8,3.8
		c3.8,0.4,5.9-2.1,8.5-4.7c-0.4-3,3.4-3.8,3.8-6.8c0.4-1.7,1.7,0,3,0c2.5,3,8,3.8,6.8,9.3c0,2.5-2.5,5.5,0,7.6
		c-0.4,3-2.5,5.5-0.8,8.5c0,2.1,1.7,3.4,3,4.7c-1.3,1.3-2.5,1.7-4.2,2.1c-3,3.4-6.3,5.5-10.6,6.3c-6.8-0.4-14-1.7-20.3-1.7
		c-1.7,1.3-3,3.4-2.5,5.5c7.2,8.9,19.5,6.8,28.4,12.7c5.5,0,11.4,3,16.5,0.4c0.8,6.3-3,11.8-3.4,18.2c-2.1,5.9-8,11-11.4,16.1
		c-5.1,2.1-7.6,7.2-11.8,11.4c-2.1-0.4-2.5-4.2-5.1-3.8c-3,0.4-3-3.8-5.5-3.4c-2.1-4.2-7.6-2.5-9.7-7.6c-1.7-3.8-5.5-7.2-8-10.2
		c0-3.8-2.5-5.9-4.7-8.9c-5.5,0.4-4.7,7.6-10.2,9.7c-7.6,5.5-11,17.4-21.6,18.6c-2.1,2.1-5.9,1.3-8.5,3c-5.5,3.8-13.5,2.5-19.5,6.3
		c-1.7,0-3.4,0-4.7-0.8c-1.3-5.5-5.1-9.7-4.2-16.1c-1.7-3-4.7-7.2-8.5-7.6c-5.9,0.4-6.3,8.9-12.3,8.9c-3.4,0.8-6.3,2.1-8.9,4.7
		c-4.2,0.8-7.2,5.1-11.4,6.3c-5.5-2.5-6.3-9.3-11.8-12.7c-1.3-5.1-8.5-5.5-8.5-11.4c-0.8-4.2-3.4-8-3.8-12.3c0-2.1-2.1-3-0.4-5.1
		c5.9,0.8,14.4,3.4,19.5-0.8c5.1-2.5,12.3-1.3,14.4-8.5c0.4-3,0.8-6.8-2.1-8.5c-1.7-0.4-3.8-0.8-5.1,0.4
		c-3.4,5.5-8.9,10.2-14.8,10.6c-0.8-2.5-1.3-5.1-2.1-7.6l-0.4-8c-2.1-3.4-1.3-8-2.1-12.3c-0.8-0.4-0.4-0.8-0.4-1.3
		c8-0.4,16.9,0.4,25-0.8c2.1-2.5,1.3-5.9,2.1-8.9c-1.7-3.4-6.3-0.8-9.3-0.8c-2.5,0.4-5.5,0.8-8,0.4c-3.4-2.5-3.8-6.8-7.2-8.9
		c-4.2,1.7-3.4,6.3-4.7,9.7c-1.3,1.3-3,2.5-3,4.7c-0.8,0.4-0.8,1.3-0.8,2.1c-0.4,3.8-6.8,5.1-4.7,9.7c0,1.3-1.3,2.5-2.5,2.5
		c-3.4,0.4-5.5-3-8.5-3.8c-2.1-1.3-2.1-3.4-3.4-5.1c-4.7-0.4-9.3-1.3-12.3-5.1c-0.4-2.5,1.3-6.8-1.3-8.9c-0.4-4.2,4.7-3.8,7.2-5.5
		c8-2.5,16.9-3.8,22.4-11.8c12.3-23.3,26.7-45.3,30.9-71.9c3.4-15.7,10.2-30,10.6-47.4c0.8-1.7,3-0.8,4.2-0.8
		C1244.1,130.2,1248.3,133.1,1250,137.4z M1016,131c2.1,2.1,6.8,0.4,7.6,3.4c0,3-3.4,4.7-3.4,7.6c-3.4,6.3-11,10.6-12.3,18.2
		c-0.4,8,8.9,2.5,12.7,4.7c9.7,3,19-1.3,28.8-0.4c8.5-1.3,17.8,0,25-4.2c5.9-1.7,13.1-0.4,19,1.7c3.4,3.8,2.1,9.3,3.4,13.5
		c0,8.5-5.1,14.8-6.3,22.4c-0.4,2.1-0.4,3.8-2.5,5.5c-7.2,1.3-12.3-5.1-19.5-1.3c-1.3,0.8-3.4,0.8-4.7,0.8c-0.4,0-0.8,0-0.8,0.4
		c-0.4-0.8-0.8,0.4-1.3,0c-7.2-1.3-14-2.1-21.6-1.7c-3,3.4-3.8,7.2-4.7,11.4c0.4,2.5,1.3,5.5,4.2,5.9c3.4,0.4,5.9-1.7,8.5-2.5
		c8-0.4,15.7-0.4,21.2,5.1c1.3,3.4,0.4,8,1.3,11.4c1.3,5.9,2.1,11.8,1.7,17.8c-1.7,0.4,0,2.5-1.3,3c-2.1,17.4,1.3,35.1,1.3,53.3
		c-0.4,15.2,4.2,32.2-1.3,46.1c-1.3,3,0,7.6-2.5,9.7c-11.8,2.1-24.1-0.8-36.4-0.8c-7.2,1.3-14.4-2.1-20.7-5.1
		c-3.8,1.7-5.1-2.5-8-2.5c2.1-3,7.6-4.2,8-8.9c-0.4-2.1-0.4-4.7-2.5-6.3c-11.4-2.1-23.7-0.8-35.5-0.8c-1.7-1.3-4.2-2.1-5.1-4.2
		c-0.8-6.3,1.7-13.1-0.8-18.6c0-4.2,3-8.9,0.4-13.1c-1.3-5.1,0.4-9.7,0-14.8c-3-2.5-5.9-3.8-9.7-4.2c0,3.4-0.8,7.2-0.8,10.6
		c1.7,15.7,1.3,32.6,1.7,49.1c0,4.7-2.5,8.9-6.3,11c-3.8-1.7-5.5,3.4-8.5,3c-6.3-0.4-11.8-3-17.4-4.7c-1.3-4.7-0.4-10.6-1.3-15.7
		l-0.4-0.4l0.4-0.4c-1.7-5.1,0.4-10.6-0.4-16.1c-0.4-25,0.4-50.4-0.8-75.3c-0.4-6.8-2.1-13.5,0-20.3c1.3-2.1,0.4-5.9,3.4-7.2
		c9.3-0.8,18.2,1.3,27.1,2.5c2.5-0.8,6.3,0.4,7.6-2.5c0.8-5.1-4.7-7.2-4.7-11.8c-0.8-1.3-1.7-0.8-3-1.3c-3,0.4-5.9,3-9.3,2.1
		c-11.4,2.1-23.7,1.3-34.7,4.7c-4.7,0.4-4.7-5.5-8-7.6c-1.3-3,0-6.8-0.8-9.7c-7.6-7.6-6.8-21.2-4.2-30.9c-0.4-0.8,0.4-1.7,0.8-2.5
		c5.5,1.3,9.3,7.2,16.1,5.9c13.1,2.1,27.5,1.7,40.6,3c0.4-0.4,1.7-0.4,2.1,0c8.5-0.4,16.9-0.4,25.4-1.3c1.3-0.8,3.8-0.4,4.2-2.5
		c-1.7-3.8-5.9-5.1-8-8.9c-1.3-2.1-3.4-3.8-5.1-5.5c0-3.4,0.8-7.2-1.7-9.7c-1.3-2.5-3-5.5-1.7-8.9c5.5-6.8,13.5-1.7,21.6-3
		c2.1-0.4,3.8-1.7,6.3-1.7C1003.3,125.5,1010,126.8,1016,131z M679.1,131c1.7,0.4,3.8-0.8,4.7,0.8c1.7,15.2-1.7,30.9,0,46.1
		c2.5,4.7,8.9,3,13.1,3c2.1-1.3,3.8-3,5.1-5.1c0.4-5.1-2.1-8.5-3-13.1c-1.3-4.7-3.4-8.9-3-14.4c1.7-0.8,0-3.4,1.3-4.2
		c16.1,3.8,34.3,3.8,50.8,6.8c2.1,0.4,4.2,1.7,6.8,1.7c0.8,0.4,0.8-0.8,1.7,0c15.2,0.8,26.2-8.5,41.9-6.3c7.6,1.3,19-2.5,21.2,7.6
		c0.4,3-1.7,5.1-2.1,7.6c-0.8,2.1-1.7,4.7-1.7,7.2c-4.2,16.5-11,32.2-14.4,49.1c-2.1,5.9-5.1,11.4-6.8,17.4
		c-4.7,4.2-8.9,9.3-12.3,14.4c-2.5,1.3-6.8-0.4-8,3c0,3-0.4,5.9,2.5,7.6c7.2,0.8,15.7,1.7,21.6-2.1c2.5-0.4,5.9,0,6.8,2.5
		c0.4,9.3-5.9,16.5-3.8,26.2c-0.4,19-1.3,39.4,3,57.6c-0.4,2.5,1.3,5.9-1.3,7.6c-1.3,3,1.7,8.9-3,9.7c-2.1,0-4.7,2.1-6.3,0.4
		c-10.6-5.5-24.5-1.7-36-0.8c-8.9-3.8-21.2-1.3-30-2.5c-0.4,0-1.7,0-2.5,0l-17.8,0.8c-1.3,1.3-3,0.8-3.8,1.7
		c-3.8,0.8-3.8-4.2-6.3-5.9l-1.3-1.3l-0.8-53.3c0.8-6.3-0.4-13.1,0.8-19c-0.8-7.2-6.8-11.4-12.3-15.7c-2.5-0.8-4.7,1.7-5.5,3.4
		c-0.8,1.3-0.4,3-1.3,4.7c-2.1,10.2,0,20.7-0.8,31.7c2.1,2.5,1.7,6.3,2.5,9.3c0.8,8.9-0.8,17.8-0.8,26.7c0.4,0.8,1.3,2.5,0.4,3.4
		c0.4,2.1,0,4.7-0.8,6.8c-0.8,1.7-0.8,4.2-3,5.5c-5.9,0-12.7-0.4-18.6,0.4l-0.4-0.4c-7.2,0.4-17.4,3-22.9-3.4
		c-2.1-3-5.9-4.7-6.8-8.5c2.5-6.8,8-11.4,14-15.2c1.7-0.4,3.8,0.4,5.1-0.8c1.3,0.4,1.7-0.8,2.5-1.3c0.4-7.6,0.4-16.1,0-23.7l0.4-0.4
		c-0.4-5.9-0.8-11.8-4.2-16.5c-0.4-1.3-1.7-0.4-2.5-0.8c-4.7,3.8-8.5,10.2-14.8,10.2c-2.5,1.3-5.1,2.5-7.2,4.7s-4.2,4.2-5.5,6.8
		h-0.8c-3-17.4-16.5-30-15.2-49.1c1.3-3.4,6.3-1.3,9.3-1.7c9.3-6.8,24.5,0.8,33-7.6c5.9-3.8,13.1-9.7,11-18.2
		c-0.8-4.7-2.1-8.9-6.3-11.4c-5.1-2.5-7.6,4.2-12.3,2.5c-1.7,0-4.2,0.4-5.9-0.4c-2.5-1.3-5.9-0.8-7.2-3.8c0.4-3.4,0-7.6-0.8-11
		c-2.5-8.5-8-16.1-7.2-26.2c3.4-1.3,5.5,1.3,8.9,0.4c9.3-0.8,19.5,0,27.9-2.1c3-1.3,3.8-3.8,5.1-6.8c0-17.4-10.2-31.7-4.7-49.5
		c2.1-0.8,4.2-0.4,6.3,0.4C663,128.5,671.1,130.2,679.1,131z"/>
	<path class="st1" d="M655.8,412.9h-1.7c-0.8,2.1-2.5,3-3.8,3c-0.8,0-2.1-0.4-3-0.8c-4.2-1.7-7.2-2.1-12.3-2.1
		c-16.9,0-28.8,11-28.8,25.4c0,14.4,11.8,25.4,28.8,25.4c8,0,16.5-3.4,21.2-9.3l-2.1-2.5c-4.2,4.2-10.6,8-18.2,8
		c-10.6,0-13.5-9.3-13.5-22.4s3-22,13.5-22c9.3,0,15.7,7.2,18.6,14h1.7v-16.5H655.8z M1612.7,462.4h28.4v-1.7
		c-5.1,0-6.8-0.4-6.8-6.3v-13.5l1.3-0.8l12.3,15.2c1.3,1.7,2.1,3,2.1,3.8c0,1.3-2.5,1.7-3.8,1.7v1.7h25.8v-1.7
		c-3.4,0-4.7-2.5-6.3-4.7l-19.5-24.5l13.5-11.4c2.5-2.1,6.8-4.7,11-4.7v-1.7h-21.6v1.7c2.1,0,6.3,0,6.3,2.1c0,0.8-2.1,3.8-5.5,6.3
		l-15.2,12.7v-15.2c0-5.5,1.7-5.9,6.8-6.3v-1.7h-28.4v1.7c5.1,0,6.8,0.4,6.8,6.3v32.6c0,5.5-1.7,5.9-6.8,6.3v2.1H1612.7z
		 M1551.7,462.4h19.5v-1.7c-5.1,0-8.9-0.8-8.9-6.8v-30l40.2,39.4h2.1v-41.5c0-4.2,1.7-6.3,5.9-6.8v-1.7h-18.2v1.7c4.7,0,8,0.8,8,6.8
		v20.7l-29.2-28.8h-19.9v1.7c2.5,0,3.4,0,6.8,4.2v33.9c0,4.2-1.7,6.8-6.8,6.8v2.1H1551.7z M1504.3,445.5l8-16.5l8.5,16.5H1504.3z
		 M1488.3,462.4h18.6v-1.7c-3.4,0-7.2-0.4-7.2-4.2c0-1.7,1.7-6.3,3-8h19.9l0.8,2.1c0.8,1.3,3,5.9,3,7.2s-0.8,2.1-2.1,2.5
		c-0.8,0.4-2.5,0.4-4.2,0.4v1.7h30v-1.7c-3,0-5.1-1.3-6.3-3.4c-1.7-2.1-3-5.1-4.7-8.5l-19.5-36h-2.5l-19.9,39.8
		c-2.5,4.7-3,7.6-8.9,8V462.4z M1436.2,462.4h22.4c2.1,0,6.3,0,8.9-0.4c11-0.8,19.5-4.2,19.5-13.5c0-4.2-4.2-8.5-8-9.7
		c-2.5-0.8-5.5-1.7-8.5-2.1c1.3-0.4,3-0.8,5.1-1.7c4.7-1.7,7.6-5.1,7.6-9.7c0-4.7-2.1-6.3-4.2-8c-3.8-3-10.6-3-17.8-3h-25.4v1.7
		c5.1,0,6.8,0.4,6.8,6.3v32.6c0,5.5-1.7,5.9-6.8,6.3v1.3H1436.2z M1457.4,418.4c0-1.3,0.4-2.1,3-2.1c1.3,0,3.4,0,5.1,1.3
		c2.5,2.1,3,5.1,3,8.5c0,8-4.2,9.3-8,9.3h-3L1457.4,418.4L1457.4,418.4z M1457.4,437.9h3.4c5.5,0,10.6,2.5,10.6,11
		c0,6.3-2.1,11-10.2,11c-3.4,0-3.8-0.4-3.8-5.1V437.9z M1377.4,463.7h2.1c0.4-1.3,0.8-2.1,3-2.1s6.8,2.1,12.3,2.1
		c11.4,0,19.5-6.8,19.5-16.1c0-5.5-3.4-10.6-10.2-13.5l-10.2-4.7c-3.8-1.7-7.6-3.4-7.6-8c0-3.8,3.4-5.9,7.6-5.9
		c7.2,0,13.1,6.3,14.4,12.3h2.1l-0.4-15.2h-2.1c0,1.3-1.3,2.1-2.5,2.1c-0.8,0-2.1,0-2.5-0.4c-3-0.8-6.8-1.3-8.5-1.3
		c-9.7,0-16.5,6.3-16.5,14.8c0,6.3,3,10.2,10.2,13.5l8.9,4.2c3.8,2.1,7.6,3.8,7.6,8.5c0,4.7-4.2,7.2-9.3,7.2c-8,0-13.5-7.6-14.8-14
		h-2.1L1377.4,463.7z M1333.4,462.4h30.9v-1.7c-5.9,0-8-1.3-8-5.9v-36.4c0-1.7,0.4-1.7,3-1.7c7.6,0,12.3,4.2,13.1,10.6h1.7
		l-0.4-13.1h-49.5l-0.4,13.1h1.7c1.3-6.3,5.9-10.6,13.1-10.6c2.1,0,3,0,3,1.7v36.4c0,5.1-2.1,5.9-8,5.9V462.4z M1264,462.4h19.5
		v-1.7c-5.1,0-8.9-0.8-8.9-6.8v-30l40.2,39.4h2.1v-41.5c0-4.2,1.7-6.3,5.9-6.8v-1.7h-18.2v1.7c4.7,0,8,0.8,8,6.8v20.7l-29.2-28.8
		h-19.9v1.7c2.5,0,3.4,0,6.8,4.2v33.9c0,4.2-1.7,6.8-6.8,6.8v2.1H1264z M1216.1,445.5l8-16.5l8.5,16.5H1216.1z M1200.5,462.4h18.6
		v-1.7c-3.4,0-7.2-0.4-7.2-4.2c0-1.7,1.7-6.3,3-8h19.9l0.8,2.1c0.8,1.3,3,5.9,3,7.2s-0.8,2.1-2.1,2.5c-0.8,0.4-2.5,0.4-4.2,0.4v1.7
		h30v-1.7c-3,0-5.1-1.3-6.8-3.4c-1.7-2.1-3-5.1-4.7-8.5l-19.5-36h-2.5l-19.9,39.8c-2.5,4.7-3,7.6-8.9,8v1.7H1200.5z M1135.7,462.4
		h28.4v-1.7c-5.1,0-6.8-0.4-6.8-6.3v-15.7h20.3v15.7c0,5.5-1.7,5.9-6.8,6.3v1.7h28.4v-1.7c-5.1,0-6.8-0.4-6.8-6.3v-32.6
		c0-5.5,1.7-5.9,6.8-6.3v-1.7h-28.4v1.7c5.1,0,6.8,0.4,6.8,6.3v14h-20.3v-14c0-5.5,1.7-5.9,6.8-6.3v-1.7h-28.4v1.7
		c5.1,0,6.8,0.4,6.8,6.3v32.6c0,5.5-1.7,5.9-6.8,6.3V462.4z M1132.3,412.9h-1.7c-0.8,2.1-2.5,3-3.8,3c-0.8,0-2.1-0.4-3-0.8
		c-4.2-1.7-7.2-2.1-12.3-2.1c-16.9,0-28.8,11-28.8,25.4c0,14.4,11.8,25.4,28.8,25.4c8,0,16.5-3.4,21.2-9.3l-2.1-2.5
		c-4.2,4.2-10.6,8-18.2,8c-10.6,0-13.5-9.3-13.5-22.4s3-22,13.5-22c9.3,0,15.7,7.2,18.6,14h1.7v-16.5H1132.3z M1043.5,420.1
		c0-2.5,0.4-3.8,4.2-3.8c6.8,0,10.2,4.2,10.2,10.2c0,7.6-5.5,10.6-12.7,10.6h-1.7V420.1z M1021.9,462.4h28.4v-1.7
		c-5.1,0-6.8-0.4-6.8-6.3v-14.8h2.5l15.2,22.9h18.2v-1.7c-1.3,0-1.7-0.4-3-1.3c-1.3-1.3-3-3.4-5.9-7.6l-9.7-13.1
		c6.3-1.7,12.7-5.5,12.7-11.8s-5.5-10.2-11.8-11.4c-3.8-0.8-12.7-0.8-21.6-0.8h-17.8v1.7c5.1,0,6.8,0.4,6.8,6.3v32.6
		c0,5.5-1.7,5.9-6.8,6.3v0.8H1021.9z M966.9,462.4h48.2l3-14.8l-1.7-0.4c-0.4,0.8-1.7,4.2-4.2,6.8c-5.5,5.5-9.3,5.5-17.4,5.5
		c-5.9,0-6.3-0.8-6.3-5.9v-15.2c8.9,0,11.8,3.4,12.7,10.6h1.7v-24.1h-1.7c-0.8,7.2-3.8,10.6-12.7,10.6v-15.2c0-3.4,0.8-3.8,5.1-3.8
		h5.1c9.7,0,13.5,3.8,14.4,11h1.7v-13.5h-47.4v1.7c5.1,0,6.8,0.4,6.8,6.3v32.6c0,5.5-1.7,5.9-6.8,6.3v1.7H966.9z M892.8,462.4h17.4
		v-1.7c-6.8,0-7.6-2.5-7.6-8v-33l18.6,42.3h2.5l19.5-42.3v34.7c0,5.5-1.7,5.9-6.8,6.3v1.7h27.5v-1.7c-5.1,0-6.8-0.4-6.8-6.3v-32.6
		c0-5.5,1.7-5.9,6.8-6.3v-1.7h-22l-14.4,30.9L914,413.7h-22v1.7c3.8,0,5.9,0.4,5.9,5.5v30.9c0,8-2.1,8.9-5.9,8.9v1.7H892.8z
		 M826.8,445.5l8-16.5l8.5,16.5H826.8z M811.1,462.4h18.6v-1.7c-3.4,0-7.2-0.4-7.2-4.2c0-1.7,1.7-6.3,3-8h19.9l0.8,2.1
		c0.8,1.3,3,5.9,3,7.2s-0.8,2.1-2.1,2.5c-0.8,0.4-2.5,0.4-4.2,0.4v1.7h30v-1.7c-3,0-5.1-1.3-6.8-3.4c-1.7-2.1-3-5.1-4.7-8.5
		l-19.5-36h-2.5l-19.9,39.8c-2.5,4.7-3,7.6-8.9,8v1.7H811.1z M752.3,462.4h19.5v-1.7c-5.1,0-8.9-0.8-8.9-6.8v-30l40.2,39.4h1.7
		v-41.5c0-4.2,1.7-6.3,5.9-6.8v-1.7h-18.2v1.7c4.7,0,8,0.8,8,6.8v20.7l-29.2-28.8h-19.9v1.7c2.5,0,3.4,0,6.8,4.2v33.9
		c0,4.2-1.7,6.8-6.8,6.8v2.1H752.3z M723.5,462.4h28.4v-1.7c-5.1,0-6.8-0.4-6.8-6.3v-32.6c0-5.5,1.7-5.9,6.8-6.3v-1.7h-28.4v1.7
		c5.1,0,6.8,0.4,6.8,6.3v32.6c0,5.5-1.7,5.9-6.8,6.3V462.4z M659.2,462.4h28.4v-1.7c-5.1,0-6.8-0.4-6.8-6.3v-15.7h20.3v15.7
		c0,5.5-1.7,5.9-6.8,6.3v1.7h28.4v-1.7c-5.1,0-6.8-0.4-6.8-6.3v-32.6c0-5.5,1.7-5.9,6.8-6.3v-1.7h-28.4v1.7c5.1,0,6.8,0.4,6.8,6.3
		v14h-20.3v-14c0-5.5,1.7-5.9,6.8-6.3v-1.7h-28.4v1.7c5.1,0,6.8,0.4,6.8,6.3v32.6c0,5.5-1.7,5.9-6.8,6.3V462.4z"/>
</g>
</svg>
