<?xml version="1.0" encoding="utf-8"?>
<!-- Generator: Adobe Illustrator 25.0.0, SVG Export Plug-In . SVG Version: 6.00 Build 0)  -->
<svg version="1.1" id="图层_1" xmlns="http://www.w3.org/2000/svg" xmlns:xlink="http://www.w3.org/1999/xlink" x="0px" y="0px"
	 viewBox="0 0 1860 560" style="enable-background:new 0 0 1860 560;" xml:space="preserve">
<style type="text/css">
	.st0{fill:#221E1F;}
</style>
<g>
	<g>
		<polygon class="st0" points="395,97.5 395,49.4 166.1,49.4 166.1,316.8 395,316.8 395,268.8 214.1,268.8 214.1,206.9 355.9,206.9
			355.9,158.9 214.1,158.9 214.1,97.5 		"/>
		<polygon class="st0" points="1072.1,316.3 916.9,49.4 760.6,316.3 814.2,316.3 916.4,141 1019.1,316.3 		"/>
		<g>
			<path class="st0" d="M1221.7,49.4h-172.5l27.9,48h146.3c16.7,0,30.7,14,30.7,30.7s-14,30.7-30.7,30.7h-83.7l91.6,157.4h53.6
				l-63.6-109.4c43.5,0,78.7-35.2,78.7-78.7C1300.4,84.6,1264.7,49.4,1221.7,49.4z"/>
		</g>
		<path class="st0" d="M680.8,268.3l-27.9,48h-20.1c-73.7,0-133.4-59.7-133.4-133.4S559.1,49.4,632.8,49.4h122.8l-27.9,48L632.2,98
			c-46.9,0-85.4,38.5-85.4,85.4s38.5,85.4,85.4,85.4L680.8,268.3z"/>
		<polygon class="st0" points="1635.4,49.4 1577.9,49.4 1510.3,142.7 1443.3,49.4 1385.8,49.4 1481.9,182.9 1385.8,316.3
			1443.3,316.3 1510.3,223.1 1577.9,316.3 1635.4,316.3 1539.4,182.9 		"/>
	</g>
	<g>
		<g>
			<path class="st0" d="M353.6,448.6c0,0,3.3,9.5,4.5,13.4c3.9-3.9,7.3-8.4,11.2-13.4v62h11.2v-79.8c4.5-7.8,8.4-15.6,11.2-24
				l-10.6-3.3C374.3,420.1,364.3,436.9,353.6,448.6z"/>
			<path class="st0" d="M453.6,475.4c-0.6,20.1-2.2,21.8-8.4,21.8h-27.4c-6.7,0-11.2-4.5-11.2-8.9c0-5.6-1.7-10.6,48.6-63.6V414
				h-58.6v10.6h41.9c-45.8,49.7-44.1,55.3-44.1,66.4c0,9.5,5,17.9,20.7,17.9h30.1c13.4,0,17.9-4.5,19-30.7
				C461.4,478.7,456.4,477.1,453.6,475.4z"/>
		</g>
		<path class="st0" d="M611.6,486.6v6.1h-9.5V414h26.8v72.6H611.6z M611.6,422.4v55.3h8.9v-55.3H611.6z M666.3,424.6
			c-1.7,50.2-1.1,74.2-4.5,79.3c-2.2,2.8-3.9,4.5-7.3,4.5c-2.8,0.6-5,0.6-8.9,0c0-2.8-1.1-6.7-2.2-9.5c3.3,0.6,5,0.6,6.7,0.6
			c1.7,0,2.2-0.6,3.3-2.2c2.2-3.3,2.2-25.1,3.3-68.1H649c0,34.1-2.2,64.2-17.3,80.9c-1.7-2.2-5-5.6-7.3-7.3
			c14-14.5,15.1-43.5,15.6-73.7h-7.3v-9.5h7.3c0-7.3,0-7.3,0-15.1h9.5c0,7.8,0,7.8,0,15.1h17.3v5H666.3z M699.8,415.1v92.1h-8.9
			v-4.5h-8.4v5.6h-10v-93.2H699.8z M690.3,492.7V424h-8.4v68.7H690.3z"/>
		<g>
			<path class="st0" d="M901.3,498.8c-12.3,0-22.3-0.6-29.6-5c-3.3-2.2-5.6-5.6-7.8-6.7v-43.5h-25.1v10h14v32.9
				c-5,2.2-10,9.5-15.1,15.6l7.8,7.8c5.6-7.3,9.5-15.1,12.8-15.1c2.2,0,5.6,5.6,10,8.4c7.8,4.5,18.4,4.5,32.4,4.5
				c12.3,0,30.1,0.6,38.5,0c0-2.8,1.7-7.3,2.8-10C930.9,498.8,914.1,498.8,901.3,498.8z"/>
			<path class="st0" d="M887.3,422.4c4.5,2.2,7.8,4.5,11.2,7.3h-25.1V491h10v-17.9h16.7v17.3h9.5v-17.3h15.6v7.8
				c0,1.1-0.6,1.7-1.7,1.7s-4.5,0-8.9,0c1.1,2.2,2.2,6.1,2.8,8.4c7.3,0,11.7,0,15.1-1.7c3.3-1.1,3.9-3.9,3.9-8.4v-51.4h-22.3
				l-0.6-0.6c6.7-3.9,14.5-8.9,19.5-13.4V409l-61.4-0.6v8.4h20.7L887.3,422.4z M900.2,463.7h-15.6v-8.4h15.6V463.7z M900.2,447.5
				h-15.6v-8.4h15.6V447.5z M927,463.7h-17.3v-8.4H927V463.7z M927,439.1v8.4h-17.3v-8.4H927z M905.2,424c-3.3-2.8-7.8-6.1-10.6-7.3
				H918C914.7,419,909.7,421.8,905.2,424z"/>
			<path class="st0" d="M859.4,430.2l7.3-7.3c-3.9-5-12.8-12.8-19.5-18.4l-7.3,6.1C847.1,416.8,855.5,425.1,859.4,430.2z"/>
		</g>
		<path class="st0" d="M1126.8,472c-1.7-2.8-7.8-10.6-10.6-13.4v50.2h-11.7V462c-4.5,10.6-10.6,17.3-15.6,24c-1.1-2.8-3.3-7.3-5-10
			c6.7-7.8,15.1-20.7,19.5-32.4h-15.6v-10h17.3v-13.4c-5,0.6-9.5,0.6-14.5,0.6c0-3.3-1.1-6.7-1.7-8.9c12.8-1.7,29.6-3.3,38.5-7.3
			l3.3,9.5c-4.5,1.7-8.4,2.8-13.4,3.9v15.6h13.4v10h-13.4v3.3c3.3,2.8,15.1,13.4,17.3,16.7L1126.8,472z M1178.7,477.1v32.4h-10.6
			v-30.1l-34.6,5.6l-1.7-10l36.3-6.1v-64.8h10.6V467l10-1.7l1.7,10L1178.7,477.1z M1154.2,461.4c-3.9-5-12.3-12.3-19-17.3l6.7-6.1
			c6.7,4.5,15.6,11.7,19.5,16.2L1154.2,461.4z M1157,433.5c-3.3-5-11.2-11.7-17.9-16.7l7.3-6.1c6.7,4.5,14.5,11.2,18.4,16.2
			L1157,433.5z"/>
		<g>
			<path class="st0" d="M1363.5,448c-2.2,1.7-6.1,3.9-11.2,6.1v-21.8h11.2v-10h-11.2v-19h-10.6v19.5h-14v10h14v25.7
				c-6.1,2.2-10.6,3.9-15.1,4.5l2.2,10c3.9-1.1,8.4-2.2,12.8-3.9v27.9c0,1.7-0.6,2.2-2.2,2.2c-1.1,0-6.1,0-11.2,0
				c1.1,2.8,2.8,7.3,3.3,9.5c7.8,0,12.8,0,16.2-1.7c3.3-1.7,4.5-4.5,4.5-10v-32.4c4.5-1.7,7.8-3.9,11.2-5L1363.5,448z"/>
			<path class="st0" d="M1408.7,487.1c8.4-7.8,13.4-18.4,17.9-30.7v-10h-22.9v-17.9h26.8v-10h-26.8v-15.6h-10.6v15.6h-25.7v10h25.7
				v17.9h-23.4v10h5c4.5,11.7,10.6,21.8,17.9,30.1c-8.9,6.1-19,10.6-29.6,12.8c2.2,2.2,4.5,6.7,5.6,9.5c11.7-3.3,22.3-8.4,31.3-15.1
				c8.4,7.3,18.4,12.3,29.6,15.6c1.7-2.8,4.5-7.3,6.7-8.9C1426,497.2,1416.5,492.7,1408.7,487.1z M1399.8,479.9
				c-6.7-6.7-11.2-14.5-14.5-24h30.1C1411.5,465.3,1407.1,473.2,1399.8,479.9z"/>
		</g>
	</g>
</g>
</svg>
