<?xml version="1.0" encoding="utf-8"?>
<!-- Generator: Adobe Illustrator 25.0.0, SVG Export Plug-In . SVG Version: 6.00 Build 0)  -->
<svg version="1.1" id="图层_1" xmlns="http://www.w3.org/2000/svg" xmlns:xlink="http://www.w3.org/1999/xlink" x="0px" y="0px"
	 viewBox="0 0 1860 560" style="enable-background:new 0 0 1860 560;" xml:space="preserve">
<style type="text/css">
	.st0{fill:#231815;}
	.st1{fill:#E95529;}
	.st2{fill:#7E8387;}
</style>
<g id="XMLID_145_">
	<g id="XMLID_147_">
		<path id="XMLID_180_" class="st0" d="M540.5,267.6l-98,13.1c3.9,17,18.5,25.5,37.8,25.5c15.4,0,32.4-3.9,44-9.3l13.1,35.5
			c-13.9,6.9-37.8,11.6-61.7,11.6c-54.8,0-81-35.5-81-81.8c0-47.9,27.8-81.8,74.9-81.8c45.5,0,70.2,30.9,70.2,73.3
			C541.3,257.6,541.3,262.2,540.5,267.6z M469.5,212.9c-17,0-30.1,11.6-30.1,37.8l55.6-6.9C495,223.7,484.9,212.9,469.5,212.9z"/>
		<path id="XMLID_177_" class="st0" d="M699.5,267.6l-98,13.1c3.9,17,18.5,25.5,37.8,25.5c15.4,0,32.4-3.9,44-9.3l13.1,35.5
			c-13.9,6.9-37.8,11.6-61.7,11.6c-54.8,0-81-35.5-81-81.8c0-47.9,27.8-81.8,74.9-81.8c45.5,0,70.2,30.9,70.2,73.3
			C700.3,257.6,700.3,262.2,699.5,267.6z M628.5,212.9c-17,0-30.1,11.6-30.1,37.8l55.6-6.9C654,223.7,643.9,212.9,628.5,212.9z"/>
		<polygon id="XMLID_85_" class="st0" points="725.7,255.3 766.6,211.3 766.6,111 718.8,111 718.8,339.4 766.6,339.4 766.6,301.6
			"/>
		<polygon id="XMLID_84_" class="st1" points="823.7,339.4 753.5,255.3 819.1,182.8 881.6,182.8 813.7,256.1 885.5,339.4 		"/>
		<path id="XMLID_83_" class="st0" d="M305.9,218.3v30.1l23.9-3.1v54.8c-3.1,1.5-8.5,2.3-16.2,2.3c-23.2,0-44-22.4-44-67.9
			c0-45.5,23.2-66.4,54-66.4c16.2,0,28.6,3.9,37,8.5c9.3,5.4,15.4,10.8,15.4,10.8V138c-10.8-6.2-31.6-11.6-54-11.6
			c-63.3,0-101.9,44-101.9,108.8c0,64.1,35.5,108.8,97.2,108.8c24.7,0,47.1-4.6,59.4-11.6V209.8L305.9,218.3z"/>
		<path id="XMLID_82_" class="st0" d="M978.9,180.4c-5.4,0-11.6,0.8-17,2.3v23.9c3.9-0.8,7.7-0.8,10.8-0.8
			c25.5,0,41.7,20.1,41.7,54.8c0,40.1-18.5,57.9-44,57.9c-9.3,0-17.8-2.3-22.4-3.9v-85.7v-18.5v-23.9v-20.8V111h-31.6v220.7
			c12.3,6.2,32.4,10.8,52.5,10.8c47.1,0,77.2-26.2,77.2-85.7C1046.8,209.8,1019,180.4,978.9,180.4z"/>
		<path id="XMLID_81_" class="st0" d="M1450.4,179.7c-46.3,0-78,25.5-78,79.5c0,47.1,27.8,74.9,67.1,74.9c6.2,0,12.3-0.8,17.8-2.3
			v-23.9c-3.9,0.8-7.7,0.8-11.6,0.8c-24.7,0-41.7-17-41.7-51.7c0-37.8,19.3-53.3,44-53.3c9.3,0,18.5,2.3,23.2,3.9v95.7v23.9v11.6
			c0,25.5-12.3,39.4-38.6,39.4c-17,0-33.2-4.6-44-10l-9.3,24.7c13.1,6.2,33.2,11.6,55.6,11.6c41.7,0,67.1-23.2,67.1-66.4V189.7
			C1490.6,184.3,1471.3,179.7,1450.4,179.7z"/>
		<path id="XMLID_80_" class="st0" d="M1129.4,179.7c-20.8,0-42.4,5.4-54.8,10.8l8.5,21.6c10.8-4.6,28.6-9.3,43.2-9.3
			c20.1,0,33.2,6.9,33.2,27v6.2v3.9v21.6v31.6v23.2c-4.6,2.3-17,3.9-27,3.9c-23.9,0-37-10-37-27c0-23.9,23.2-29.3,50.2-31.6v-20.8
			c-42.4,3.9-80.3,13.9-80.3,53.3c0,30.9,22.4,49.4,67.9,49.4c22.4,0,44.8-4.6,56.3-10.8v-98.8
			C1189.6,194.3,1166.4,179.7,1129.4,179.7z"/>
		<g id="XMLID_168_">
			<path id="XMLID_79_" class="st0" d="M1281.4,179.7c-24.7,0-44.8,4.6-60.2,10.8v34c6.9-3.9,17.8-10,31.6-14.7
				c6.2-2.3,17-4.6,28.6-4.6c21.6,0,33.2,11.6,33.2,29.3v105h31.6V231.4C1346.3,199,1325.4,179.7,1281.4,179.7z"/>
			<path id="XMLID_78_" class="st0" d="M1221.2,240.6v98.8h31.6v-115C1239.7,229.1,1228.2,236,1221.2,240.6z"/>
		</g>
		<g id="XMLID_149_">
			<path id="XMLID_163_" class="st2" d="M742.7,448.2l12.3-1.5v8.5l-12.3,1.5V483h-13.1v-25.5l-38.6,4.6v-8.5l38.6-4.6v-65.6h13.1
				V448.2z M722.6,412l-9.3-21.6h-13.1l9.3,21.6H722.6z M709.5,439.8h13.1l-9.3-21.6h-13.1L709.5,439.8z M679.4,428.2L679.4,428.2
				l-0.8-6.9h13.9v-7.7h-13.9v-19.3c5.4-0.8,10-1.5,13.9-2.3v-8.5c-7.7,1.5-24.7,3.9-45.5,4.6v7.7c6.2,0,12.3-0.8,17.8-0.8v17.8H647
				v7.7h14.7c-3.1,17-13.1,31.6-20.1,39.4l6.9,8.5c3.1-3.9,11.6-15.4,16.2-30.1v41.7h13.1v-46.3c6.2,4.6,10.8,10,12.3,12.3l8.5-6.2
				C697.2,439.8,690.2,433.6,679.4,428.2z"/>
			<path id="XMLID_160_" class="st2" d="M540.5,397.3h13.9v7.7h-13.9v12.3h13.9v7.7h-13.9v14.7h13.9v7.7h-13.9
				c0,21.6-17,30.9-33.2,33.2v-8.5c12.3-3.1,20.1-12.3,20.1-24.7h-20.1v-7.7h20.1v-14.7h-20.1v-7.7h20.1V405h-20.1v-7.7h20.1v-13.9
				h13.1V397.3z M610,417.4h-13.1l8.5-28.6h-43.2v93.4h13.1v-85.7h14.7l-8.5,28.6h19.3v0.8c3.1,9.3,1.5,22.4-6.9,28.6
				c-3.1,2.3-6.9,3.9-12.3,3.9v7.7c10.8,0,17.8-3.9,22.4-6.2c12.3-9.3,13.9-27.8,8.5-40.1L610,417.4z"/>
			<path id="XMLID_156_" class="st2" d="M463.3,412.7l2.3-3.9v0.8h13.1v-20.1h-46.3v-6.2h-13.1v6.2H373v20.1h13.1v-11.6h80.3v9.3
				h-54.8c0.8-1.5,1.5-3.1,2.3-3.9h-13.1c-3.1,5.4-9.3,13.1-25.5,17.8l3.9,7.7c6.2-1.5,10.8-3.9,15.4-5.4c0.8,0,1.5,0.8,2.3,0.8
				c3.1,1.5,9.3,3.9,17.8,6.9c-10.8,3.1-23.9,6.2-41.7,8.5v8.5c4.6-0.8,8.5-1.5,12.3-1.5v35.5H468v-36.3h-81
				c17-3.1,30.1-6.2,40.1-10c13.9,4.6,31.6,8.5,52.5,11.6V439c-14.7-2.3-27.8-5.4-39.4-8.5C454.8,422.8,461,416.6,463.3,412.7z
				 M397.7,452.9h57.1v20.1h-57.1V452.9z M427,425.9c-12.3-3.9-20.8-7.7-23.9-9.3c0.8-0.8,1.5-0.8,1.5-1.5h41.7l-3.9,2.3
				C439.4,420.5,434,422.8,427,425.9z"/>
			<path id="XMLID_152_" class="st2" d="M809.1,429.7l9.3-5.4v10.8l-9.3,5.4v24.7c0,8.5-8.5,17-23.2,17h-3.1v-7.7h3.1
				c7.7,0,10-6.2,10-9.3v-17l-13.1,7.7v-10.8l13.1-7.7v-27h-13.1v-7.7H796V385h13.1v17.8h9.3v7.7h-9.3V429.7z M893.2,472.2v9.3
				c-10.8-3.1-24.7-8.5-36.3-17c-12.3,8.5-25.5,13.9-36.3,17v-9.3c9.3-3.1,19.3-7.7,28.6-14.7c-10.8-9.3-19.3-20.8-22.4-34l-0.8-4.6
				h9.3h15.4v-14.7h-25.5v-7.7h25.5v-13.9h13.1v13.9h27.8v7.7h-27.8v14.7h17.8h7.7l-0.8,4.6c-2.3,13.1-10.8,24.7-22.4,34
				C873.1,464.5,883.2,469.1,893.2,472.2z M872.4,429.7l0.8-1.5H840l0.8,1.5c3.1,7.7,8.5,15.4,16.2,21.6
				C863.9,445.2,869.3,437.4,872.4,429.7z"/>
			<path id="XMLID_150_" class="st2" d="M344.5,482.2h-14.7c-6.2-6.9-12.3-13.1-19.3-18.5c-4.6,6.2-10,12.3-17,18.5h-15.4
				c10-8.5,17.8-17,23.2-25.5c-6.2-4.6-12.3-7.7-17.8-10.8c0,13.1-6.2,28.6-18.5,35.5v-14.7c3.9-6.2,6.2-13.9,6.2-21.6v-5.4
				c-4.6-1.5-7.7-3.1-10-3.9l0,0v-9.3c1.5,0.8,3.1,0.8,5.4,1.5c4.6,1.5,21.6,7.7,40.9,20.1c5.4-9.3,8.5-17,10-21.6l0.8-1.5h-24.7
				l13.9-28.6h-23.9v34c-5.4-2.3-10-3.9-13.1-5.4v-10h-14.7v68.7h-13.1v-44c-4.6,14.7-11.6,24.7-15.4,29.3l-6.9-8.5
				c8.5-10.8,17.8-27,20.1-45.5h-17.8v-7.7h20.1v-21.6h13.1v21.6h14.7v-18.5h54l-13.9,28.6h22.4l-0.8,4.6c0,0.8-3.9,16.2-15.4,34
				C326.7,462.1,336,471.4,344.5,482.2z"/>
		</g>
		<polygon id="XMLID_64_" class="st1" points="1533.8,339.4 1605.6,256.1 1537.7,182.8 1600.2,182.8 1665.8,255.3 1595.5,339.4
			"/>
	</g>
	<path id="XMLID_63_" class="st1" d="M1700.5,320.9c0-10.8-8.5-20.1-20.1-20.1c-10.8,0-20.1,8.5-20.1,20.1
		c0,10.8,8.5,20.1,20.1,20.1C1691.2,341,1700.5,332.5,1700.5,320.9z"/>
</g>
</svg>
