<?xml version="1.0" encoding="utf-8"?>
<!-- Generator: Adobe Illustrator 25.0.0, SVG Export Plug-In . SVG Version: 6.00 Build 0)  -->
<svg version="1.1" id="图层_1" xmlns="http://www.w3.org/2000/svg" xmlns:xlink="http://www.w3.org/1999/xlink" x="0px" y="0px"
	 viewBox="0 0 1860 560" style="enable-background:new 0 0 1860 560;" xml:space="preserve">
<style type="text/css">
	.st0{fill-rule:evenodd;clip-rule:evenodd;fill:#0070AC;}
	.st1{fill:#0070AC;}
</style>
<g>
	<path class="st0" d="M124.6,289.6h24.1v1.3h-24.1L124.6,289.6L124.6,289.6z M279.7,220.3h1.3V219h-1.3v-2.6h-1.3v-1.3H277v1.3h-1.3
		v2.6h-1.3v-3.9h-1.3v-1.3h-5.3v1.3h-1.3v1.3h-1.3h-0.4h-0.9v2.6h-1.3v-2.6h-1.3v2.6h-1.3v1.3h7.4v1.3h-7.4l1.8,3.5h16.6v16.6h1.3
		v-1.3h5.3v1.3h1.3v-1.3V240v-0.9l0,0v-1.3h-1.3v-3.9h-1.3v-1.3H281v1.3h-1.3v-8.8l0,0l1.8-3.5h-1.8L279.7,220.3L279.7,220.3z
		 M278.3,220.3v1.3h-2.6v-1.3H278.3L278.3,220.3z M274.4,220.3v1.3h-1.3v-1.3H274.4L274.4,220.3z M273.5,220.3h-1.3v1.3h-1.3V219
		h1.3v-1.3h1.3V220.3L273.5,220.3z M270.9,217.7v1.3h-1.3v1.3h-1.3V219h-2.6v-1.3h2.6v1.3h1.3v-1.3H270.9L270.9,217.7z M269.6,215.1
		v1.3h-1.3v-1.3H269.6L269.6,215.1z M272.2,216.4v-1.3h1.3v1.3H272.2L272.2,216.4z M273.5,212.9v1.3h1.3v-1.3H273.5L273.5,212.9z
		 M267.4,208.9h2.6v-7V194v-8.8h1.3v8.8h1.3v15.3h2.6v2.6h-6.1v1.3h-1.3v-4.4H267.4z M284.9,239.2h-1.3v-1.3h1.3V239.2L284.9,239.2z
		 M281,239.2h-1.3v-1.3h1.3V239.2L281,239.2z M260.8,233h1.3v5.3h-1.3v1.3h2.6v1.3h-6.1v1.3h-1.8v-1.3h-1.3v-1.3h4.8v-3.9h1.3V233
		H260.8z M258.2,234.4h-1.3V233h-1.3v5.3h1.3v1.3h1.3V234.4L258.2,234.4z M273.5,233h3.9v4.8h-3.9V233L273.5,233z M269.6,233h2.6
		v4.8h-2.6V233L269.6,233z M264.8,233h2.6v4.8h-2.6V233L264.8,233z M273.5,226.5h3.9v4.8h-3.9V226.5L273.5,226.5z M269.6,226.5h2.6
		v4.8h-2.6V226.5L269.6,226.5z M264.8,226.5h2.6v4.8h-2.6V226.5L264.8,226.5z M296.3,307.5h-7.4v14h-2.6v-12.7h-1.3v-1.3h-2.2h-2.2
		h-2.2v1.3H277v12.7h-2.6v-14h-7.4v1.3h-1.3v12.7H263v-14h-6.1v1.3h-1.3v12.7h-2.6v-14h-7.4v1.3h-1.3v12.7h-2.6v-1.3h-53v-41.6h5.3
		v-1.3h-5.3V276h5.3v-1.3h-6.1v-1.3h64.4v26.3h-11.4v2.6h14v-2.6h32.9v2.6h14v-2.6h-11.4v-26.3h67l-15.8-5.3h-51.3V258h0.9l4.4-2.2
		h-17.5v-2.6H274v2.6h-1.3v-2.6H270v2.6h-2.6v-2.6h-2.6v2.6h-1.3v-10.5h1.3v5.3h2.6v-5.3h2.6v5.3h2.6v-5.3h1.3v5.3h3.9v-5.3h6.6v7.9
		h-2.6v1.3h8.8v-1.3h-5.3v-7.9v-0.9V244h-27.6v-1.3h-2.2v1.3v0.4v0.9h1.3v7.9h-5.3v1.3h8.8v-1.3h-2.6v-7.9h3.9v10.5h-14.9l4.4,2.2
		h0.9v10.1h-51.3l-15.8,5.3h1.8v1.3h1.3v0.4v2.2v1.3v12.7h-9.2v1.3h9.2v28h-1.3v1.3h54.3v1.3h-55.6v1.3h36.8v1.3h-35.5v1.3h28.9v1.3
		l0,0v0.4l0,0v0.4h3.9v-1.3h2.6v-1.3h2.2v-1.3h5.3v-1.3h7.4v1.3h-2.6v1.3h-2.6v1.3l0,0v1.3v1.3v1.3h2.6v-1.3h1.3v-1.3h-1.3v-1.3h1.3
		v-1.3h1.3v-1.3h3.9v-1.3h1.3l0,0h59.1l0,0h0.4v1.3h2.6v1.3h2.6v1.3h1.3v1.3v1.3h2.6h1.3v-1.3h-1.3v-1.3h-1.3v-1.3h-1.3v-1.3h-2.6
		v-1.3h7.9v1.3h3.5v1.3h3.5v1.3h2.6v1.3h3.9v-1.3l0,0v-1.3H355v1.3c-9.6,13.6-22.3,25-37.2,32.9h-35.1l-11.8,3.9l-11.8-3.9h-34.6
		c-18.8-9.6-34.2-25-43.8-43.4v3.1H99.6v-28.9h-1.8v28.9h-3.9h-1.3v1.3v1.3v1.3v1.3v0.9v0.4h41.2c6.6,16.2,16.2,31.1,28,43.8
		l9.2-8.8l3.5,3.5l0,0l-0.9,2.2l-11,3.9l-18.8,47.8h87.6l-5.3,11.8h86.3l-4.4-11.8h85.4L376,371.9l-10.5-3.1l-0.9-2.6
		c0.9-0.9,2.2-2.2,3.1-3.5l9.6,8.8c11.8-12.7,21.9-28,28.9-44.3h42.1v-0.4v-0.9v-1.3v-1.3v-2.2v-1.3H447l0,0v-29.4h-1.3v29.4H444
		v-29.4h-1.3v29.4h-25.4v-30.2l0,0l0,0h-25l0,0v0.9v29.4h-28.9v-29.4h-0.4H362h-8.8v1.3h8.8v28h-1.3v-3.1c-0.9,1.8-2.2,3.5-3.1,5.3
		h-2.2v-0.9l0,0v-1.3l0,0v-1.3h1.3v-1.3h-1.3v1.3h-1.3v1.3H348v-41.6h5.3v-0.9H348V276h5.3v-1.3h-6.1v0.4v2.2v1.3v41.6h-46.9v1.3
		h-2.6v-12.7h-1.3V307.5L296.3,307.5z M282.3,290.9h3.9v5.3h-3.9V290.9L282.3,290.9z M282.3,260.6h3.9v6.1h-3.9V260.6L282.3,260.6z
		 M282.3,268.1h3.9v6.1h-3.9V268.1L282.3,268.1z M282.3,276h3.9v6.1h-3.9V276L282.3,276z M282.3,283.4h3.9v6.1h-3.9V283.4
		L282.3,283.4z M274.8,290.9h3.9v5.3h-3.9V290.9L274.8,290.9z M274.8,260.6h3.9v6.1h-3.9V260.6L274.8,260.6z M274.8,268.1h3.9v6.1
		h-3.9V268.1L274.8,268.1z M274.8,276h3.9v6.1h-3.9V276L274.8,276z M274.8,283.4h3.9v6.1h-3.9V283.4L274.8,283.4z M268.3,290.9h3.9
		v5.3h-3.9V290.9L268.3,290.9z M268.3,260.6h3.9v6.1h-3.9V260.6L268.3,260.6z M268.3,268.1h3.9v6.1h-3.9V268.1L268.3,268.1z
		 M268.3,276h3.9v6.1h-3.9V276L268.3,276z M268.3,283.4h3.9v6.1h-3.9V283.4L268.3,283.4z M263,290.9h3.9v5.3H263V290.9L263,290.9z
		 M263,260.6h3.9v6.1H263V260.6L263,260.6z M263,268.1h3.9v6.1H263V268.1L263,268.1z M263,276h3.9v6.1H263V276L263,276z M263,283.4
		h3.9v6.1H263V283.4L263,283.4z M254.2,290.9h3.9v5.3h-3.9V290.9L254.2,290.9z M254.2,260.6h3.9v6.1h-3.9V260.6L254.2,260.6z
		 M254.2,268.1h3.9v6.1h-3.9V268.1L254.2,268.1z M254.2,276h3.9v6.1h-3.9V276L254.2,276z M254.2,283.4h3.9v6.1h-3.9V283.4
		L254.2,283.4z M344.1,276v1.3h1.3v5.3h-3.9v-6.1h2.6V276z M345.4,312.3v6.6h-3.9v-6.6H345.4L345.4,312.3z M345.4,306.2v5.3h-3.9
		v-5.3H345.4L345.4,306.2z M345.4,298.3v4.8h-3.9v-4.8H345.4L345.4,298.3z M345.4,290.9v4.8h-3.9v-4.8H345.4L345.4,290.9z
		 M345.4,283.4v6.1h-3.9v-6.1H345.4L345.4,283.4z M336.6,276h2.6v6.1h-3.9v-4.8h1.3L336.6,276L336.6,276z M335.3,312.3h3.9v6.6h-3.9
		V312.3L335.3,312.3z M335.3,306.2h3.9v5.3h-3.9V306.2L335.3,306.2z M335.3,298.3h3.9v4.8h-3.9V298.3L335.3,298.3z M335.3,290.9h3.9
		v4.8h-3.9V290.9L335.3,290.9z M335.3,283.4h3.9v6.1h-3.9V283.4L335.3,283.4z M331.4,276h2.6v6.1H330v-4.8h1.3V276L331.4,276z
		 M330,312.3h3.9v6.6H330V312.3L330,312.3z M330,306.2h3.9v5.3H330V306.2L330,306.2z M330,298.3h3.9v4.8H330V298.3L330,298.3z
		 M330,290.9h3.9v4.8H330V290.9L330,290.9z M330,283.4h3.9v6.1H330V283.4L330,283.4z M327.9,276v1.3h1.3v5.3h-3.9v-6.1h2.6V276z
		 M329.2,312.3v6.6h-3.9v-6.6H329.2L329.2,312.3z M329.2,306.2v5.3h-3.9v-5.3H329.2L329.2,306.2z M329.2,298.3v4.8h-3.9v-4.8H329.2
		L329.2,298.3z M329.2,290.9v4.8h-3.9v-4.8H329.2L329.2,290.9z M329.2,283.4v6.1h-3.9v-6.1H329.2L329.2,283.4z M320,276h2.6v6.1
		h-3.9v-4.8h1.3L320,276L320,276z M319.1,312.3h3.9v6.6h-3.9V312.3L319.1,312.3z M319.1,306.2h3.9v5.3h-3.9V306.2L319.1,306.2z
		 M319.1,298.3h3.9v4.8h-3.9V298.3L319.1,298.3z M319.1,290.9h3.9v4.8h-3.9V290.9L319.1,290.9z M319.1,283.4h3.9v6.1h-3.9V283.4
		L319.1,283.4z M315.1,276h2.6v6.1h-3.9v-4.8h1.3L315.1,276L315.1,276z M313.8,312.3h3.9v6.6h-3.9V312.3L313.8,312.3z M313.8,306.2
		h3.9v5.3h-3.9V306.2L313.8,306.2z M313.8,298.3h3.9v4.8h-3.9V298.3L313.8,298.3z M313.8,290.9h3.9v4.8h-3.9V290.9L313.8,290.9z
		 M313.8,283.4h3.9v6.1h-3.9V283.4L313.8,283.4z M311.2,276v1.3h1.3v5.3h-3.9v-6.1h2.6V276z M312.5,312.3v6.6h-3.9v-6.6H312.5
		L312.5,312.3z M312.5,306.2v5.3h-3.9v-5.3H312.5L312.5,306.2z M312.5,298.3v4.8h-3.9v-4.8H312.5L312.5,298.3z M312.5,290.9v4.8
		h-3.9v-4.8H312.5L312.5,290.9z M312.5,283.4v6.1h-3.9v-6.1H312.5L312.5,283.4z M303.8,276h2.6v6.1h-3.9v-4.8h1.3L303.8,276
		L303.8,276z M302.4,312.3h3.9v6.6h-3.9V312.3L302.4,312.3z M302.4,306.2h3.9v5.3h-3.9V306.2L302.4,306.2z M302.4,298.3h3.9v4.8
		h-3.9V298.3L302.4,298.3z M302.4,290.9h3.9v4.8h-3.9V290.9L302.4,290.9z M302.4,283.4h3.9v6.1h-3.9V283.4L302.4,283.4z M299.8,276
		v1.3h1.3v5.3h-3.9v-6.1h2.6V276z M301.1,290.9v4.8h-3.9v-4.8H301.1L301.1,290.9z M301.1,283.4v6.1h-3.9v-6.1H301.1L301.1,283.4z
		 M295,276v1.3h1.3v5.3h-3.9v-6.1h2.6V276z M296.3,290.9v4.8h-3.9v-4.8H296.3L296.3,290.9z M296.3,283.4v6.1h-3.9v-6.1H296.3
		L296.3,283.4z M243.3,276v1.3h1.3v5.3h-3.9v-6.1h2.6V276z M244.2,290.9v4.8h-3.9v-4.8H244.2L244.2,290.9z M244.2,283.4v6.1h-3.9
		v-6.1H244.2L244.2,283.4z M246.8,276h2.6v6.1h-3.9v-4.8h1.3L246.8,276L246.8,276z M245.5,290.9h3.9v4.8h-3.9V290.9L245.5,290.9z
		 M245.5,283.4h3.9v6.1h-3.9V283.4L245.5,283.4z M235.4,276h2.6v6.1h-3.9v-4.8h1.3L235.4,276L235.4,276z M234.5,312.3h3.9v6.6h-3.9
		V312.3L234.5,312.3z M234.5,306.2h3.9v5.3h-3.9V306.2L234.5,306.2z M234.5,298.3h3.9v4.8h-3.9V298.3L234.5,298.3z M234.5,290.9h3.9
		v4.8h-3.9V290.9L234.5,290.9z M234.5,283.4h3.9v6.1h-3.9V283.4L234.5,283.4z M230.6,276h2.6v6.1h-3.9v-4.8h1.3V276L230.6,276z
		 M229.3,312.3h3.9v6.6h-3.9V312.3L229.3,312.3z M229.3,306.2h3.9v5.3h-3.9V306.2L229.3,306.2z M229.3,298.3h3.9v4.8h-3.9V298.3
		L229.3,298.3z M229.3,290.9h3.9v4.8h-3.9V290.9L229.3,290.9z M229.3,283.4h3.9v6.1h-3.9V283.4L229.3,283.4z M226.6,276v1.3h1.3v5.3
		H224v-6.1h2.6V276z M228,312.3v6.6H224v-6.6H228L228,312.3z M228,306.2v5.3H224v-5.3H228L228,306.2z M228,298.3v4.8H224v-4.8H228
		L228,298.3z M228,290.9v4.8H224v-4.8H228L228,290.9z M228,283.4v6.1H224v-6.1H228L228,283.4z M219.2,276h2.6v6.1h-3.9v-4.8h1.3
		L219.2,276L219.2,276z M217.9,312.3h3.9v6.6h-3.9V312.3L217.9,312.3z M217.9,306.2h3.9v5.3h-3.9V306.2L217.9,306.2z M217.9,298.3
		h3.9v4.8h-3.9V298.3L217.9,298.3z M217.9,290.9h3.9v4.8h-3.9V290.9L217.9,290.9z M217.9,283.4h3.9v6.1h-3.9V283.4L217.9,283.4z
		 M213.9,276h2.6v6.1h-3.9v-4.8h1.3L213.9,276L213.9,276z M212.6,312.3h3.9v6.6h-3.9V312.3L212.6,312.3z M212.6,306.2h3.9v5.3h-3.9
		V306.2L212.6,306.2z M212.6,298.3h3.9v4.8h-3.9V298.3L212.6,298.3z M212.6,290.9h3.9v4.8h-3.9V290.9L212.6,290.9z M212.6,283.4h3.9
		v6.1h-3.9V283.4L212.6,283.4z M210.4,276v1.3h1.3v5.3h-3.9v-6.1h2.6V276z M211.7,312.3v6.6h-3.9v-6.6H211.7L211.7,312.3z
		 M211.7,306.2v5.3h-3.9v-5.3H211.7L211.7,306.2z M211.7,298.3v4.8h-3.9v-4.8H211.7L211.7,298.3z M211.7,290.9v4.8h-3.9v-4.8H211.7
		L211.7,290.9z M211.7,283.4v6.1h-3.9v-6.1H211.7L211.7,283.4z M202.5,276h2.6v6.1h-3.9v-4.8h1.3L202.5,276L202.5,276z M201.2,312.3
		h3.9v6.6h-3.9V312.3L201.2,312.3z M201.2,306.2h3.9v5.3h-3.9V306.2L201.2,306.2z M201.2,298.3h3.9v4.8h-3.9V298.3L201.2,298.3z
		 M201.2,290.9h3.9v4.8h-3.9V290.9L201.2,290.9z M201.2,283.4h3.9v6.1h-3.9V283.4L201.2,283.4z M197.7,276h2.6v6.1h-3.9v-4.8h1.3
		L197.7,276L197.7,276z M196.4,312.3h3.9v6.6h-3.9V312.3L196.4,312.3z M196.4,306.2h3.9v5.3h-3.9V306.2L196.4,306.2z M196.4,298.3
		h3.9v4.8h-3.9V298.3L196.4,298.3z M196.4,290.9h3.9v4.8h-3.9V290.9L196.4,290.9z M196.4,283.4h3.9v6.1h-3.9V283.4L196.4,283.4z
		 M268.3,183.5v1.3h1.3v-1.3H268.3L268.3,183.5z M272.2,183.5v-1.3h1.3v-1.3h-4.8v1.3h1.3v1.3h1.3v1.3h2.6v-1.3H272.2L272.2,183.5z
		 M355.5,323.7h1.3c-0.4,0.4-0.4,0.9-0.9,1.3h-0.4V323.7L355.5,323.7z M354.1,325h-33.7v-1.3h33.7V325L354.1,325z M354.1,322.4h-53
		v-1.3h53V322.4L354.1,322.4z M437.4,293.5h3.9v4.8h-3.9V293.5L437.4,293.5z M437.4,313.7h3.9v4.8h-3.9V313.7L437.4,313.7z
		 M437.4,306.2h3.9v5.3h-3.9V306.2L437.4,306.2z M437.4,299.6h3.9v4.8h-3.9V299.6L437.4,299.6z M433.9,293.5h2.6v4.8h-2.6V293.5
		L433.9,293.5z M433.9,313.7h2.6v4.8h-2.6V313.7L433.9,313.7z M433.9,306.2h2.6v5.3h-2.6V306.2L433.9,306.2z M433.9,299.6h2.6v4.8
		h-2.6V299.6L433.9,299.6z M428.6,293.5h2.6v4.8h-2.6V293.5L428.6,293.5z M428.6,313.7h2.6v4.8h-2.6V313.7L428.6,313.7z
		 M428.6,306.2h2.6v5.3h-2.6V306.2L428.6,306.2z M428.6,299.6h2.6v4.8h-2.6V299.6L428.6,299.6z M423.8,293.5h3.9v4.8h-3.9V293.5
		L423.8,293.5z M423.8,313.7h3.9v4.8h-3.9V313.7L423.8,313.7z M423.8,306.2h3.9v5.3h-3.9V306.2L423.8,306.2z M423.8,299.6h3.9v4.8
		h-3.9V299.6L423.8,299.6z M418.5,293.5h3.9v4.8h-3.9V293.5L418.5,293.5z M418.5,313.7h3.9v4.8h-3.9V313.7L418.5,313.7z
		 M418.5,306.2h3.9v5.3h-3.9V306.2L418.5,306.2z M418.5,299.6h3.9v4.8h-3.9V299.6L418.5,299.6z M412.4,293.5v4.8h3.9v1.3h-3.9v4.8
		h3.9v1.3h-3.9v5.3h3.9v2.6h-3.9v4.8h3.9v1.3h-4.8v-29.4h4.8v2.6h-3.9V293.5z M405.8,293.5v4.8h3.9v1.3h-3.9v4.8h3.9v1.3h-3.9v5.3
		h3.9v2.6h-3.9v4.8h3.9v1.3h-10.1v-29.4h10.1v2.6h-3.9V293.5z M401,293.5h3.9v4.8H401V293.5L401,293.5z M401,313.7h3.9v4.8H401
		V313.7L401,313.7z M401,306.2h3.9v5.3H401V306.2L401,306.2z M401,299.6h3.9v4.8H401V299.6L401,299.6z M394.4,293.5h2.6v4.8h-2.6
		V293.5L394.4,293.5z M394.4,313.7h2.6v4.8h-2.6V313.7L394.4,313.7z M394.4,306.2h2.6v5.3h-2.6V306.2L394.4,306.2z M394.4,299.6h2.6
		v4.8h-2.6V299.6L394.4,299.6z M387,293.5h3.9v4.8H387V293.5L387,293.5z M387,313.7h3.9v4.8H387V313.7L387,313.7z M387,306.2h3.9
		v5.3H387V306.2L387,306.2z M387,299.6h3.9v4.8H387V299.6L387,299.6z M383.1,293.5h2.6v4.8h-2.6V293.5L383.1,293.5z M383.1,313.7
		h2.6v4.8h-2.6V313.7L383.1,313.7z M383.1,306.2h2.6v5.3h-2.6V306.2L383.1,306.2z M383.1,299.6h2.6v4.8h-2.6V299.6L383.1,299.6z
		 M378.2,293.5h2.6v4.8h-2.6V293.5L378.2,293.5z M378.2,313.7h2.6v4.8h-2.6V313.7L378.2,313.7z M378.2,306.2h2.6v5.3h-2.6V306.2
		L378.2,306.2z M378.2,299.6h2.6v4.8h-2.6V299.6L378.2,299.6z M373,293.5h3.9v4.8H373V293.5L373,293.5z M373,313.7h3.9v4.8H373
		V313.7L373,313.7z M373,306.2h3.9v5.3H373V306.2L373,306.2z M373,299.6h3.9v4.8H373V299.6L373,299.6z M369.5,293.5h2.6v4.8h-2.6
		V293.5L369.5,293.5z M369.5,313.7h2.6v4.8h-2.6V313.7L369.5,313.7z M369.5,306.2h2.6v5.3h-2.6V306.2L369.5,306.2z M369.5,299.6h2.6
		v4.8h-2.6V299.6L369.5,299.6z M356.8,294.8h2.6v4.8h-2.6V294.8L356.8,294.8z M356.8,308.8h2.6v5.3h-2.6V308.8L356.8,308.8z
		 M356.8,302.3h2.6v5.3h-2.6V302.3L356.8,302.3z M181.1,294.8h3.9v4.8h-3.9V294.8L181.1,294.8z M181.1,308.8h3.9v5.3h-3.9V308.8
		L181.1,308.8z M181.1,302.3h3.9v5.3h-3.9V302.3L181.1,302.3z M169.7,293.5h2.6v4.8h-2.6V293.5L169.7,293.5z M169.7,313.7h2.6v4.8
		h-2.6V313.7L169.7,313.7z M169.7,306.2h2.6v5.3h-2.6V306.2L169.7,306.2z M169.7,299.6h2.6v4.8h-2.6V299.6L169.7,299.6z
		 M164.9,293.5h3.9v4.8h-3.9V293.5L164.9,293.5z M164.9,313.7h3.9v4.8h-3.9V313.7L164.9,313.7z M164.9,306.2h3.9v5.3h-3.9V306.2
		L164.9,306.2z M164.9,299.6h3.9v4.8h-3.9V299.6L164.9,299.6z M159.6,293.5h3.9v4.8h-3.9V293.5L159.6,293.5z M159.6,313.7h3.9v4.8
		h-3.9V313.7L159.6,313.7z M159.6,306.2h3.9v5.3h-3.9V306.2L159.6,306.2z M159.6,299.6h3.9v4.8h-3.9V299.6L159.6,299.6z
		 M156.1,293.5h2.6v4.8h-2.6V293.5L156.1,293.5z M156.1,313.7h2.6v4.8h-2.6V313.7L156.1,313.7z M156.1,306.2h2.6v5.3h-2.6V306.2
		L156.1,306.2z M156.1,299.6h2.6v4.8h-2.6V299.6L156.1,299.6z M150.8,293.5h2.6v4.8h-2.6V293.5L150.8,293.5z M150.8,313.7h2.6v4.8
		h-2.6V313.7L150.8,313.7z M150.8,306.2h2.6v5.3h-2.6V306.2L150.8,306.2z M150.8,299.6h2.6v4.8h-2.6V299.6L150.8,299.6z
		 M143.4,293.5h3.5v4.8h-3.5V293.5L143.4,293.5z M143.4,313.7h3.5v4.8h-3.5V313.7L143.4,313.7z M143.4,307.5h3.5v4.8h-3.5V307.5
		L143.4,307.5z M143.4,299.6h3.5v4.8h-3.5V299.6L143.4,299.6z M137.3,293.5h3.5v4.8h-3.5V293.5L137.3,293.5z M137.3,313.7h3.5v4.8
		h-3.5V313.7L137.3,313.7z M137.3,307.5h3.5v4.8h-3.5V307.5L137.3,307.5z M137.3,299.6h3.5v4.8h-3.5V299.6L137.3,299.6z M132,293.5
		h3.9v4.8H132V293.5L132,293.5z M132,313.7h3.9v4.8H132V313.7L132,313.7z M132,306.2h3.9v6.1H132V306.2L132,306.2z M132,299.6h3.9
		v4.8H132V299.6L132,299.6z M125.9,293.5h3.9v4.8h-3.9V293.5L125.9,293.5z M125.9,313.7h3.9v4.8h-3.9V313.7L125.9,313.7z
		 M125.9,306.2h3.9v6.1h-3.9V306.2L125.9,306.2z M125.9,299.6h3.9v4.8h-3.9V299.6L125.9,299.6z M119.3,293.5h2.6v4.8h-2.6V293.5
		L119.3,293.5z M119.3,313.7h2.6v4.8h-2.6V313.7L119.3,313.7z M119.3,306.2h2.6v5.3h-2.6V306.2L119.3,306.2z M119.3,299.6h2.6v4.8
		h-2.6V299.6L119.3,299.6z M114.5,293.5h3.9v4.8h-3.9V293.5L114.5,293.5z M114.5,313.7h3.9v4.8h-3.9V313.7L114.5,313.7z
		 M114.5,306.2h3.9v5.3h-3.9V306.2L114.5,306.2z M114.5,299.6h3.9v4.8h-3.9V299.6L114.5,299.6z M109.2,293.5h3.9v4.8h-3.9V293.5
		L109.2,293.5z M109.2,313.7h3.9v4.8h-3.9V313.7L109.2,313.7z M109.2,306.2h3.9v5.3h-3.9V306.2L109.2,306.2z M109.2,299.6h3.9v4.8
		h-3.9V299.6L109.2,299.6z M105.3,293.5h2.6v4.8h-2.6V293.5L105.3,293.5z M105.3,313.7h2.6v4.8h-2.6V313.7L105.3,313.7z
		 M105.3,306.2h2.6v5.3h-2.6V306.2L105.3,306.2z M105.3,299.6h2.6v4.8h-2.6V299.6L105.3,299.6z M100.5,293.5h2.6v4.8h-2.6V293.5
		L100.5,293.5z M100.5,313.7h2.6v4.8h-2.6V313.7L100.5,313.7z M100.5,306.2h2.6v5.3h-2.6V306.2L100.5,306.2z M100.5,299.6h2.6v4.8
		h-2.6V299.6L100.5,299.6z M185,317.6h1.3v1.3H185V317.6L185,317.6z M240.7,307.5h1.3v1.3h-1.3V307.5L240.7,307.5z M270.5,122.2
		c-11.8,0-23.2,1.3-34.2,3.9l1.8,7.9l0,0l1.3,5.3c-10.5,2.6-20.6,6.1-29.8,11l-2.2-4.8l-3.5-7c-20.2,10.5-38.1,25.4-51.7,43.8
		l10.5,7.9c-6.1,8.3-11.4,17.5-15.8,27.2l-4.8-2.2l-7.4-3.1c-7.9,18-11.8,37.7-11.8,58.3c0,3.1,0,5.7,0.4,8.8l13.1-0.9
		c0,0.9,0,2.2,0.4,3.1l-15.3,5.3h-19.3L91.7,290H93v1.3h1.3V290h27.6v-1.3h28.9v1.3h30.2l-10.1-3.5h-1.3c-0.9-5.3-1.3-10.5-1.3-16.2
		c0-56.1,46-102.1,102.1-102.1s102.1,46,102.1,102.1c0,5.7-0.4,11-1.3,16.2H369l-10.5,3.5h32.4v-1.3h28v1.3h28.9l-10.1-3.5H419
		l-14-4.8c0-0.9,0-1.8,0-2.6l13.1,0.9c0-3.1,0.4-6.6,0.4-9.6c0-20.2-3.9-39-11.4-56.5l-7.4,3.1l-4.8,2.2c-3.9-10.1-9.6-19.3-15.8-28
		l10.5-7.9c-13.6-18.4-31.5-33.7-52.1-44.3l-3.5,7l0,0l-2.2,4.8c-9.6-4.8-19.7-8.8-30.7-11.4l3.1-12.7
		C293.2,123.5,281.8,122.2,270.5,122.2L270.5,122.2z M297.2,330.3v-2.6h1.3v2.6H297.2L297.2,330.3z M243.3,330.3v-2.6h1.3v2.6H243.3
		L243.3,330.3z M307.7,331.6v-1.3h-1.3V329h1.3h2.6v1.3v1.3H307.7L307.7,331.6z M231.9,330.3h-1.3V329h1.3h2.6v1.3H231.9
		L231.9,330.3z M398.4,326.4c-5.3,11.8-12.3,22.8-20.2,32.4l-7.9-6.6l0,0l-2.2-1.8c-3.5,3.9-7,7.9-11,11.8l-3.1-0.9v0.4v-1.3h-19.7
		c12.7-9.2,23.7-20.6,31.5-34.2H398.4L398.4,326.4z M360.7,325v-1.3h87.2v1.3H360.7L360.7,325z M360.7,322.4v-1.3h87.2v1.3H360.7
		L360.7,322.4z M398.4,290.9v29.4h-5.3v-29.4H398.4L398.4,290.9z M301.1,306.2v2.6h-1.3v-2.6h-12.7v-1.3h14V306.2L301.1,306.2z
		 M256.9,300.9v3.9h-1.3v-3.9H256.9L256.9,300.9z M240.7,304.9h14v1.3h-14V304.9L240.7,304.9z M252.9,258h35.5v39h-7.9v-38.1h-1.3
		V297h-18v-38.1h-1.3V297h-7.4v-39H252.9z M245.5,327.7V325h1.3v2.6H245.5L245.5,327.7z M325.2,327.7h-2.6v-1.3h2.6V327.7
		L325.2,327.7z M216.6,327.7v-1.3h2.6v1.3H216.6L216.6,327.7z M93.9,321.1h85.9v1.3H93.9V321.1L93.9,321.1z M180.2,323.7v1.3H94.3
		v-1.3H180.2L180.2,323.7z M174.9,326.4c7.9,13.6,18.8,25.4,31.5,34.2h-20.2v0.4l-2.6,0.9c-3.9-3.9-7.9-7.4-11.4-11.8l-10.1,8.3
		c-7.9-9.6-14.5-20.6-19.7-32H174.9L174.9,326.4z M240.7,354v-12.7H238v-2.6l4.4-3.5h1.8v19.3h3.9v3.9h-11.4v-3.9h3.9V354z
		 M266.9,345.6c0,3.5-0.4,6.1-1.8,8.3c-0.9,1.8-3.5,4.4-8.3,3.5v-3.1c4.8,0.4,6.6-2.2,7-6.1c-1.8,2.6-4.8,2.2-7,0
		c-1.3-1.3-1.8-3.5-1.8-6.1c0-3.9,1.8-7.4,5.3-7.4C266.9,335.1,266.9,341.3,266.9,345.6L266.9,345.6z M263.4,343
		c0,5.3-5.3,6.1-5.3-0.4c0-1.8,0.4-4.4,2.2-4.4C263,337.8,263.4,340.8,263.4,343L263.4,343z M285.4,357.9h-10.5v-4.4
		c0-4.4,7.4-7.4,7.4-12.3c0-1.3-0.4-3.5-2.6-3.5c-2.2,0-2.6,3.1-2.6,4.8H274c0-2.6,0.4-4.4,1.8-5.7c0.9-1.3,2.6-2.2,4.4-2.2
		s3.5,0.4,4.4,1.8c0.9,1.3,1.3,2.6,1.3,4.8c0,1.8-0.9,3.9-1.8,4.8c-3.9,4.8-5.3,4.4-5.3,7.9h7v3.9H285.4z M304.2,346.1
		c0,3.1-0.4,5.7-1.8,7.9c-0.9,2.2-2.6,3.5-5.3,3.5c-2.2,0-3.9-1.3-5.3-3.5c-0.9-2.2-1.8-4.8-1.8-7.9c0-3.1,0.4-5.7,1.8-7.9
		c0.9-2.2,2.6-3.1,5.3-3.1c2.2,0,3.9,0.9,5.3,3.1C303.8,340.4,304.2,343,304.2,346.1L304.2,346.1z M300.7,346.1
		c0,2.2-0.4,8.8-3.1,8.8c-2.6,0-3.1-6.6-3.1-8.8s0.4-8.8,3.1-8.8C300.7,337.3,300.7,343.9,300.7,346.1L300.7,346.1z M396.2,283
		l-8.8,3.1H380c0.9-5.3,1.3-10.5,1.3-16.2c0-60.9-49.9-110.8-110.8-110.8c-60.9,0-110.8,49.9-110.8,110.8c0,5.7,0.4,11,1.3,16.2
		h-8.8l-7.4-2.6c-0.4-4.4-0.9-9.2-0.9-13.6c0-0.4,0-0.9,0-1.3h-3.1l0,0h-10.1c0-15.8,3.1-30.7,7.9-44.7l9.6,3.5l0,0l3.1,0.9
		c5.3-14.9,13.1-28,23.2-39.9l-2.2-1.8l0,0l-7.9-6.6c10.1-11.8,21.9-21.9,35.5-29.8l5.3,8.8l0,0l1.8,2.6
		c13.1-7.9,27.6-13.1,43.4-15.8l-0.4-3.1l0,0l-1.8-10.1c7.4-1.3,14.9-1.8,22.8-1.8s15.8,0.9,23.7,1.8l-0.9,5.3l0,0l-1.3,7.9
		c15.3,2.6,30.2,8.3,42.9,15.8l1.8-2.6l0,0l5.3-8.8c14,8.3,26.3,18.8,36.4,31.1l-7.9,6.6l0,0l-2.2,1.8c9.6,11.8,17.1,25,22.3,39.4
		l3.1-0.9l0,0l9.6-3.1c4.8,14,7.4,29.4,7.4,45.1c0,0.4,0,0.9,0,0.9H401l0,0H398C397.1,275.1,396.6,279,396.2,283L396.2,283z
		 M207.8,373.2h8.8v7.4h12.7v-7.4h8.8v20.2h-8.8v-8.8h-12.7v8.8h-8.8V373.2L207.8,373.2z M303.8,373.2h7.4h8.8h7.4v5.3H320v14.9
		h-8.8v-15.3h-7.4V373.2L303.8,373.2z M266.9,373.2h8.8v20.2h-8.8V373.2L266.9,373.2z M236.3,424.1l5.3-11.8h-89.4l15.8-41.2
		l5.7-2.2l-14.5,38.6l-0.4,0.9h88.5l-4.4,10.1l-0.4,0.9h54.8l-0.4-0.9l-4.4-10.1h88.1l-0.4-0.9l-14-38.6l4.8,1.3l15.8,42.1h-87.2
		l4.8,11.8H236.3L236.3,424.1z M353.3,364L366,400h-87.2l0.4,0.9l3.9,8.8h-26.3l3.9-8.8l0.4-0.9h-87.6l13.1-35.9h71.4L270,368
		l11.8-3.9H353.3L353.3,364z M354.1,362.7l9.6,2.6l14.9,41.6h-88.5l0.4,0.9l4.4,10.1h-50.8l4.4-10.1l0.4-0.9h-88.5l15.3-41.2
		l10.1-3.1l-14,37.7l-0.4,0.9h87.6l-3.9,8.8l-0.4,0.9h30.2l-0.4-0.9l-3.9-8.8h87.2l-0.4-0.9L354.1,362.7z"/>
	<g>
		<path class="st0" d="M512.3,209.8c0,0,6.6,0.4,11-3.5s9.6-9.2,13.6-4.4c4.4,4.4,4.8,6.1,7.9,8.3c3.1,2.2,0,11.8-6.1,14.5
			c-6.1,2.6-10.1,5.3-5.3,11c4.4,5.7,4.4,8.8-1.3,8.8c-5.3,0-23.7-2.6-25.4,3.9c-1.3,6.6-3.5,10.5-9.2,11.4
			c-3.1,0.4-10.1-7.4-7-16.2c3.1-9.2,0.4-18.8-1.8-28c-1.3-5.3,1.8-4.4,7-2.6c5.3,1.8,10.5,7.9,11.4,11.8c0.9,3.9,0.9,8.3,0.4,12.7
			c0,1.8,1.3,1.3,3.1,0c7-5.7,8.3-8.3,10.5-16.6c0.9-3.1-0.4-2.6-5.3-3.1c-4.8-0.4-6.6-4.4-6.6-4.4
			C509.7,209.4,510.1,209.4,512.3,209.8z"/>
		<path class="st0" d="M576.3,170.8c2.6,2.6,7.4,8.3,10.1,11.4c3.5,4.4,1.8,11.4-2.2,14.9c-2.2,2.2-5.3,7.4-9.2,14.5
			c3.5,7,9.6,18.8,14.5,21.9c7,4.8,20.2,9.2,25.9,6.6c0,0-6.1,14.5-19.3,14.5s-14.5-11.4-15.8-15.3c-0.9-3.5-3.5-14-9.2-20.6
			c-1.8,3.1-3.5,6.6-5.3,9.6c-2.6,4.4-5.7,10.1-10.1,16.6c2.6,0,3.1,1.8,6.6,0.9c7-2.2,7.9-2.6,11-3.1c3.1-0.9,4.8,5.3,4.8,7.4
			c-1.8,0-5.7,1.8-9.2,2.6c-3.5,0.9-5.3,3.5-9.6,3.9c-3.9,0.4-6.1-3.5-7.4-6.6c-3.9,5.7-8.8,11.8-14,17.5c3.1,1.3,8.8,3.5,10.5,7.4
			c0.9-1.8,3.1-4.4,6.1-4.4c3.9-0.4,11-1.3,14-3.5c3.1-2.6,5.3-5.7,10.1-5.3c4.8,0.4,3.1,9.2,1.8,12.3c-1.3,3.1-7.4,7.4-7.4,14
			c0,0,5.7-3.1,7.4-0.9c1.8,2.6,0.4,8.8-7.9,10.5c-8.3,1.8-17.5,1.8-17.5,1.8s-2.2-5.3,3.1-6.6c5.3-1.3,6.1-4.4,6.1-4.4
			s2.2-13.1-0.9-12.3c-2.6,0.4-11,0-14,0c0,0.4,0.4,0.9,0.4,1.3c0.4,7,3.1,18.8-1.3,22.3c-4.8,3.5-3.5-3.5-8.3-3.9
			c-4.8-0.4-0.9-11-0.9-14.5c0-2.6-2.6-7.4-3.9-10.5c-5.7,5.7-11.8,11-18.4,14.9c-22.3,13.1-29.4,9.2-37.7,4.4
			c0,0,11.8-2.2,24.5-9.6c12.7-7.4,32-24.1,43.4-41.6c11-17.5,22.8-44.7,23.7-52.6c0.9-4.8,2.6-8.3,2.6-14
			C572.8,168.6,574.5,169.1,576.3,170.8z"/>
		<path class="st0" d="M666.1,192.7c19.7-12.3,30.7-18,37.7-22.3c3.5-2.2,11-6.1,17.5-5.7c3.5,0.4,8.3-0.4,8.3,5.3
			c0,3.9-3.1,5.7-7.4,6.6c-4.4,0.9-11,3.9-13.6,8.8c0,0-2.6-4.8-0.9-8.8c0,0-6.6,0.4-22.3,11.8c-3.5,2.2-7.4,4.8-10.1,7
			c3.5,0.9,8.8,3.1,9.6,5.3c0.9,1.3,1.3,2.2,1.8,3.5c0.9-0.4,3.5-2.2,3.5-3.1c0-1.8-3.1-1.3-4.4-4.8c-0.9-2.2,1.8-6.1,4.4-5.7
			c0,0,18.4-0.9,21.9,6.1c2.6,5.3,1.3,9.2-0.4,11.8c1.8,0.4,4.4,1.8,5.3,3.9c1.3,3.1,3.9,4.4,3.5,8.8c-0.4,4.8-6.1,6.6-6.1,11
			c0,4.4,0.9,21.9,0.9,38.1s1.3,16.2,0.9,23.2c-0.4,7-2.2,10.5-4.8,11c-2.6,0.4-5.7-1.8-5.7-1.8c-9.2-2.2-7.9-10.5-10.1-14.5
			c-2.6-4.4-6.1-8.3-6.1-8.3c11.4,10.1,14.9,5.3,14.9,5.3c0.4-11.8,0.4-21.9,0.9-30.2c-2.6-0.9-8.8-2.6-12.3-4.4
			c-3.9,3.5-10.1,4.4-11.4,4.8c0,7.4,0,14.5,0,18.4c1.8-1.3,5.3-3.5,7.9-6.6c-3.1-3.5-6.6-7-6.6-7s5.7,0.9,10.1,2.6
			c0.9-1.3,1.3-2.6,1.8-4.4c0-0.4,0.9-1.3,2.2-0.4l4.8,3.1c0.9,0.4,0.9,0.9,0.4,2.2c-0.4,1.3-1.3,3.1-3.1,4.8
			c1.8,3.1,3.1,6.6,3.5,11c0,0-6.1-3.1-8.8-6.6c-3.1,1.8-7,2.6-12.3,3.1c0.9,9.6,0.4,14.5,0.4,16.6c-0.4,2.6-1.8,3.1-5.3,4.4
			c-3.5,1.3-2.2-2.2-5.3-5.3c-1.3-1.3-1.3-3.5-0.9-7c-1.8-2.6-4.4-5.3-7-7.4c-2.6,3.5-5.7,7-8.8,10.1c0,0,0,0,0,0.4
			c0,3.1-0.9,7.9-5.3,8.8c-4.8,1.3-8.3-0.4-9.6-7.9c-1.3-7.4,0-16.6,2.6-18.4c3.9-3.1,3.1-13.1,3.1-13.1s3.9,2.2,6.6,7.4l1.8,0.4
			c0.9-1.3,0.9-1.8,2.2-3.5l-4.4-6.1c-0.9-1.3-0.4-2.2,1.3-1.8c1.3,0.4,4.8,1.8,7.9,3.1c0.9-1.8,1.3-2.6,1.3-3.9
			c0-0.9,0-1.3-0.4-1.8c-5.7-3.5-7.9-3.5-10.1-3.9c-3.1-0.4-2.6-0.4-3.9-2.6c-0.9-1.3,7.4-2.2,15.3-5.3c1.3-0.4,2.6-0.9,3.5-1.3
			c2.2-0.9,6.1-4.4,5.7-7c-0.4-8.8,0-15.8,0-19.3c0.4-6.6-0.9-9.6-2.6-11.4c-4.4,3.1-8.8,5.7-12.7,7.9c2.6,1.8,6.6,5.3,7.9,7.4
			c2.2,3.5,0,8.8-2.2,11.4c-2.2,3.1-12.7,8.8-21,12.7c0,0-5.3-2.2-5.7-4.8c-0.4-2.2,3.5-5.3,7.9-7.9c2.6-1.8,11.4-14.9,9.2-17.1
			c-0.9,0-1.3,0.9-2.2,0.9c0,0-2.6,8.8-10.1,9.2c-7.4,0.9-9.2-1.8-14.9-6.1c-5.7-4.4-3.1-8.3,0.9-8.3c9.2,0,16.2-1.8,24.5-4.8
			C656,198.9,661.3,195.8,666.1,192.7L666.1,192.7z M704.7,253.6c0-17.1,0-25-0.4-28.9c0-0.4-2.2-2.2-2.6-2.2c-5.7,4.8-5.3,4.8-7,7
			c0.9,0.9,2.2,2.2,4.4,3.1c3.1,1.3,3.1,3.5,2.2,4.8c-0.9,1.3-2.2,1.3-3.1,3.9c-0.4,0.9-1.3,2.2-1.8,3.1
			C699.4,246.2,702.5,250.1,704.7,253.6L704.7,253.6z M691.5,233.9c-3.1,1.3-7,2.6-10.1,3.9c0,0.4,0,0.9,0,1.3
			c2.6,0.4,6.6,1.3,9.6,2.2c0.9,0.4,2.2,1.3,2.2,0c0-3.1-0.4-5.7-0.4-6.6C692.4,233.9,691.9,233.9,691.5,233.9L691.5,233.9z
			 M681,242.2c0,3.9-0.4,7.4-0.4,11.4c1.3-0.9,3.1-2.2,5.3-3.9c0.9-0.4,1.3-2.6,0-3.1C684.1,245.3,682.3,243.6,681,242.2L681,242.2z
			 M671.4,277.3c0.4-3.1,0.9-6.6,1.3-11c-1.3,0.4-2.6,1.3-3.1,1.8c-0.9,0.9-1.8,2.6-3.5,5.3C667.8,274.7,669.6,276,671.4,277.3
			L671.4,277.3z M672.7,262.8c0-1.3,0-2.2,0-3.5c0-5.7,0-11,0-16.6c-7.4,3.5-11.8,4.4-11.8,4.4c0.9,0.9,0.9,1.8,0.9,2.6
			c2.2,0.4,7.4,2.2,8.8,3.9c1.8,2.2-0.9,2.2-1.8,2.6c-0.4,0-0.4,1.8-2.6,3.1C667.4,259.8,670.5,261.5,672.7,262.8L672.7,262.8z
			 M654.3,283.9c1.3-3.5,2.6-7,4.4-10.5c-2.2-1.8-4.4-3.5-5.7-4.4C653.8,274.7,654.3,280.4,654.3,283.9L654.3,283.9z M660,270.7
			c0.9-1.3,1.8-2.6,2.6-3.9c-4.4,0-6.6,0.4-9.6,1.8l0,0C655.1,269,657.8,269.8,660,270.7L660,270.7z M706.4,208.5
			c-1.3,0-3.1,0.4-3.9-0.9c-0.9-0.9-7.9-4.4-15.3-3.1c0.4,1.8,1.8,3.1,1.3,5.7c-0.4,2.6-0.4,5.3-2.2,6.6c-1.3,0.9-2.6,1.8-2.6,2.6
			s0,3.9,0,10.1c7.9-5.3,15.3-12.7,17.1-15.8C701.6,211.6,705.1,209.4,706.4,208.5z"/>
		<path class="st0" d="M759,193.2c0,5.3,1.3,7,3.5,10.1c0.9,1.3,2.6,4.8,2.6,6.6c0,2.6,0.9,3.9-0.9,7.4c-2.2,5.3-2.6,6.6-4.8,12.3
			c-2.2,5.7-1.8,14.5,0,23.7c1.3,9.2-0.9,12.7-4.8,21.9c-3.9,9.2-3.1,14,0,19.3c3.1,5.3,4.4,5.7,5.7,7.9c1.3,2.2,5.7,3.5,7.4-3.9
			c1.8-7.4,1.3-14,0-21.9c-0.9-6.1,2.6-8.8,4.8-12.3c0.9,2.2,3.1,4.8,7,5.3c5.3,0.9,10.5-7.4,16.2-16.2c0,0,0,0,0-0.4
			c0,0.9,0.4,2.2,1.8,3.5c-4.8,5.7-4.4,25.4-3.9,27.2c0,1.8,2.2,2.6,4.8,3.5c1.8,0.4,2.6,3.1,3.1,3.9c-0.9,0.9-2.2,1.8-2.6,1.8
			c-2.2,0.4-4.8,2.2-5.3,3.9c-0.9,1.8,1.8,4.4,1.8,4.4s3.5,4.4,9.2-2.2c2.6-3.1,7-9.2,8.8-11.4c0.4-0.4,0.4-0.9,0.9-1.3
			c2.2,1.3,6.6,4.4,9.2,7s8.3,14,14.9,14c11.8-0.9,12.3-14.9,0.9-19.3c-1.3-0.4-3.9-0.9-7.4-1.3c0-1.3-0.4-2.6-0.4-3.9
			c-0.9-5.7-0.9-4.4-0.9-15.8c0-13.1,0.9-19.7,3.1-24.5c0.9-1.8,1.8-3.9-1.3-6.6c-5.7-4.8-8.8-0.9-10.1,0c-0.9,0.9-1.3,2.6-6.1,3.9
			c-3.1,0.9-4.8-0.4-5.7-1.8c2.2-2.2,4.8-4.8,7.4-7.4c8.3-9.6,11.8-8.8,14.5-8.8c3.1,0,4.8-0.9,4.4-7c-0.4-6.1-2.6-11-5.3-11.8
			c-2.2-0.9-3.1,2.2-3.1,5.7s-6.1,10.1-12.7,16.6c-0.4,0.4-0.4,0.4-0.9,0.9c0-1.8-0.4-6.1-0.4-7.4c0-2.6-0.9-2.6-1.8-3.1
			c1.8-0.4,3.5-1.3,4.4-1.8c3.9-1.8,5.7-5.3,5.3-7.9c-0.4-2.6-1.8-3.5-3.5-1.3c-1.8,2.2-10.5,7-15.8,8.3c-3.9,0.9-8.3-0.4-10.1-0.9
			c0-4.8-1.3-10.1-5.3-9.6c-2.6,0-2.2,5.3-2.6,8.3c-0.9,3.1-3.1,3.5-3.5,5.7c-0.9,1.8-0.4,5.7,1.3,6.6c1.8,1.3,4.8,1.8,7,0.4
			c1.8-1.3,2.6-3.5,3.1-7c0.9,0.9,1.8,2.2,4.8,2.6c2.2,0,5.3,0,8.8-0.9c-2.6,0.9-1.8,5.7-1.3,8.8c0.4,7.4,0,7.9-4.4,12.7
			c-5.7,6.6-12.3,13.1-16.6,17.1c-8.3,6.1-9.6,4.4-8.8,1.3c0.9-5.3,2.2-11,4.8-14.5c3.5-4.4,1.8-5.7,0.9-6.6c-0.9-0.9-4.8,0-6.1,8.8
			c-1.3,9.2-2.6,10.1-5.3,14.9c-2.6,4.8-4.8,11.4-6.6,13.1c-1.3,1.3-1.3,0-0.4-1.8c0.9-1.3,1.3-4.4,1.3-7c0-2.6,0.4-7.4,1.8-12.3
			c1.8-4.8,2.6-6.1,2.6-10.5c0-4.4-2.2-3.5-3.5-6.6c-1.3-3.1-0.9-6.6,0.9-11.8c1.8-5.3,4.8-9.2,7.9-10.5c3.1-1.3,3.5-5.3,3.5-9.2
			c0-3.5-3.9-9.2-9.6-12.3C761.2,186.6,759,187.9,759,193.2L759,193.2z M804.1,267.2c-2.2,0.4,3.1,5.3,3.5,5.3
			c0,3.9-0.4,4.8-0.4,8.8c-1.3-0.9-3.1-1.8-4.8-1.8c-0.4-7.9,0-14.5,0-15.3c0-2.2-0.9-4.4,2.2-4.4c0.9,0,2.2,0,2.6,0.9
			s0.4,3.1,0.4,5.3C806.3,266.3,805,266.8,804.1,267.2L804.1,267.2z M813.3,268.1c0.4-2.2,0.9-3.5,1.3-4.4c2.6-2.6,1.3-3.9,1.3-7.4
			c0-2.2-0.9-2.6-3.1-3.1c-1.3-0.4-2.6,0.4-3.5,0.9c-0.9,0.4-1.8,1.8-3.1,2.2c-1.8,0.4-3.9-0.9-4.4-0.9c-0.4-0.4-2.2-1.8-3.5-0.9
			c0-2.6,0.4-5.3,4.4-7.9c1.8-0.9,2.6-1.3,3.5-1.8c0.9,0.4,3.9,1.8,5.7,2.2c2.2,0,4.8-3.9,5.7-3.9c1.3,0,6.6-3.1,4.4,0.9
			c-2.2,3.9-1.3,28.5-0.9,32c2.2,2.6,3.5,2.6,4.4,6.1c0.4,1.3,0.4,3.1,0,3.9c-4.4-0.4-8.8-0.4-11-0.9c0.4-1.3,2.2-2.6,1.3-3.9
			c0-0.4-1.3-1.3-3.1-2.2c0-0.4-0.4-2.2-0.4-5.7c1.8,0.9,6.6,2.6,7,1.8c0,0-0.9-0.9-0.9-1.8C817.7,272.5,815.5,269.8,813.3,268.1
			L813.3,268.1z M802.8,280.8c1.3,0.4,3.5,3.1,4.8,4.4c-1.3,1.3-2.6,3.1-3.9,4.4C803.2,287.8,802.8,283.4,802.8,280.8L802.8,280.8z
			 M794.5,228.7c1.8-2.2,3.5-2.6,4.4-1.8c0.9,0.9,0.4,6.1-1.3,8.8c-1.8,2.6-6.6,3.1-8.8,2.2c-2.6-0.9-4.4-3.1-3.9-4.8
			c0-1.8,1.8-3.1,3.1-2.6C789.7,230.4,792.7,230.8,794.5,228.7L794.5,228.7z M819.9,188.3c11.4-9.2,14.5-11.4,16.6-13.6
			c0,0,8.3-1.3,12.3,0c3.9,1.8,3.9,4.4,4.4,8.3c0.4,4.4-1.3,6.6-4.8,7c-3.9,0.4-8.8-2.6-16.2,2.6c0,0,2.2-5.3,4.8-6.6
			c0,0,1.3-1.3,0.9-3.9c0,0-7,0.4-21,12.7c-14.5,12.3-16.6,9.6-22.3,4.4c-6.6-5.7,4.8-3.1,7.4-3.1
			C808.5,195.4,812.9,194,819.9,188.3L819.9,188.3z M811.6,160.7c-5.3-0.4-1.3,2.2-3.9,3.9c-1.3,0.9-0.9,3.5-0.4,5.3
			c0.9,1.3,6.6,0.9,6.6,0.9c-1.8,2.2,0,9.6,0,9.6c1.3-2.2,3.5-5.7,8.3-7.9s8.8-1.3,10.5-2.6c1.8-1.8,0-4.8-2.6-7.4
			c-2.6-3.1-6.1-3.1-9.2-1.8C818.1,161.6,811.6,160.7,811.6,160.7z"/>
		<path class="st0" d="M913.2,213.3c4.8-0.9,14.5-2.2,20.2-7c5.3-4.8,8.3-6.6,8.3-6.6s7.4-1.8,12.7,4.4c5.3,6.1,4.4,10.5,3.9,12.3
			c-0.4,1.3-5.7,3.1-10.1,7.9c-4.4,4.4-14.5,11.8-18.4,17.5c-3.9,5.7-2.2,7,0.9,6.1c2.6-0.9,9.6-2.6,11-3.5v-1.8
			c0-0.4,2.6-2.6,7.4-0.9s7.4,4.4,6.6,7.4c-0.9,3.5-1.3,5.3-6.1,4.8s-13.1-2.2-24.5,6.1c-11.4,8.3-14,12.3-19.3,18.4
			c-5.3,6.1-10.1,5.7-17.1,5.3c-7-0.4-13.1-4.4-14.9-6.1c-1.8-1.8-2.2-7-2.6-8.8c0-1.8,0.9-3.1,4.4-3.1s12.7,0.9,19.3-0.9
			c7-1.8,13.1-9.6,22.8-19.7c9.6-10.1,14-19.3,15.3-22.3c1.3-3.1-0.9-5.3-0.9-5.3s-6.1,1.3-9.6,5.7c-3.5,4.4-5.3,7.9-13.1,7.4
			c-7.9-0.4-10.5-4.4-12.7-8.8c-2.2-3.9-2.2-7.4,0-8.8C902.7,209.8,908.4,214.2,913.2,213.3z"/>
		<path class="st0" d="M1037.6,164.7c0,0,0.4,4.8,0,11.4c0,2.2,0,4.4,0,9.2c0,3.1-1.3,6.6-2.2,7c-2.2,1.8-3.9,2.6-5.7,3.5
			c-3.1,1.3-4.4,1.3-4.8-0.9c-0.4-1.8-2.6-3.9-3.9-4.4c-1.3-0.9-2.2-0.9-3.1,0c-1.8,1.8-3.1,8.8-1.8,15.3c1.3,6.6,8.8,3.9,14-2.6
			c3.1-3.5,5.7-7,7.9-9.2c-0.4,1.3-0.4,3.5-0.4,4.4c0.4,4.8,1.8,4.4,2.6,10.5c-5.3,3.5-11,7.4-20.2,14c-12.3,8.3-14.9,7-21.9,7.4
			c-1.8,0-5.7-0.4-7.9,0c-4.4,0.9,0.4,10.5,2.6,12.3c3.5,2.6,6.1,6.1,15.3,3.5c9.2-3.1,10.1-11.8,10.1-11.8s3.5-2.2,8.8-6.1
			c2.2-1.8,4.4-3.9,7-6.1c-0.4,1.8-1.3,4.4-1.3,5.3c0,2.2,1.8,3.9,5.3,3.9c3.5,0,10.1-4.4,12.7-8.8c6.6-12.7-3.5-2.6-7.9-1.3
			c-3.9,0.9-4.8-0.9-4.8-2.2c5.3-4.4,11.4-8.8,15.8-12.3c9.2-7,18.8-9.6,23.2-10.1c4.8-0.4,17.5,0,20.6,1.3
			c3.1,0.9,9.2,0.9,10.1-0.9c0.9-1.8,0.9-3.1,0.9-6.6s-1.3-7-7.9-6.6c-6.6,0.4-8.3,3.1-11.4,4.8s-5.3,3.5-10.1,3.5
			c-1.3,0-3.1,0.4-4.8,0.9c0-1.8,0-3.5-0.4-4.4c-0.4-1.8,2.6-5.3,4.8-5.7c2.2-0.4,4.4,1.8,7,0c2.6-1.8,4.4-3.5,3.9-8.3
			c-0.4-7-3.5-11-9.2-11c-5.7,0-8.3,0.9-12.3,5.7c-3.9,4.8-8.3,10.5-10.1,12.7c-1.3,1.8-1.8,2.2-3.1,2.2c-2.2-1.3-4.8-2.6-6.1-3.1
			c1.8-4.4,3.9-8.3,3.9-12.7c0-4.8-2.2-8.3-7-9.6c-4.4-1.3-7-2.2-8.3,0C1036.3,159.9,1037.6,164.7,1037.6,164.7L1037.6,164.7z
			 M1065.2,263.3c0.9,0.4,2.6,1.3,4.8,1.3c7.9,0.4,10.5,1.8,13.6,3.9s6.1,4.8,5.7,14c-0.4,7-3.9,7.4-6.6,7.9
			c-2.6,0.4-9.6,0-10.5-4.4c-0.4-3.9-0.4-7.9,0-10.1c0.4-2.2,0.9-3.1,2.6-3.1c0,0-7-3.5-10.5-8.8l-0.4,0.4c-3.9,2.2-3.9,4.8-3.5,6.1
			c2.6,7.4,0.9,15.8,0.4,23.2c-0.4,3.5-7.9,7.9-11,7.9s-5.7-3.1-6.6-7.4c-0.4-4.4-3.1-7.9-3.1-7.9c6.1,0,7.9,2.6,7.9,0.4
			c0-1.8,0-11,0-14c0-3.1-3.1-3.1-4.8-3.1s-1.8,0.9-1.8,1.8c0,0.9-0.4,4.4-2.2,10.1c-1.3,5.7-7.9,14.9-11,17.5
			c-3.1,2.2-12.3,3.9-15.3,0c-3.1-3.9-4.4-11.4-0.4-13.1s6.6,1.3,12.7,0.9c6.1-0.9,11.8-8.8,12.3-11.4c0.4-2.6-3.1-1.3-5.7-1.3
			s-2.2-3.1-2.2-6.6c0-3.9,4.4-2.6,6.1-2.6c1.8,0,4.4,0,7-1.3c2.6-1.3,3.5-3.1,3.1-4.8c0-1.8-2.6-1.3-5.7-1.3
			c-3.1,0-3.9-0.4-3.5-2.6c0.4-2.2,5.3-1.8,7-1.8c1.8,0,2.2-1.3,2.2-2.6c0-1.8,0.4-5.7,0.4-5.7c-3.5,4.8-5.7,3.5-10.1,3.5
			s-9.2-3.1-4.8-4.4c4.4-1.3,10.1-5.3,19.7-14.5c8.3-8.3,5.3-21.9,4.8-21.9c4.8,2.6,8.3,1.8,11.8,1.3c6.1-0.4,8.3,1.3,7.9,5.7
			c-0.4,4.8-3.1,7.4-7.4,7l-5.3-0.4c-3.1,6.6-10.1,11.8-10.1,11.8l6.1-1.3c1.3-0.4,1.3-1.3,2.2-2.2c0.9-0.4,2.6-0.4,3.9-0.4
			c2.2,0,2.6,1.8,2.6,3.9c0,1.3,0,2.6-0.9,3.5c-1.8,2.2-7.9,3.1-10.5,3.1c-2.6,0-1.8,4.8-1.3,5.3c0.4,0.4,6.6,0,8.3-0.4
			c1.8-0.9,3.5,0.9,3.5,2.6s-1.3,3.1-3.1,3.9c-1.8,0.4-6.6,2.6-6.6,3.1c0,0.9,0,4.8,1.3,3.9c3.9-1.3,7.9-1.3,9.2-0.4
			C1070.9,257.6,1068.7,260.6,1065.2,263.3L1065.2,263.3z M1044.2,205.4c0.4-3.1,1.3-7,1.3-10.5c0-6.1,0.9-8.8,2.6-14
			c1.3,2.2,4.8,7,9.2,9.6c1.3,0.9,2.6,1.3,3.5,2.2c-0.9,0.4-2.2,1.3-2.6,3.9c0,0.4,0,0.4,0,0.9c-2.2,0.9-3.9,2.2-6.1,3.5
			C1049,202.4,1046.8,204.1,1044.2,205.4L1044.2,205.4z M1063.9,191.4c-1.3-1.3-2.2-2.2-3.1-3.5c-0.9-0.9,0.4-2.6,1.8-3.5
			c2.2-1.3,2.2-3.1,4.8-5.3c3.9-3.1,3.1-5.3,3.9-5.7c1.3-0.9,3.1,3.1,3.1,3.9c0,0-2.2,0-2.6,0.4c-0.4,0.4-0.4,4.8-3.9,8.8
			C1064.8,190.5,1064.4,191.4,1063.9,191.4z"/>
		<path class="st0" d="M1185.3,193.2c-1.3,4.8-3.5,19.3-5.3,30.2c0.4,0,0.9-0.4,1.3-0.4c16.6-6.6,20.6-9.2,22.8-10.5
			c1.8-0.9,2.6-5.7,4.4-11.8c6.6,7.9,14.9,5.7,14,11c0,5.3-0.4,7.9-6.1,9.6c-5.3,1.8-6.6,0-13.1,1.3c-3.1,0.9-14,5.3-25,10.1
			c-0.4,2.6-0.9,5.7-1.3,8.8c3.9,0.4,10.1,1.8,14.5,6.6c6.6,7.4,12.7,18.4,22.8,18c9.6-0.4,14-2.6,14-2.6s3.9-0.4,3.5,3.5
			c-0.4,3.5-7.9,15.8-19.7,15.8c-11.8,0.4-16.2-10.5-19.7-18c-3.1-7-6.1-17.1-16.2-19.7c-2.2,12.3-7,27.2-18,35.1
			c-16.6,12.3-24.5,11-32,3.9c-7.9-7,3.9-4.8,9.2-5.7c5.3-0.9,28-4.4,33.3-41.2c-7.9,3.9-15.3,7.4-18,10.1
			c-7.9,6.6-11.8,14.5-20.2,14.9c-8.3,0.4-7.9-6.1-7.9-9.6c0-3.5,3.9-7,6.1-9.6c2.2-2.6,9.6-0.9,16.2-2.2c4.8-0.9,13.1-7,24.5-12.7
			c3.5-35.5,1.3-60,1.3-60s-2.2-11,2.2-11.4c4.4-0.4,9.6,1.8,12.3,7.4C1190.1,172.6,1187.5,184.4,1185.3,193.2z"/>
		<path class="st0" d="M1271.2,180.9c0.9,2.6,4.4,3.1,4.4,7c0,4.4,0.9,10.5,0,12.7c-0.9,1.8-4.8,3.1-4.8,7s0.9,4.8,0.9,4.8
			s0.9,1.8,0.4,3.1c-0.4,1.3,7.4,0.9,9.2-2.2s3.1-7,7-11c4.4-3.9,5.3-7.9,5.3-10.5c0,0,6.1-2.2,7.9-0.4c1.8,1.8,0.9,4.4,0.4,5.7
			s-5.3,4.4-5.7,5.7s1.3,3.5,2.6,4.8c1.8,1.3,5.7,1.3,7,0c0.9-1.3,1.3-3.9,3.5-4.4c2.2,0,7.4-0.4,10.1,5.3c0,0,0,3.1-5.3,4.8
			c-5.3,1.8-17.1,3.9-22.3,3.9c-5.3,0-5.7,1.8-4.4,5.7c1.3,3.9,7.9,7.4,12.7,7c4.8-0.4,4.4-3.5,12.3-7.9c7.9-4.8,11.4-5.3,11.4-5.3
			s5.3,1.8,8.3,0.4c3.1-1.3,3.5-5.7,5.7-8.3c0,0,3.9-0.9,8.8-0.4c4.8,0.9-0.9,7.9-3.1,8.8c-2.2,1.3-14,11-31.1,14
			c0,0-4.4-0.9-4.4,1.8c0,2.2,2.6,5.3,4.8,5.3s4.8,0.4,7,0c2.2-0.9,1.8,4.8-3.1,7.9c-4.8,2.6-4.8,6.6-0.9,10.1c0,0-9.6,1.3-14.5,2.6
			c-4.8,1.3-9.6,4.4-18.4,3.5c-8.8-0.9-5.3,3.9-4.8,5.3c0.4,1.3,4.8,7.4,10.5,7.4c5.7,0,7.9-1.3,10.1-4.4c2.2-2.2,6.6-7,14.5-7.4
			c2.6,0,3.1,0.9,3.1,2.6l0.4,15.3c0,0,1.3,5.7-2.2,5.3c-3.5,0-11.8,0-15.3-0.4c0,0,14,11,15.8,16.2c1.8,5.3,7.4,3.9,8.3,1.3
			c0.9-2.6,4.8-8.3,6.6-9.2c1.8-0.4,0-34.2,0-34.2s11-1.8,14.5,0c3.5,1.8,7,1.3,8.3-0.9c1.8-2.2,1.8-3.9,1.8-6.6
			c0-2.6,0.9-4.8-3.5-5.7c-4.4-0.9-6.6,1.8-11,3.5c-3.9,1.3-9.6,1.3-12.7,1.8c0,0,0.4-6.6,3.1-8.8c2.6-2.2,7.9-2.6,7.9-6.1
			c0-3.9-1.8-9.2,0-11.4c0,0,12.7-4.8,16.6-10.1c3.9-4.8,8.3-10.1,11.8-12.3s-0.4-7.4-4.4-7.9c-4.4-0.4-8.3-1.8-11.8,3.1
			c-3.5,4.8-3.5,3.9-8.3,5.3c0,0-1.8-5.7,2.2-10.5c3.9-4.8,9.2-11.8,11-16.6c2.2-4.8,5.3-7,7.9-9.2s9.2-8.8,8.8-11.8
			c-0.4-3.1-5.7-3.9-11-3.5c-4.8,0.4-11.4,3.9-13.6,8.3c-2.2,3.9-5.7,3.1-11,7.4c-1.3,0-2.6,0.4-3.5,1.8c-0.9,1.3-0.9,3.5-0.9,5.7
			c-3.1,0-7.4-0.9-7-7.4c7.4-6.6,14.5-11.8,16.2-12.7c3.9-1.8,3.9-2.6,3.9-8.3c0-5.3-3.5-12.3-3.5-12.3s-2.2-3.1-5.3-3.1
			c-3.1,0.4-3.5,7-3.5,10.5c0,3.1-0.9,9.6-8.8,18.4c-3.1,3.5-6.1,6.6-9.2,9.2c-3.1-0.9-7-2.6-8.3-4.8c-1.3-2.6,1.3,4.4,4.4,8.3
			c-3.1,2.6-5.3,4.8-7,7s-3.9,3.9-6.1,5.3c0-6.1,0.4-14,2.2-18.8c2.2-5.7,0.4-7-3.1-11.4c-3.5-4.4-10.1-5.3-10.5-5.3
			c-0.4,0-3.9-0.9-4.8,0s0,3.9,0,5.7s2.2,3.5,3.9,5.7c1.8,2.6,3.1,7.4,3.1,11c0,2.6,0,13.6,0,18.4c-0.9,0.4-1.8,0.9-2.2,0.9
			c-2.6,0.9-2.6-0.9-2.6-4.4c0-3.1,0.4-10.1-3.5-12.3c-3.1-1.8-8.3-0.9-8.8-0.4C1271.6,175.6,1270.3,178.3,1271.2,180.9
			L1271.2,180.9z M1266.3,216.8c0,0,3.5,6.1,1.3,9.6c-2.2,3.5-6.6,4.4-6.6,11.8c0,0,4.4,2.2,9.2-3.1c0,0,1.3,3.1,0.4,7.9
			c-0.9,4.8-6.6,11.8-11.4,14.9c-4.8,3.5-8.3,1.8-11.4-2.6c-2.6-4.8-3.9-18.8,0-21.5C1253.2,230.4,1262.4,222.1,1266.3,216.8
			L1266.3,216.8z M1332.1,177.4c0,0.9,0,1.3,0,1.8c0,1.3,0.4,4.8-1.3,7.9c-1.3,2.2-1.3,6.1-1.3,7.9c-2.6,0.4-5.7,0.9-8.3,0.9
			c-0.4-1.3-1.3-2.6-1.8-3.1l0,0c0.9-1.8,1.8-3.5,3.1-4.8c3.1-3.1,0.9-6.1,3.1-8.3C1326.8,178.3,1329.9,177,1332.1,177.4
			L1332.1,177.4z M1315.9,191.9c-2.6-0.9-6.1-1.3-8.3-0.9c-2.6,0.4-2.6-1.8-4.4-3.1c2.2-2.6,6.6-6.6,11-11
			C1316.7,180.9,1317.2,187.5,1315.9,191.9L1315.9,191.9z M1339.1,170.4c1.8-0.4,3.9-0.4,5.7-0.4c5.3,0,6.1,3.1,3.1,8.3
			c-1.8,3.1-4.4,7.4-7,12.3c-1.3,0.9-3.1,1.8-4.4,2.2c-0.9,0.4-1.8,0.9-3.1,1.3c0-0.9,0-1.8,0.4-2.6c0.9-3.5,3.5-10.5,3.1-13.6
			C1337.3,174.3,1336.4,171.7,1339.1,170.4L1339.1,170.4z M1334.3,202.4c-4.8,7.9-9.6,7.9-10.5,5.3c-0.4-1.3-0.9-4.8-1.8-7.9
			c2.6-0.9,5.7-1.8,7.4-0.9C1332.1,199.7,1333.4,201.1,1334.3,202.4z"/>
	</g>
	<g>
		<g>
			<path class="st1" d="M522.8,396H518v-16.2h-18.4V396h-4.8v-35.9h4.8v15.8H518v-15.8h4.8V396z"/>
			<path class="st1" d="M563.1,396h-5.3l-3.5-10.1h-14.9L536,396h-5.3l13.6-35.9h4.8L563.1,396z M553.1,382l-5.3-14.9
				c0-0.4-0.4-1.3-0.4-2.6l0,0c0,0.9-0.4,1.8-0.4,2.6l-5.3,14.9H553.1z"/>
			<path class="st1" d="M597.7,396H592l-6.1-10.1c-1.3-2.2-2.2-3.5-3.1-3.9c-0.9-0.9-2.2-0.9-3.5-0.9h-3.5v15.3H571v-35.9h11
				c3.5,0,6.1,0.9,8.3,2.6c2.2,1.8,3.1,3.9,3.1,7c0,4.8-2.6,8.3-7.9,9.6l0,0c0.9,0.4,1.8,0.9,2.6,1.8c0.9,0.9,1.8,2.2,2.6,3.9
				L597.7,396z M575.8,364v12.7h5.7c2.2,0,3.9-0.4,5.3-1.8c1.3-1.3,2.2-3.1,2.2-4.8s-0.4-3.5-1.8-4.4c-1.3-0.9-3.1-1.8-5.3-1.8
				H575.8z"/>
			<path class="st1" d="M605.6,396v-35.9h10.5c3.1,0,5.7,0.9,7.4,2.2c1.8,1.3,2.6,3.5,2.6,6.1c0,2.2-0.4,3.9-1.8,5.3
				c-1.3,1.3-2.6,2.6-4.8,3.1l0,0c2.6,0.4,4.4,1.3,5.7,2.6c1.3,1.8,2.2,3.5,2.2,6.1c0,3.1-1.3,5.7-3.5,7.4c-2.2,1.8-5.3,3.1-8.8,3.1
				L605.6,396L605.6,396z M610,364v11.4h4.4c2.2,0,3.9-0.4,5.3-1.8c1.3-0.9,1.8-2.6,1.8-4.4c0-3.5-2.2-5.3-7-5.3H610z M610,379.4
				v12.7h5.7c2.6,0,4.4-0.4,5.7-1.8c1.3-1.3,2.2-2.6,2.2-4.8c0-3.9-2.6-6.1-8.3-6.1H610z"/>
			<path class="st1" d="M646.4,364h-3.5v28h3.5v3.9h-11.8v-3.9h3.5v-28h-3.5v-3.9h11.8V364z"/>
			<path class="st1" d="M684.5,396h-5.7l-18-28c-0.4-0.9-0.9-1.8-1.3-2.2l0,0c0,0.9,0,2.6,0,5.3v25.4h-4.8v-35.9h5.7l17.5,27.6
				c0.9,1.3,1.3,2.2,1.3,2.6l0,0c0-0.9-0.4-2.6-0.4-5.3v-25h4.8V396H684.5z"/>
			<path class="st1" d="M721.7,364h-3.5v28h3.5v3.9h-11.8v-3.9h3.5v-28h-3.5v-3.9h11.8V364z"/>
			<path class="st1" d="M760.3,396h-5.7l-18-28c-0.4-0.9-0.9-1.8-1.3-2.2l0,0c0,0.9,0,2.6,0,5.3v25.4h-4.8v-35.9h5.7l17.5,27.6
				c0.9,1.3,1.3,2.2,1.3,2.6l0,0c0-0.9-0.4-2.6-0.4-5.3v-25h4.8V396H760.3z"/>
			<path class="st1" d="M770.8,389.5c1.3,0.9,2.6,1.8,4.4,2.2c1.8,0.4,3.5,0.9,5.3,0.9c5.3,0,7.4-1.8,7.4-5.3c0-0.9-0.4-1.8-0.9-2.6
				c-0.4-0.9-1.3-1.3-2.2-2.2c-0.9-0.4-2.6-1.8-5.3-3.1c-3.5-1.8-6.1-3.5-7-4.8c-1.3-1.8-1.8-3.5-1.8-5.3c0-3.1,1.3-5.3,3.5-7
				c2.2-1.8,5.3-2.6,9.2-2.6c3.5,0,6.1,0.4,7.9,1.3v5.3c-2.2-1.3-4.8-2.2-8.3-2.2c-2.2,0-3.9,0.4-5.3,1.3c-1.3,0.9-2.2,2.2-2.2,3.9
				c0,1.3,0.4,2.6,1.3,3.5c0.9,0.9,3.1,2.2,6.1,3.9c3.5,1.8,6.1,3.5,7.4,5.3c1.3,1.8,2.2,3.5,2.2,5.7c0,3.1-1.3,5.7-3.5,7.4
				c-2.2,1.8-5.7,2.6-9.6,2.6c-1.3,0-3.1,0-4.8-0.4c-1.8-0.4-3.5-0.9-4.4-1.3v-6.6H770.8z"/>
			<path class="st1" d="M824.7,364h-10.5v32h-4.8v-32h-10.5v-3.9h25.4v3.9H824.7z"/>
			<path class="st1" d="M841.4,364h-3.5v28h3.5v3.9h-11.8v-3.9h3.5v-28h-3.5v-3.9h11.8V364z"/>
			<path class="st1" d="M871.6,364h-10.5v32h-4.8v-32h-10.5v-3.9h25.4v3.9H871.6z"/>
			<path class="st1" d="M907.1,381.6c0,10.1-4.8,15.3-14,15.3c-8.8,0-13.1-4.8-13.1-14.9v-21.9h4.8V382c0,7.4,3.1,11,9.2,11
				c5.7,0,8.8-3.5,8.8-10.5v-21.9h4.8v21H907.1z"/>
			<path class="st1" d="M940.4,364h-10.1v32h-4.8v-32H915v-3.9h25.4V364z"/>
			<path class="st1" d="M968.4,396h-19.3v-35.9h18.4v3.9h-14v11.4h12.7v3.9h-12.7v12.3h14.9V396z"/>
			<path class="st1" d="M992.5,378.5c0-5.7,1.8-10.5,4.8-14c3.1-3.5,7.4-5.3,12.7-5.3c4.8,0,9.2,1.8,12.3,5.3
				c3.1,3.5,4.4,7.9,4.4,13.1c0,5.7-1.8,10.5-4.8,14c-3.1,3.5-7.4,5.3-12.7,5.3c-5.3,0-9.2-1.8-12.3-5.3
				C994.3,388.1,992.5,383.8,992.5,378.5z M997.8,378.1c0,4.4,1.3,7.9,3.5,10.5c2.2,2.6,5.3,3.9,8.8,3.9c3.9,0,7-1.3,9.2-3.9
				s3.5-6.1,3.5-10.5c0-4.8-0.9-8.3-3.1-11c-2.2-2.6-5.3-3.9-8.8-3.9s-6.6,1.3-8.8,3.9C998.6,370.2,997.8,373.7,997.8,378.1z"/>
			<path class="st1" d="M1055.6,364h-14v12.3h12.7v3.9h-12.7V396h-4.8v-35.9h18.4v3.9H1055.6z"/>
			<path class="st1" d="M1103.8,364h-10.5v32h-4.8v-32h-10.5v-3.9h25.4v3.9H1103.8z"/>
			<path class="st1" d="M1131.8,396h-19.3v-35.9h18.4v3.9h-14v11.4h12.7v3.9h-12.7v12.3h14.9V396z"/>
			<path class="st1" d="M1166,394.7c-2.6,1.3-6.1,2.2-10.1,2.2c-5.3,0-9.2-1.8-12.3-4.8c-3.1-3.1-4.8-7.4-4.8-13.1s1.8-10.5,5.3-14
				c3.5-3.5,7.9-5.3,13.1-5.3c3.5,0,6.1,0.4,8.8,1.3v4.8c-2.6-1.3-5.3-2.2-8.3-2.2c-3.9,0-7.4,1.3-9.6,3.9c-2.6,2.6-3.9,6.1-3.9,11
				c0,4.4,1.3,7.9,3.5,10.1c2.2,2.6,5.3,3.9,9.2,3.9c3.5,0,6.6-0.9,9.2-2.6L1166,394.7L1166,394.7z"/>
			<path class="st1" d="M1203.7,396h-4.8v-16.2h-18.4V396h-4.8v-35.9h4.8v15.8h18.4v-15.8h4.8V396z"/>
			<path class="st1" d="M1245.3,396h-5.7l-18-28c-0.4-0.9-0.9-1.8-1.3-2.2l0,0c0,0.9,0,2.6,0,5.3v25.4h-4.8v-35.9h5.7l17.5,27.6
				c0.9,1.3,1.3,2.2,1.3,2.6l0,0c0-0.9-0.4-2.6-0.4-5.3v-25h4.8V396H1245.3z"/>
			<path class="st1" d="M1255.4,378.5c0-5.7,1.8-10.5,4.8-14c3.1-3.5,7.4-5.3,12.7-5.3c4.8,0,9.2,1.8,12.3,5.3
				c3.1,3.5,4.4,7.9,4.4,13.1c0,5.7-1.8,10.5-4.8,14c-3.1,3.5-7.4,5.3-12.7,5.3c-5.3,0-9.2-1.8-12.3-5.3
				C1256.7,388.1,1255.4,383.8,1255.4,378.5z M1260.2,378.1c0,4.4,1.3,7.9,3.5,10.5s5.3,3.9,8.8,3.9c3.9,0,7-1.3,9.2-3.9
				c2.2-2.6,3.5-6.1,3.5-10.5c0-4.8-0.9-8.3-3.1-11s-5.3-3.9-8.8-3.9c-3.5,0-6.6,1.3-8.8,3.9
				C1261.5,370.2,1260.2,373.7,1260.2,378.1z"/>
			<path class="st1" d="M1318.5,396h-18.8v-35.9h4.8v32h14.5v3.9H1318.5z"/>
			<path class="st1" d="M1322.9,378.5c0-5.7,1.8-10.5,4.8-14c3.1-3.5,7.4-5.3,12.7-5.3c4.8,0,9.2,1.8,12.3,5.3
				c3.1,3.5,4.8,7.9,4.8,13.1c0,5.7-1.8,10.5-4.8,14c-3.1,3.5-7.4,5.3-12.7,5.3c-5.3,0-9.2-1.8-12.3-5.3
				C1324.2,388.1,1322.9,383.8,1322.9,378.5z M1327.7,378.1c0,4.4,1.3,7.9,3.5,10.5c2.2,2.6,5.3,3.9,8.8,3.9c3.9,0,7-1.3,9.2-3.9
				s3.5-6.1,3.5-10.5c0-4.8-0.9-8.3-3.1-11c-2.2-2.6-5.3-3.9-8.8-3.9c-3.5,0-6.6,1.3-8.8,3.9
				C1328.6,370.2,1327.7,373.7,1327.7,378.1z"/>
			<path class="st1" d="M1394.3,393.4c-3.5,2.2-7.9,3.1-12.3,3.1c-5.3,0-9.6-1.8-12.7-4.8c-3.1-3.5-4.8-7.9-4.8-13.1
				c0-5.7,1.8-10.1,5.3-13.6c3.5-3.5,7.9-5.3,13.6-5.3c3.9,0,7,0.4,10.1,1.8v4.8c-3.1-1.8-6.1-2.6-10.5-2.6c-3.9,0-7,1.3-9.6,3.9
				c-2.6,2.6-3.9,6.1-3.9,10.5s1.3,7.9,3.5,10.5c2.2,2.6,5.7,3.9,9.6,3.9c2.6,0,5.3-0.4,7-1.8v-9.6h-7.9v-3.9h12.7V393.4z"/>
			<path class="st1" d="M1428.9,360.1l-11.8,22.8V396h-4.8v-13.1l-11.4-22.8h5.3l7.9,16.2c0,0,0.4,0.9,0.9,2.2l0,0
				c0-0.4,0.4-1.3,0.9-2.2l8.3-16.2H1428.9z"/>
			<path class="st1" d="M1435.9,390.3l-3.9,12.3h-3.5l3.1-12.3H1435.9z"/>
			<path class="st1" d="M1462.2,389.5c1.3,0.9,2.6,1.8,4.4,2.2s3.5,0.9,5.3,0.9c5.3,0,7.4-1.8,7.4-5.3c0-0.9-0.4-1.8-0.9-2.6
				c-0.4-0.9-1.3-1.3-2.2-2.2c-0.9-0.4-2.6-1.8-5.3-3.1c-3.5-1.8-6.1-3.5-7-4.8c-1.3-1.8-1.8-3.5-1.8-5.3c0-3.1,1.3-5.3,3.5-7
				c2.6-1.8,5.3-2.6,9.2-2.6c3.5,0,6.1,0.4,7.9,1.3v5.3c-2.2-1.3-4.8-2.2-8.3-2.2c-2.2,0-3.9,0.4-5.3,1.3c-1.3,0.9-2.2,2.2-2.2,3.9
				c0,1.3,0.4,2.6,1.3,3.5c0.9,0.9,3.1,2.2,6.1,3.9c3.5,1.8,6.1,3.5,7.4,5.3c1.3,1.8,2.2,3.5,2.2,5.7c0,3.1-1.3,5.7-3.5,7.4
				c-2.2,1.8-5.7,2.6-9.6,2.6c-1.3,0-3.1,0-4.8-0.4c-1.8-0.4-3.5-0.9-3.9-1.3L1462.2,389.5L1462.2,389.5z"/>
			<path class="st1" d="M1521.8,396h-4.8v-16.2h-18.4V396h-4.8v-35.9h4.8v15.8h18.4v-15.8h4.8V396z"/>
			<path class="st1" d="M1553.3,396h-19.3v-35.9h18.8v3.9h-14v11.4h12.7v3.9h-12.7v12.3h14.9v4.4H1553.3z"/>
			<path class="st1" d="M1592.8,396h-5.7l-18-28c-0.4-0.9-0.9-1.8-1.3-2.2l0,0c0,0.9,0,2.6,0,5.3v25.4h-4.8v-35.9h5.7l17.5,27.6
				c0.9,1.3,1.3,2.2,1.3,2.6l0,0c0-0.9-0.4-2.6-0.4-5.3v-25h4.8V396H1592.8z"/>
			<path class="st1" d="M1628.7,361.4l-21,30.7h20.2v3.9h-27.2v-1.8l20.6-30.2h-18.8v-3.9h25.9v1.3H1628.7z"/>
			<path class="st1" d="M1665.1,396h-4.8v-16.2h-18.4V396h-4.8v-35.9h4.8v15.8h18.4v-15.8h4.8V396z"/>
			<path class="st1" d="M1696.6,396h-19.3v-35.9h18.4v3.9h-14v11.4h12.7v3.9h-12.7v12.3h14.9V396z"/>
			<path class="st1" d="M1735.6,396h-5.7l-18-28c-0.4-0.9-0.9-1.8-1.3-2.2l0,0c0,0.9,0,2.6,0,5.3v25.4h-4.8v-35.9h5.7l17.5,27.6
				c0.9,1.3,1.3,2.2,1.3,2.6l0,0c0-0.9-0.4-2.6-0.4-5.3v-25h4.8V396H1735.6z"/>
		</g>
	</g>
	<g>
		<path class="st1" d="M1463.5,233.9c0.9,0,1.3,2.2,1.3,7c0,4.8-1.3,11-3.9,18.4c-2.6,7.4-5.7,13.6-9.2,17.5
			c-0.9,0.9-2.2,3.9-4.4,8.8c-0.4,1.3-1.3,1.8-2.2,1.8c-1.8,0-4.4-2.6-8.3-7.4c-3.9-5.3-5.7-14.5-5.7-27.6c0-2.2,0.4-5.3,0.9-9.2
			c0.4-3.5,1.3-6.6,1.8-8.8c0.9-2.2,0.9-3.9,0.9-4.8c0-0.9-0.4-1.8-0.9-2.6c-0.4-0.9-0.9-1.3-0.9-1.8c0-0.4,0.4-0.9,1.3-1.3
			c0.9-0.4,1.8-0.9,3.1-0.9c0.9,0,3.1,0.9,6.1,2.2c3.1,1.3,4.8,2.6,4.8,3.9c0,0.9-0.9,2.6-2.2,3.9c-3.5,4.4-6.1,8.3-7.9,12.3
			s-2.2,8.3-2.2,13.1c0,7.4,0.9,11,3.1,11s4.8-1.8,8.3-5.7c3.1-3.5,7.9-12.7,13.1-27.6C1462.2,234.8,1463.1,233.9,1463.5,233.9z
			 M1447.7,189.2c1.3,0,3.9,2.2,8.8,7c4.4,4.8,6.6,8.8,6.6,11.8c0,2.2-2.2,3.5-6.1,3.5c-0.9,0-2.6-0.4-3.9-1.3
			c-1.8-0.9-3.1-1.3-3.9-1.3c-0.9-0.4-1.8-0.9-2.6-1.3c-0.4-0.9-0.9-1.8-1.3-2.6c-0.4-1.3-0.4-3.1-0.4-5.7
			C1444.7,192.3,1445.5,189.2,1447.7,189.2z M1567.3,278.2c0,0.9-0.9,1.8-2.2,3.1c-1.8,0.9-4.4,1.8-8.3,1.8s-8.3,0-13.6-0.4
			c-4.8-0.4-7.9-0.9-8.3-0.9c-0.9,0-1.3-0.4-2.2-1.3c-0.4-0.9-1.3-2.2-2.2-3.9c-2.2-5.7-5.7-9.6-10.5-12.3c-4.8-2.6-7.4-3.9-8.8-3.9
			c-0.9,0-1.3,1.3-1.8,3.5c-0.4,6.6-0.9,11.4-1.3,14s-0.4,5.3-0.4,7.4c0,2.2,0.4,4.4,1.3,6.1c0.9,1.8,1.3,3.1,1.3,3.9
			c0,2.2-1.3,3.5-3.9,3.5c-1.8,0-4.8-0.9-8.8-2.2c-3.9-1.3-7.9-3.1-11-4.8c-3.1-1.8-4.8-3.5-4.8-4.4s0.4-1.3,1.8-0.9
			c3.9,0.9,7.4,1.3,10.5,1.3s4.8-0.4,5.3-1.8c0.4-1.3,0.9-6.6,0.9-16.6c0-4.4,0-7-0.4-7.9c0-0.9-0.9-1.3-1.3-1.3
			c-1.8,0-3.5,1.3-5.7,3.5c-2.2,2.2-4.8,4.4-8.3,7.4c-3.5,3.1-5.7,4.8-6.6,5.3c-2.2,1.3-3.9,3.1-4.8,4.4s-1.8,2.2-2.6,2.2
			s-3.1-0.4-6.6-1.8c-3.5-1.3-5.3-2.2-5.3-3.1s1.3-1.3,3.9-1.8s5.3-1.8,8.3-3.9c3.1-2.2,6.6-4.8,10.5-7.9s7-6.1,9.2-9.2
			c2.2-2.6,3.1-4.4,3.1-5.3c0-0.9-0.4-1.3-1.3-1.3c-0.9,0-3.1,0.4-7,1.8c-3.9,1.3-6.1,2.2-7.4,2.6c-0.9,0.4-2.2,0.9-2.6,0.9
			c-0.9,0-1.8-1.3-3.5-3.5c-1.3-2.2-2.2-4.4-2.2-5.7c0-1.3,0.9-2.2,2.6-2.6c3.1-0.4,5.7-1.3,7.9-2.2c2.2-0.9,7.4-2.2,15.8-3.9
			c1.8-0.4,2.6-0.9,3.1-1.3c0.4-0.4,0.9-1.3,0.9-2.2l-0.4-3.1c0-1.8,0.9-2.2,2.6-2.2s3.5,0,6.1,0.4c2.6,0.4,3.9,0.9,4.4,1.3
			c0.4,0.4,0.9,0.9,0.9,1.8c0,0.9,0.4,1.3,0.9,1.3c0.4,0,2.6-0.4,6.6-1.8c3.9-1.3,7-1.8,9.2-1.8c2.2,0,3.9,1.3,5.3,4.4
			c1.3,3.1,2.2,5.3,2.2,7s-0.9,2.2-3.1,2.2c-0.9,0-1.8,0-3.1-0.4c-1.3-0.4-2.6-0.4-4.4-0.4c-1.8,0-3.9,0.4-6.6,0.9
			c-2.6,0.4-4.4,0.9-4.8,1.3c-0.4,0.4-0.4,0.9-0.4,1.3c0,1.8,2.6,5.3,7.4,10.5c5.3,5.3,11.4,8.8,18.4,11.4
			c11.4,3.5,18.8,6.1,22.3,7.9C1565.6,275.5,1567.3,276.8,1567.3,278.2z M1523.1,184.4c3.1,0,5.3,0.4,7.4,1.8
			c2.2,1.3,3.9,3.1,6.1,5.7c2.2,2.6,4.8,5.3,7.4,7.9c0.9,0.9,1.3,1.8,1.3,3.1c0,0.9-0.4,1.8-1.8,2.2s-3.5,1.3-6.6,1.8
			c-3.1,0.4-6.1,0.9-9.2,0.9c-3.9,0-6.1-0.9-6.1-2.2c0-0.9,0.4-1.8,1.8-2.2c3.9-2.6,5.7-5.7,5.7-8.8c0-2.6-1.8-3.9-5.3-3.9
			c-1.3,0-3.1,0-5.3,0.4c-2.2,0.4-3.1,0.9-3.5,1.3c-0.4,0.4-0.4,1.3-0.4,2.6c0,7.9,0.4,13.1,1.8,15.3c1.3,2.2,3.5,3.5,6.6,3.5h2.6
			c1.8,0,2.2,0.9,2.2,2.6c0,1.8-1.3,3.1-4.4,4.8c-3.1,1.8-5.3,2.2-7.4,2.2s-3.9-1.3-6.1-4.4c-2.2-2.6-3.1-6.6-3.1-11.4v-7.9
			c0-2.6-0.4-3.9-1.3-3.9c0,0-0.9,0-1.8,0.4c-0.9,0.4-2.2,0.9-3.9,1.3c-1.8,0.4-2.6,1.8-2.6,3.5c-0.4,3.1-0.9,5.7-1.3,7.4
			c-0.4,1.8-0.9,4.8-0.9,8.3c0,3.9-1.3,6.6-3.9,8.3c-2.6,1.8-6.6,2.6-12.3,2.6c-1.8,0-2.2-0.4-2.2-0.9c0-0.4,0.4-1.3,1.3-2.6
			c0.9-1.3,2.2-2.2,3.9-3.1c1.8-0.9,3.1-2.6,4.4-5.7c1.3-3.1,1.8-6.1,1.8-9.6c0-3.5-0.4-5.7-0.9-6.1c-0.4-0.4-1.8-0.4-3.9-0.4
			c-1.8,0-3.5,0.9-4.4,3.1c-0.9,2.2-1.8,3.9-1.8,5.7s0,3.1,0.4,3.9c0,0.9,0.4,1.8,0.4,2.6c0,0.9-0.4,1.8-0.9,2.2
			c-0.4,0.9-1.3,1.3-2.2,1.3s-2.6-0.9-4.8-2.2c-2.2-1.3-3.5-2.6-3.5-3.9c0-0.4,0.4-1.3,0.9-1.8c1.8-1.8,3.1-3.5,4.4-6.1
			c2.6-4.4,5.7-7.4,9.6-9.2c1.8-0.9,2.6-1.3,3.5-1.8c0.4-0.4,1.3-0.9,2.2-0.9s3.1-0.4,6.1-1.8c3.1-1.3,8.3-2.6,14.9-4.4
			C1515.2,185.3,1520,184.4,1523.1,184.4z"/>
		<path class="st1" d="M1608.1,241.8c0-1.8-0.4-2.6-2.2-2.6c-0.9,0-1.8,0-3.5,0.4c-1.8,0-2.6,0.4-3.1,0.9c-0.4,0.4-0.9,0.4-1.8,0.4
			c-0.4,0-1.3-0.4-1.8-0.9s-1.3-3.1-2.6-7c-1.3-3.9-1.8-7-1.8-8.8c0-0.9,0.4-1.8,0.9-2.2c0.4-0.4,1.3-0.9,2.2-0.4c0.9,0,2.2,0,3.9,0
			c6.1,0,9.6-0.4,11-1.8c0.9-1.3,1.3-11.8,1.3-32c0-5.7,1.3-8.8,4.4-8.8c1.8,0,3.9,0.4,6.6,1.3c2.6,0.9,3.9,2.2,3.9,3.9
			c0,0.4,0,0.9-0.4,1.3c-1.3,2.2-2.6,5.7-3.9,11c-0.9,5.3-1.8,11-1.8,17.1c0,2.2,0.4,3.1,0.9,3.1c0.4,0,1.3,0,1.8,0
			c4.4-1.3,7-1.8,8.3-1.8s2.2,0,2.6,0.4c0.4,0.4,0.9,0.9,1.3,2.6c0.4,1.3,0.9,2.6,0.9,3.1c0,0.9-0.4,1.8-0.9,2.6
			c-0.4,0.9-2.2,2.6-5.3,5.3c-3.1,2.6-5.3,4.8-6.6,5.7c-1.3,0.9-2.2,2.6-2.2,4.8s0.4,3.1,1.3,3.1c0.4,0,3.1-1.8,7.4-4.8h0.4
			c0.4,0,0.9,0.9,0.9,2.6s-1.8,5.3-4.8,9.6c-3.1,4.8-6.1,8.3-8.3,10.1c-2.6,2.2-5.7,5.3-8.8,9.2c-3.5,3.9-5.7,7-7,8.8
			c-0.4,0.4-0.9,0.9-1.8,0.9s-2.2-1.3-4.8-3.5c-2.6-2.6-3.9-4.4-3.9-5.3c0-1.3,0.9-2.2,2.2-3.9c7-6.1,11-9.6,11.8-11
			c0.9-1.3,1.3-2.6,1.8-3.5L1608.1,241.8z M1654.5,198.9c0,0.4,0,0.9-0.4,1.8c-2.6,4.4-3.9,12.7-3.9,25c0,8.8,0,14.5-0.4,17.1
			c0,2.6-0.9,4.8-1.8,6.6c-0.9,1.8-1.8,4.4-2.6,7.4c-0.9,3.1-0.9,5.3-0.9,6.1c0,0.9,0.4,1.8,0.4,2.2c0,3.1-2.2,6.6-7,10.5
			c-4.8,4.4-10.1,6.6-16.6,6.6c-1.8,0-3.1-0.4-3.1-1.8c0-1.3,0.4-2.2,1.8-3.1c6.1-5.7,11-11.4,14-16.6c3.1-5.3,5.3-11,5.7-17.1
			c0.9-6.1,0.9-12.7,0.9-19.3l-0.9-25c0-1.3,0.4-2.6,1.3-3.5c0.9-0.9,1.8-1.3,2.6-1.3s2.2,0.4,3.1,0.9c1.3,0.9,2.6,1.3,4.4,1.3
			C1653.7,196.7,1654.5,197.5,1654.5,198.9z M1674.7,207.6c0,0.4,0,1.3-0.4,1.8c0,0.9-0.9,6.6-1.8,17.1c-0.9,11-1.3,17.5-1.3,20.6
			s-0.4,5.7-0.9,7c-0.4,1.8-1.3,3.1-3.1,3.9c-1.8,0.9-3.1,1.3-4.4,1.3c-0.9,0-1.8-0.9-2.2-2.6c-0.4-1.8-0.9-7.4-1.3-16.6
			c-0.4-9.6-0.4-17.5-0.4-24.5c0-6.6,0.4-10.5,0.9-11.8c0.4-0.9,1.3-1.8,2.6-1.8s3.5,0.4,7,1.3
			C1672.9,204.6,1674.7,205.9,1674.7,207.6z M1701.4,180.9c0,0.4-0.4,1.3-1.3,1.8c-0.9,0.9-1.8,2.6-2.6,5.3
			c-0.9,2.6-1.8,5.3-1.3,7.9c0,2.6,0,8.3,0,17.1s0,15.8-0.4,21.5c0,5.7-0.4,11.4-0.4,17.5c0,6.1,0,10.1,0.4,11.8
			c1.8,14.5,2.6,22.8,2.6,25.4c0,2.6,0.4,4.8,0.9,7.4c0.4,2.6,0.9,3.9,0.9,4.4c0,2.6-1.3,3.5-3.9,3.5c-1.8,0-3.9-0.4-7-1.8
			s-5.3-2.6-6.6-3.9s-2.2-2.2-2.2-3.1c0-0.9,0.4-1.8,1.3-2.6c0.9-0.9,1.8-2.2,2.2-3.9c0.4-1.8,0.4-5.3,0.4-10.1s-0.4-21-1.8-48.2
			c-0.9-27.6-1.8-42.9-1.8-46.9c0-3.9,0.4-6.6,0.9-7.9c0.4-1.3,1.3-1.8,2.6-1.8c1.3,0,4.4,0.9,9.2,2.2
			C1699.2,178.3,1701.4,179.6,1701.4,180.9z"/>
	</g>
	<g>
		<path class="st1" d="M1399.5,212.4c3.5-4.8,9.6-10.1,17.5-15.3l0.4-0.4l-1.3-2.2l-0.4,0.4c-8.3,3.9-15.3,9.2-20.6,15.8
			c-4.8,4.8-8.3,11-10.5,17.5c-2.2,6.1-3.1,12.3-3.1,18.8c0,5.7,0.9,11.8,3.1,18.4c2.2,6.6,6.1,12.3,10.5,17.5
			c5.3,6.1,12.3,11.4,20.6,15.3l0.4,0.4l1.3-2.2l-0.4-0.4c-7.9-5.3-13.6-10.5-17.5-15.3c-4.4-5.3-7.4-10.5-8.8-15.8
			c-1.8-6.6-2.6-12.3-2.6-18c0-5.7,0.9-11.4,2.6-18C1392.1,223.4,1395.2,218.1,1399.5,212.4z"/>
		<path class="st1" d="M1760.6,227.8c-2.2-6.6-6.1-12.3-10.5-17.5c-5.3-6.1-12.3-11.4-20.2-15.8h-0.4l-1.3,2.2l0.4,0.4
			c7.9,5.3,13.6,10.5,17.1,15.3c4.4,5.3,7.4,10.5,8.8,15.8c1.8,6.6,2.6,12.7,2.6,18s-0.9,11.4-2.6,18c-1.3,4.8-4.4,10.1-8.8,15.8
			c-3.5,4.8-9.2,10.1-17.1,15.3l-0.4,0.4l1.3,2.2h0.4c8.3-3.9,14.9-9.2,20.2-14.9c4.8-5.3,8.3-11.4,10.5-18
			c2.2-6.1,3.1-12.3,3.1-18.4C1763.6,240,1762.8,233.9,1760.6,227.8z"/>
	</g>
</g>
</svg>
