<?xml version="1.0" encoding="utf-8"?>
<!-- Generator: Adobe Illustrator 25.0.0, SVG Export Plug-In . SVG Version: 6.00 Build 0)  -->
<svg version="1.1" id="图层_1" xmlns="http://www.w3.org/2000/svg" xmlns:xlink="http://www.w3.org/1999/xlink" x="0px" y="0px"
	 viewBox="0 0 1860 560" style="enable-background:new 0 0 1860 560;" xml:space="preserve">
<style type="text/css">
	.st0{clip-path:url(#SVGID_1_);fill:url(#SVGID_2_);}
	.st1{clip-path:url(#SVGID_3_);fill:url(#SVGID_4_);}
	.st2{clip-path:url(#SVGID_5_);fill:url(#SVGID_6_);}
	.st3{clip-path:url(#SVGID_7_);fill:url(#SVGID_8_);}
	.st4{clip-path:url(#SVGID_9_);fill:url(#SVGID_10_);}
	.st5{clip-path:url(#SVGID_11_);fill:url(#SVGID_12_);}
	.st6{clip-path:url(#SVGID_13_);fill:url(#SVGID_14_);}
	.st7{clip-path:url(#SVGID_15_);fill:url(#SVGID_16_);}
</style>
<g>
	<polygon points="831.1,299.7 754.4,299.7 754.4,232.1 720.5,232.1 720.5,399.5 754.4,399.5 754.4,331.5 831.1,331.5 831.1,399.5
		865.1,399.5 865.1,232.1 831.1,232.1 	"/>
	<path d="M1022.5,328c0,27.2-13.5,41.8-38.1,41.8c-24.7,0-38.3-14.9-38.3-42.9v-94.6h-34v95.7c0,47.1,26.1,74.1,71.8,74.1
		c46,0,72.4-27.5,72.4-75.5v-94.4h-34L1022.5,328L1022.5,328z"/>
	<polygon points="1415.1,347.3 1377.1,232.1 1349.4,232.1 1311.4,347.3 1274.4,232.2 1238.3,232.2 1296.6,399.5 1324.7,399.5
		1362.8,289.6 1400.9,399.5 1429.3,399.5 1487.4,232.2 1452.3,232.2 	"/>
	<polygon points="1548.4,327.5 1610.2,327.5 1610.2,297 1548.4,297 1548.4,262.7 1638,262.7 1638,232.2 1514.9,232.2 1514.9,399.4
		1641.3,399.4 1641.3,368.9 1548.4,368.9 	"/>
	<rect x="1681.8" y="232.1" width="33.5" height="167.2"/>
	<path d="M1200.3,364.6l15,34.9h35.6l-73.1-166.3l-0.7-0.9h-29.7l-73.7,167.3h34.6l14.2-32.4l0,0l1-2.4H1200.3z M1161.9,274.5
		l24.2,56h-0.1l1.6,3.9h-51.3l1.6-3.9h-0.1L1161.9,274.5z"/>
	<g>
		<g>
			<defs>
				<path id="SVGID_25_" d="M228.1,254.5c1.5,27.7,22.3,44.2,22.3,44.2c33.6,32.8,115,74.1,133.9,83.5c0.3,0.1,1.3,0.4,1.8-0.3
					c0,0,0.8-0.6,0.4-1.7l0,0C334.7,267,263.9,181.2,263.9,181.2S225.3,217.8,228.1,254.5"/>
			</defs>
			<clipPath id="SVGID_1_">
				<use xlink:href="#SVGID_25_"  style="overflow:visible;"/>
			</clipPath>

				<radialGradient id="SVGID_2_" cx="-2.8202" cy="-668.9406" r="1.0806" gradientTransform="matrix(294.0508 0 0 294.0508 1303.3969 196865.8594)" gradientUnits="userSpaceOnUse">
				<stop  offset="0" style="stop-color:#F7BFA4"/>
				<stop  offset="1.130752e-02" style="stop-color:#F7BB9F"/>
				<stop  offset="0.427" style="stop-color:#E60012"/>
				<stop  offset="0.6628" style="stop-color:#E50012"/>
				<stop  offset="0.7574" style="stop-color:#E10011"/>
				<stop  offset="0.8268" style="stop-color:#DA0010"/>
				<stop  offset="0.8838" style="stop-color:#CF000D"/>
				<stop  offset="0.9331" style="stop-color:#C00009"/>
				<stop  offset="0.9765" style="stop-color:#AE0003"/>
				<stop  offset="1" style="stop-color:#A00000"/>
			</radialGradient>
			<rect x="225.3" y="181.2" class="st0" width="161.6" height="201.3"/>
		</g>
	</g>
	<g>
		<g>
			<defs>
				<path id="SVGID_28_" d="M236.3,413.3c14.7,26.2,39.4,46.6,65.2,40.3c17.8-4.4,58.1-32.6,71.4-42h-0.1c1-0.9,0.7-1.7,0.7-1.7
					c-0.3-1.2-1.7-1.2-1.7-1.2v-0.1L236.3,413.3z"/>
			</defs>
			<clipPath id="SVGID_3_">
				<use xlink:href="#SVGID_28_"  style="overflow:visible;"/>
			</clipPath>

				<radialGradient id="SVGID_4_" cx="-2.8182" cy="-668.9431" r="1.0826" gradientTransform="matrix(294.0969 0 0 294.0969 1303.0714 196897.2344)" gradientUnits="userSpaceOnUse">
				<stop  offset="0" style="stop-color:#F7BFA4"/>
				<stop  offset="1.130752e-02" style="stop-color:#F7BB9F"/>
				<stop  offset="0.427" style="stop-color:#E60012"/>
				<stop  offset="0.6628" style="stop-color:#E50012"/>
				<stop  offset="0.7574" style="stop-color:#E10011"/>
				<stop  offset="0.8268" style="stop-color:#DA0010"/>
				<stop  offset="0.8838" style="stop-color:#CF000D"/>
				<stop  offset="0.9331" style="stop-color:#C00009"/>
				<stop  offset="0.9765" style="stop-color:#AE0003"/>
				<stop  offset="1" style="stop-color:#A00000"/>
			</radialGradient>
			<rect x="236.3" y="408.5" class="st1" width="137.6" height="51.3"/>
		</g>
	</g>
	<g>
		<g>
			<defs>
				<path id="SVGID_31_" d="M203.9,352.4c14.7,31,42.8,40.5,42.8,40.5c12.9,5.3,25.9,5.7,25.9,5.7c2,0.4,80.6,0.1,101.6-0.1
					c0.9,0,1.4-0.9,1.4-0.9c0.7-1.1-0.5-2-0.5-2l0,0c-59.5-40.1-174.9-101.8-174.9-101.8C189.8,326.3,203.9,352.4,203.9,352.4"/>
			</defs>
			<clipPath id="SVGID_5_">
				<use xlink:href="#SVGID_31_"  style="overflow:visible;"/>
			</clipPath>

				<radialGradient id="SVGID_6_" cx="-2.8195" cy="-668.9414" r="1.0796" gradientTransform="matrix(294.0305 0 0 294.0305 1303.2061 196852.5469)" gradientUnits="userSpaceOnUse">
				<stop  offset="0" style="stop-color:#F7BFA4"/>
				<stop  offset="1.130752e-02" style="stop-color:#F7BB9F"/>
				<stop  offset="0.427" style="stop-color:#E60012"/>
				<stop  offset="0.6628" style="stop-color:#E50012"/>
				<stop  offset="0.7574" style="stop-color:#E10011"/>
				<stop  offset="0.8268" style="stop-color:#DA0010"/>
				<stop  offset="0.8838" style="stop-color:#CF000D"/>
				<stop  offset="0.9331" style="stop-color:#C00009"/>
				<stop  offset="0.9765" style="stop-color:#AE0003"/>
				<stop  offset="1" style="stop-color:#A00000"/>
			</radialGradient>
			<rect x="189.8" y="293.8" class="st2" width="186.5" height="105.2"/>
		</g>
	</g>
	<g>
		<g>
			<defs>
				<path id="SVGID_34_" d="M362.8,126.8c-35.9,9.2-44.4,41.8-44.4,41.8c-6.6,20.5,0.2,43,0.2,43c12,53.1,70.9,140.4,83.6,158.8
					c0.9,0.9,1.6,0.6,1.6,0.6c1.3-0.4,1.3-1.7,1.3-1.7l0,0c19.5-195-20.4-246.6-20.4-246.6C378.7,123.2,362.8,126.8,362.8,126.8"/>
			</defs>
			<clipPath id="SVGID_7_">
				<use xlink:href="#SVGID_34_"  style="overflow:visible;"/>
			</clipPath>

				<radialGradient id="SVGID_8_" cx="-2.8196" cy="-668.9418" r="1.0826" gradientTransform="matrix(294.036 0 0 294.036 1303.14 196856.7969)" gradientUnits="userSpaceOnUse">
				<stop  offset="0" style="stop-color:#F7BFA4"/>
				<stop  offset="1.130752e-02" style="stop-color:#F7BB9F"/>
				<stop  offset="0.427" style="stop-color:#E60012"/>
				<stop  offset="0.6628" style="stop-color:#E50012"/>
				<stop  offset="0.7574" style="stop-color:#E10011"/>
				<stop  offset="0.8268" style="stop-color:#DA0010"/>
				<stop  offset="0.8838" style="stop-color:#CF000D"/>
				<stop  offset="0.9331" style="stop-color:#C00009"/>
				<stop  offset="0.9765" style="stop-color:#AE0003"/>
				<stop  offset="1" style="stop-color:#A00000"/>
			</radialGradient>
			<rect x="311.9" y="122.7" class="st3" width="112.7" height="248.6"/>
		</g>
	</g>
	<g>
		<g>
			<defs>
				<path id="SVGID_37_" d="M428.4,369.4L428.4,369.4c0.2,1.2,1.1,1.5,1.1,1.5c1.3,0.5,1.9-0.7,1.9-0.7l0,0
					c13-18.8,71.6-105.6,83.5-158.6c0,0,6.4-25.6,0.2-43c0,0-8.8-33-44.8-41.8c0,0-10.3-2.6-21.3-4.2
					C449,122.7,408.9,174.4,428.4,369.4"/>
			</defs>
			<clipPath id="SVGID_9_">
				<use xlink:href="#SVGID_37_"  style="overflow:visible;"/>
			</clipPath>

				<radialGradient id="SVGID_10_" cx="-2.8153" cy="-668.9429" r="1.0814" gradientTransform="matrix(294.3651 0 0 294.3651 1302.9056 197076.875)" gradientUnits="userSpaceOnUse">
				<stop  offset="0" style="stop-color:#F7BFA4"/>
				<stop  offset="1.130752e-02" style="stop-color:#F7BB9F"/>
				<stop  offset="0.427" style="stop-color:#E60012"/>
				<stop  offset="0.6628" style="stop-color:#E50012"/>
				<stop  offset="0.7574" style="stop-color:#E10011"/>
				<stop  offset="0.8268" style="stop-color:#DA0010"/>
				<stop  offset="0.8838" style="stop-color:#CF000D"/>
				<stop  offset="0.9331" style="stop-color:#C00009"/>
				<stop  offset="0.9765" style="stop-color:#AE0003"/>
				<stop  offset="1" style="stop-color:#A00000"/>
			</radialGradient>
			<rect x="408.9" y="122.7" class="st4" width="112.5" height="248.7"/>
		</g>
	</g>
	<g>
		<g>
			<defs>
				<path id="SVGID_40_" d="M461.6,408.7c0,0-1.2,0.1-1.5,1.1c0,0-0.3,1.2,0.5,1.8l0,0c13,9.3,52.3,36.8,71.2,42.2
					c0,0,35.1,11.9,65.5-40.3L461.6,408.7L461.6,408.7z"/>
			</defs>
			<clipPath id="SVGID_11_">
				<use xlink:href="#SVGID_40_"  style="overflow:visible;"/>
			</clipPath>

				<radialGradient id="SVGID_12_" cx="-2.8155" cy="-668.9403" r="1.0785" gradientTransform="matrix(294.3507 0 0 294.3507 1302.9622 197067.5469)" gradientUnits="userSpaceOnUse">
				<stop  offset="0" style="stop-color:#F7BFA4"/>
				<stop  offset="1.130752e-02" style="stop-color:#F7BB9F"/>
				<stop  offset="0.427" style="stop-color:#E60012"/>
				<stop  offset="0.6628" style="stop-color:#E50012"/>
				<stop  offset="0.7574" style="stop-color:#E10011"/>
				<stop  offset="0.8268" style="stop-color:#DA0010"/>
				<stop  offset="0.8838" style="stop-color:#CF000D"/>
				<stop  offset="0.9331" style="stop-color:#C00009"/>
				<stop  offset="0.9765" style="stop-color:#AE0003"/>
				<stop  offset="1" style="stop-color:#A00000"/>
			</radialGradient>
			<rect x="459.8" y="408.6" class="st5" width="137.5" height="57"/>
		</g>
	</g>
	<g>
		<g>
			<defs>
				<path id="SVGID_43_" d="M458.6,395.5L458.6,395.5c0,0-1.1,0.7-0.7,2c0,0,0.5,1,1.4,1l0,0c21.3,0,102,0.1,104.1-0.3
					c0,0,10.5-0.4,23.3-5.4c0,0,28.7-9.1,43.6-41.8c0,0,13.3-26.6,3-57.6C633.3,293.5,518.1,355.3,458.6,395.5"/>
			</defs>
			<clipPath id="SVGID_13_">
				<use xlink:href="#SVGID_43_"  style="overflow:visible;"/>
			</clipPath>

				<radialGradient id="SVGID_14_" cx="-2.8155" cy="-668.9437" r="1.0814" gradientTransform="matrix(294.3465 0 0 294.3465 1303.0959 197064.75)" gradientUnits="userSpaceOnUse">
				<stop  offset="0" style="stop-color:#F7BFA4"/>
				<stop  offset="1.130752e-02" style="stop-color:#F7BB9F"/>
				<stop  offset="0.427" style="stop-color:#E60012"/>
				<stop  offset="0.6628" style="stop-color:#E50012"/>
				<stop  offset="0.7574" style="stop-color:#E10011"/>
				<stop  offset="0.8268" style="stop-color:#DA0010"/>
				<stop  offset="0.8838" style="stop-color:#CF000D"/>
				<stop  offset="0.9331" style="stop-color:#C00009"/>
				<stop  offset="0.9765" style="stop-color:#AE0003"/>
				<stop  offset="1" style="stop-color:#A00000"/>
			</radialGradient>
			<rect x="457.5" y="293.5" class="st6" width="186" height="105.2"/>
		</g>
	</g>
	<g>
		<g>
			<defs>
				<path id="SVGID_46_" d="M447.3,379.6L447.3,379.6c0,0-0.6,1.3,0.4,2.1c0,0,0.9,0.7,1.8,0.1l0,0c19.4-9.7,100.2-50.7,133.6-83.3
					c0,0,21.2-17,22.3-44.4c2.4-37.9-35.7-73.1-35.7-73.1S499,266.7,447.3,379.6"/>
			</defs>
			<clipPath id="SVGID_15_">
				<use xlink:href="#SVGID_46_"  style="overflow:visible;"/>
			</clipPath>

				<radialGradient id="SVGID_16_" cx="-2.8156" cy="-668.9426" r="1.0808" gradientTransform="matrix(294.3413 0 0 294.3413 1303.1788 197061.0625)" gradientUnits="userSpaceOnUse">
				<stop  offset="0" style="stop-color:#F7BFA4"/>
				<stop  offset="1.130752e-02" style="stop-color:#F7BB9F"/>
				<stop  offset="0.427" style="stop-color:#E60012"/>
				<stop  offset="0.6628" style="stop-color:#E50012"/>
				<stop  offset="0.7574" style="stop-color:#E10011"/>
				<stop  offset="0.8268" style="stop-color:#DA0010"/>
				<stop  offset="0.8838" style="stop-color:#CF000D"/>
				<stop  offset="0.9331" style="stop-color:#C00009"/>
				<stop  offset="0.9765" style="stop-color:#AE0003"/>
				<stop  offset="1" style="stop-color:#A00000"/>
			</radialGradient>
			<rect x="446.7" y="181.2" class="st7" width="161.2" height="201.3"/>
		</g>
	</g>
</g>
</svg>
