<?xml version="1.0" encoding="utf-8"?>
<!-- Generator: Adobe Illustrator 25.0.0, SVG Export Plug-In . SVG Version: 6.00 Build 0)  -->
<svg version="1.1" id="图层_1" xmlns="http://www.w3.org/2000/svg" xmlns:xlink="http://www.w3.org/1999/xlink" x="0px" y="0px"
	 viewBox="0 0 1860 560" style="enable-background:new 0 0 1860 560;" xml:space="preserve">
<style type="text/css">
	.st0{fill-rule:evenodd;clip-rule:evenodd;}
	.st1{fill:#1DB5F4;}
	.st2{fill:#0076D9;}
</style>
<g>
	<g>
		<polygon id="Fill-3_1_" class="st0" points="997.9,162.7 1020.2,162.7 1020.2,138.6 997.9,138.6 		"/>
		<polygon id="Fill-4_1_" class="st0" points="820.7,310 835.8,323.5 856,297.8 876.1,323.5 891.2,310 868.8,281.3 882.5,263.9
			882.5,138.6 829.4,138.6 829.4,159.5 862.8,159.5 862.8,256.2 856,265 849.1,256.2 849.1,171.2 829.4,171.2 829.4,263.9
			843.1,281.3 		"/>
		<polygon id="Fill-5_1_" class="st0" points="1361.6,115.2 1339.4,115.2 1339.4,263.2 1276.9,267.3 1276.9,291.6 1339.4,287.6
			1339.4,352 1361.6,352 1361.6,286.1 1401.8,283.5 1401.8,259.2 1361.6,261.8 		"/>
		<polygon id="Fill-6_1_" class="st0" points="1470.9,269.6 1502.1,264.7 1502.1,241.3 1470.9,246.2 1470.9,185.3 1502.1,185.3
			1502.1,161.9 1470.9,161.9 1470.9,114.7 1448.9,114.7 1448.9,161.9 1413.3,161.9 1413.3,185.3 1448.9,185.3 1448.9,249.7
			1413.3,255.3 1413.3,278.7 1448.9,273.1 1448.9,334.7 1422.1,334.7 1439.9,358.1 1448.9,358.1 1448.9,358.6 1470.9,358.6
			1470.9,358.1 1471,358.1 1471,334.7 1470.9,334.7 		"/>
		<polygon id="Fill-7_1_" class="st0" points="1331.6,164.1 1297,142.9 1286,163 1320.7,184.2 		"/>
		<polygon id="Fill-8_1_" class="st0" points="1077.6,324.4 1099.8,324.4 1099.8,292 1135.3,292 1135.3,268.9 1099.8,268.9
			1099.8,245.8 1130.9,245.8 1130.9,222.8 1099.8,222.8 1099.8,185.9 1077.6,185.9 1077.6,222.8 1060.2,222.8 1077.5,167.4
			1135.3,167.4 1135.3,144.4 1084.6,144.4 1090.5,125.1 1064.3,125.1 1058.4,144.4 1033.3,144.4 1033.3,167.4 1051.2,167.4
			1033.3,222.8 1033.3,245.8 1077.6,245.8 1077.6,268.9 1028.9,268.9 1028.9,292 1077.6,292 		"/>
		<polygon id="Fill-9_1_" class="st0" points="1331.6,219.8 1297,198.6 1286,218.7 1320.7,239.9 		"/>
		<path id="Fill-10_1_" class="st0" d="M779.1,248.3h17.6v28.1l-17.6,4.3V248.3z M779.1,227.3h17.6v-30.3h-17.6V227.3z M779.1,175.9
			h17.6v-25.7h-17.6V175.9z M759.4,285.7l-13.1,3.3v22.4l50.4-12.5v21.9h19.7V294l8.7-2.2v-22.4l-8.7,2.2V150.2v-21.1h-65.6v21.1
			h8.7V285.7z"/>
		<polygon id="Fill-11_1_" class="st0" points="1165.5,319.5 1187.9,319.5 1196.8,217.3 1174.4,217.3 		"/>
		<polygon id="Fill-12_1_" class="st0" points="1020.1,172 997.9,172 997.9,329 1020.1,352 1130.9,352 1148.5,329 1020.1,329 		"/>
		<polygon id="Fill-13_1_" class="st0" points="1268,180.2 1232.3,180.2 1232.3,145.1 1263.6,141.5 1263.6,119.8 1170,130.7
			1170,152.4 1210.3,147.7 1210.3,180.2 1170,180.2 1170,203.4 1210.3,203.4 1210.3,353.5 1232.3,353.5 1232.3,203.4 1268,203.4
			"/>
		<polygon id="Fill-14_1_" class="st0" points="918.1,204.3 940.5,204.3 940.5,247 918.1,247 918.1,270.1 940.5,270.1 940.5,329
			940.3,329 940.3,352 971.3,352 989,329 962.3,329 962.3,270.1 989,270.1 989,247 962.3,247 962.3,204.3 989,204.3 989,181.2
			918.1,181.2 		"/>
		<polygon id="Fill-15_1_" class="st0" points="953.4,121.1 927.2,121.1 918.4,139.7 918.1,139.7 918.1,162.7 989,162.7 989,139.7
			944.7,139.7 		"/>
		<polygon id="Fill-16_1_" class="st0" points="730.8,323.5 730.8,278.7 750.6,278.7 750.6,255.3 730.8,255.3 730.8,227.3
			746.2,227.3 746.2,203.9 730.8,203.9 730.8,171.2 746.2,171.2 746.2,147.9 730.8,147.9 730.8,115.2 708.9,115.2 708.9,147.9
			676.2,147.9 676.2,171.2 708.9,171.2 708.9,203.9 676.2,203.9 676.2,227.3 708.9,227.3 708.9,304.3 698.1,294.4 698.1,250.6
			676.2,250.6 676.2,358.1 698.1,358.1 698.1,324.9 730.3,353.5 877.6,353.5 895.1,330.1 738.8,330.1 		"/>
		<polygon id="Fill-17_1_" class="st0" points="1241.3,217.3 1250.2,319.5 1272.5,319.5 1263.6,217.3 		"/>
		<polygon id="Fill-18_1_" class="st0" points="1591.2,298.2 1635.3,255.4 1635.1,255.3 1635.4,255.3 1635.4,227.3 1635.4,213.3
			1586.5,213.3 1586.5,175.9 1639.8,175.9 1639.8,152.5 1586.5,152.5 1586.5,115.2 1564.3,115.2 1564.3,152.5 1513.8,152.5
			1513.8,175.9 1564.3,175.9 1564.3,213.3 1513.8,213.3 1513.8,236.7 1613.1,236.7 1613.1,242.2 1575,280 1546.6,248 1516.7,248
			1558.7,296.1 1497.7,356.7 1531.1,356.3 1574.5,314.3 1612.5,358 1643.7,357.3 		"/>
		<g id="分组_1_" transform="translate(0.000000, -0.500000)">
			<polygon id="Fill-19_1_" class="st0" points="714.8,393.3 728.7,393.3 728.7,454.8 714.8,454.8 714.8,428.7 691.5,428.7
				691.5,454.8 677.7,454.8 677.7,393.3 691.5,393.3 691.5,416.9 714.8,416.9 			"/>
			<path id="Fill-20_1_" class="st0" d="M810.3,418.5c2.5-4.2,4.9-8.4,7.1-12.6c2.2-4.1,4.3-8.4,6.3-12.7h15.3
				c-3.4,6.6-6.9,13.1-10.5,19.2c-3.6,6.2-7.4,12.4-11.5,18.8v23.5h-13.8v-23.4c-4-6.3-7.8-12.5-11.5-18.8
				c-3.7-6.3-7.2-12.7-10.5-19.3h16.1c1.9,4.2,4,8.5,6.1,12.7C805.5,410.2,807.8,414.4,810.3,418.5"/>
			<path id="Fill-22_1_" class="st0" d="M910.7,404.5c-1,0-2,0-2.9,0.1c-1,0.1-1.8,0.1-2.5,0.2v17.7h4.3c4.8,0,8.4-0.6,10.8-1.9
				c2.4-1.3,3.7-3.7,3.7-7.3c0-1.7-0.3-3.1-0.9-4.2c-0.6-1.1-1.5-2-2.7-2.7c-1.1-0.6-2.6-1.2-4.2-1.4
				C914.6,404.6,912.7,404.5,910.7,404.5 M909.9,392.6c9.2,0,16.2,1.7,21.1,4.9c4.9,3.2,7.4,8.5,7.4,15.8c0,7.4-2.5,12.7-7.4,16
				c-5,3.3-12,5-21.3,5h-4.3v20.6h-13.9v-60.6c3-0.6,6.3-1,9.6-1.2C904.4,392.8,907.3,392.6,909.9,392.6"/>
			<polygon id="Fill-24_1_" class="st0" points="993.4,454.8 993.4,393.3 1035,393.3 1035,405 1007.3,405 1007.3,417.1
				1031.9,417.1 1031.9,428.4 1007.3,428.4 1007.3,443.2 1037,443.2 1037,454.8 			"/>
			<path id="Fill-26_1_" class="st0" d="M1111,404.5c-1,0-1.9,0-2.7,0.1s-1.6,0.1-2.3,0.2v16.6h3.9c5.2,0,8.9-0.6,11.2-1.9
				c2.2-1.3,3.4-3.5,3.4-6.6c0-3-1.1-5.1-3.4-6.4C1118.8,405.1,1115.4,404.5,1111,404.5 M1110.2,392.6c9.2,0,16.3,1.7,21.2,5
				c4.9,3.3,7.4,8.4,7.4,15.3c0,4.3-1,7.8-2.9,10.5c-1.9,2.7-4.9,4.8-8.5,6.3c1.2,1.6,2.6,3.3,3.9,5.2c1.4,2,2.7,4,4,6.3
				c1.3,2.1,2.6,4.4,3.9,6.7c1.2,2.3,2.4,4.6,3.5,6.9h-15.4c-1.1-2-2.3-4-3.4-6.2c-1.2-2.1-2.4-4-3.6-6.1c-1.2-1.9-2.4-3.8-3.6-5.5
				c-1.2-1.7-2.4-3.3-3.6-4.7h-6.8v22.4h-13.8v-60.6c3-0.6,6.2-1,9.4-1.2C1104.8,392.8,1107.6,392.6,1110.2,392.6"/>
			<path id="Fill-28_1_" class="st0" d="M1222.7,456c-10,0-17.6-2.8-22.8-8.4c-5.2-5.5-7.8-13.4-7.8-23.7c0-5.1,0.8-9.7,2.4-13.6
				c1.6-4,3.8-7.4,6.5-10.1c2.8-2.8,6.1-4.9,9.9-6.3c3.9-1.4,8-2.1,12.5-2.1c2.6,0,5,0.2,7.1,0.6c2.1,0.4,4,0.8,5.6,1.3
				c1.6,0.5,2.9,1,4,1.6c1.1,0.6,1.8,0.9,2.3,1.2l-4,11.1c-1.9-1-4.1-1.8-6.6-2.6c-2.5-0.7-5.3-1.1-8.5-1.1c-2.1,0-4.2,0.4-6.3,1.1
				c-2,0.7-3.9,1.8-5.4,3.4c-1.6,1.6-2.8,3.6-3.8,6.1c-0.9,2.5-1.4,5.5-1.4,9c0,2.8,0.3,5.5,0.9,7.9c0.6,2.5,1.7,4.6,3,6.3
				c1.4,1.7,3.2,3.2,5.4,4.2c2.2,1,5,1.6,8.2,1.6c2,0,3.8-0.1,5.4-0.4c1.6-0.3,3-0.6,4.2-0.8c1.2-0.4,2.3-0.7,3.3-1.1
				c0.9-0.4,1.7-0.8,2.6-1.1l3.9,11c-1.9,1.2-4.7,2.2-8.3,3.2C1231.5,455.6,1227.4,456,1222.7,456"/>
			<polygon id="Fill-30_1_" class="st0" points="1334.2,393.3 1348.1,393.3 1348.1,454.8 1334.2,454.8 1334.2,428.7 1311,428.7
				1311,454.8 1297.2,454.8 1297.2,393.3 1311,393.3 1311,416.9 1334.2,416.9 			"/>
			<path id="Fill-32_1_" class="st0" d="M1431.8,407.3c-0.3,0.9-0.7,2.1-1.4,3.7c-0.6,1.6-1.3,3.3-2,5.3c-0.7,2-1.6,4.2-2.6,6.6
				c-0.9,2.4-1.9,5-2.8,7.6h17.6c-0.9-2.7-1.8-5.2-2.8-7.6c-0.9-2.4-1.7-4.7-2.5-6.6c-0.8-2-1.5-3.8-2.1-5.3
				C1432.7,409.3,1432.2,408.1,1431.8,407.3L1431.8,407.3z M1448.5,454.8c-0.6-2.1-1.4-4.3-2.2-6.6c-0.8-2.2-1.6-4.5-2.4-6.7h-24
				c-0.7,2.2-1.6,4.5-2.3,6.7c-0.7,2.2-1.6,4.4-2.2,6.5H1401c2.3-6.6,4.5-12.8,6.6-18.4c2.1-5.6,4.1-10.9,6.1-15.9
				c2-5,4-9.7,5.9-14.2s4-8.8,6-13.1h13.1c2,4.2,4,8.6,6,13.1c1.9,4.4,4,9.2,5.9,14.2c2,5,4,10.3,6.1,15.9
				c2.1,5.6,4.3,11.8,6.6,18.4L1448.5,454.8L1448.5,454.8z"/>
			<polygon id="Fill-34_1_" class="st0" points="1516.1,454.8 1529.9,454.8 1529.9,393.3 1516.1,393.3 			"/>
			<path id="Fill-36_1_" class="st0" d="M1630.4,454.8c-4-7.1-8.3-14-12.9-20.9c-4.6-6.9-9.6-13.3-14.7-19.4v40.3h-13.7v-61.4h11.3
				c1.9,1.9,4.1,4.3,6.5,7.2s4.8,5.9,7.3,9.1c2.5,3.2,4.9,6.5,7.4,10c2.4,3.5,4.7,6.8,6.8,9.9v-36.3h13.8v61.4L1630.4,454.8
				L1630.4,454.8z"/>
		</g>
	</g>
	<g>
		<polygon id="Fill-1_1_" class="st1" points="474.8,83.5 398.7,158.9 436.2,196.2 511,122.1 511,439.8 350.8,281 383.2,248.9
			345.6,211.6 314.9,242 314.9,319.9 472.7,476.4 565.7,438.2 565.7,121.8 		"/>
		<polygon id="Fill-2_1_" class="st2" points="345.6,366 271,439.9 271,122.3 431.2,281.1 398.6,313.3 436.2,350.6 467.1,320
			467.1,242.2 307.3,83.6 216.3,121.9 216.3,438.3 309.3,476.5 383.2,403.3 		"/>
	</g>
</g>
</svg>
