<?xml version="1.0" encoding="utf-8"?>
<!-- Generator: Adobe Illustrator 25.0.0, SVG Export Plug-In . SVG Version: 6.00 Build 0)  -->
<svg version="1.1" id="图层_1" xmlns="http://www.w3.org/2000/svg" xmlns:xlink="http://www.w3.org/1999/xlink" x="0px" y="0px"
	 viewBox="0 0 1860 560" style="enable-background:new 0 0 1860 560;" xml:space="preserve">
<style type="text/css">
	.st0{fill:#717071;}
	.st1{fill:#32A288;}
</style>
<g>
	<g>
		<g>
			<path class="st0" d="M1343.8,395.5v-5.1c0-2.2-1.9-4.1-4.1-4.1h-23.8c-2.2,0-4.1,1.9-4.1,4.1V464c0,2.2,1.9,4.1,4.1,4.1h23.8
				c2.2,0,4.1-1.9,4.1-4.1v-59.9h56.4c0.3,0,0.6-0.3,0.6-0.6v-7c0-0.3-0.3-1-0.6-1H1343.8z"/>
		</g>
		<g>
			<path class="st0" d="M1440.4,386.3h-11.1h-12.7c-2.2,0-4.1,1.9-4.1,4.1V464c0,2.2,1.9,4.1,4.1,4.1h12.7h11.1h60.5
				c0.3,0,0.6-0.3,0.6-1v-7c0-0.6-0.3-1-0.6-1h-56.4v-64.3h56.4c0.3,0,0.6-0.3,0.6-1v-6.7c0-0.3-0.3-1-0.6-1H1440.4z"/>
		</g>
		<g>
			<path class="st0" d="M1602.7,459.5h-57v-20.6h51.7l0,0h1.3c2.2,0,4.1-1.9,4.1-4.1v-44.4c0-1.3-0.6-2.5-1.9-3.5
				c0-0.3-0.3-0.6-0.6-0.6h-1.6h-23.8h-33.3h-13h-10.8c-2.2,0-4.1,1.9-4.1,4.1v73.8c0,2.2,1.9,4.1,4.1,4.1h13.3h10.5h61.2
				c0.3,0,0.6-0.3,0.6-1v-7C1603.3,459.9,1603,459.5,1602.7,459.5z M1545.7,394.9h25v35.2h-25V394.9z"/>
		</g>
		<g>
			<path class="st0" d="M1124.4,360C1124.1,360,1124.1,360,1124.4,360h-12.7c-2.2,0-4.1,1.9-4.1,4.1v95.4h-59.9v-65h47.5
				c0.3,0,0.6-0.3,0.6-1v-7c0-0.3-0.3-1-0.6-1h-47.5V361c0-0.3-0.3-0.6-1-0.6h-7c-0.3,0-1,0.3-1,0.6v24.7H1018c-0.3,0-0.6,0.3-0.6,1
				v7c0,0.3,0.3,1,0.6,1h20.9v72.9c0,0.3,0.3,0.6,1,0.6h2.9h4.1h65h17.7h6.3c2.2,0,4.1-1.9,4.1-4.1v-47.2h56.4c0.3,0,0.6-0.3,0.6-1
				v-7c0-0.3-0.3-1-0.6-1h-56.7v-39.3h56.4c0.3,0,0.6-0.3,0.6-1v-7c0-0.6-0.3-1-0.6-1h-71.6V360z"/>
		</g>
		<g>
			<path class="st0" d="M1294,386.3h-82.7c-2.2,0-4.1,1.9-4.1,4.1v73.8c0,2.2,1.9,4.1,4.1,4.1h82.7c2.2,0,4.1-1.9,4.1-4.1v-73.8
				C1298.1,388.2,1296.5,386.3,1294,386.3z M1267.7,454.5c0,2.5-1.6,4.4-3.5,4.4H1243c-1.9,0-3.5-1.9-3.5-4.4v-54.8
				c0-2.5,1.6-4.4,3.5-4.4h21.2c1.9,0,3.5,1.9,3.5,4.4V454.5z"/>
		</g>
		<g>
			<path class="st0" d="M882.3,386L882.3,386h-77l0,0h-4.1c-0.3,0-1,0.3-1,0.6v80.8c0,0.3,0.3,0.6,1,0.6h2.9h4.1h72.6h0.3h7
				c0.3,0,1-0.3,1-0.6v-80.8c0-0.3-0.3-0.6-1-0.6H882.3z M879.8,459.5h-70.7v-65h70.7V459.5z"/>
		</g>
		<g>
			<path class="st0" d="M1000.2,386h-1h-60.9h-7l0,0h-0.3c0,0,0,0-0.3,0c0,0,0,0,0,0.3v0.3l0,0v7v73.8c0,0.3,0.3,0.6,1,0.6h7
				c0.3,0,1-0.3,1-0.6v-72.9h59.3v72.9c0,0.3,0.3,0.6,1,0.6h7c0.3,0,1-0.3,1-0.6v-80.8c0-0.3-0.3-0.6-1-0.6L1000.2,386L1000.2,386z"
				/>
		</g>
		<g>
			<path class="st0" d="M904.8,386c-0.3,0-0.6,0.3-0.6,0.6v80.8c0,0.3,0.3,0.6,0.6,0.6h7c0.6,0,1-0.3,1-0.6v-80.8
				c0-0.3-0.3-0.6-1-0.6H904.8z"/>
		</g>
		<g>
			<path class="st0" d="M778.7,360.3c-0.3,0-1,0.3-1,0.6v98.3h-79.9c-0.3,0-0.6,0.3-0.6,1v7c0,0.3,0.3,1,0.6,1h80.5h5.1h1.9
				c0.3,0,1-0.3,1-0.6V361c0-0.3-0.3-0.6-1-0.6H778.7z"/>
		</g>
		<g>
			<path class="st0" d="M904.8,360.3c-0.3,0-0.6,0.3-0.6,1v7c0,0.3,0.3,1,0.6,1h7c0.6,0,1-0.3,1-1v-7c0-0.3-0.3-1-1-1H904.8z"/>
		</g>
	</g>
	<path class="st1" d="M466.5,209.2c4.8-8.9,15.8-12,24.4-7.3l12.4,6.7l14.9,8.2l65.6,36.1c0,0,16.2,9.2,20.3-5.4v-136
		c0-9.8-7.9-17.7-17.7-17.7H247.8c-9.8,0-17.7,7.9-17.7,17.7V239l0.3-0.3c0,0,0,0.6-0.3,1.9v8.2c0.6,9.5,4.1,22.8,17.1,30.1
		l48.8,26.9c0,0,16.8,10.1,26.3-7l60.2-110c4.8-8.9,15.8-12,24.7-7.3l26.9,14.9c8.9,4.8,12,15.8,7,24.7l-72.6,132.2
		c-4.8,8.9-15.8,12-24.7,7.3l-12-6.7l-14.9-8.2l-65.6-36.1c0,0-19.7-11.1-21.2,10.5l0,0v130.6c0,9.8,7.9,17.7,17.7,17.7h338.5
		c9.8,0,17.7-7.9,17.7-17.7V306.5c-1.9-8.2-6-17.1-15.8-22.8l-48.8-26.9c0,0-17.1-10.1-26.3,7l-60.2,110c-4.8,8.9-15.8,12-24.7,7.3
		l-26.9-14.9c-8.6-4.8-12-15.8-7.3-24.7L466.5,209.2z"/>
	<g>
		<g>
			<g>
				<path class="st1" d="M836.3,169.2v-7.9c0-0.6-0.6-1-1-1H715c-0.6,0-1,0.3-1,1v7.9c0,0.6,0.6,1,1,1h120.4
					C835.7,170.2,836.3,169.5,836.3,169.2z"/>
			</g>
			<g>
				<path class="st1" d="M836.3,107.1v-7.9c0-0.6-0.3-1-1-1H714c-0.6,0-1,0.3-1,1v7.9c0,0.6,0.3,1,1,1h121.4
					C836,108.1,836.3,107.7,836.3,107.1z"/>
			</g>
			<g>
				<path class="st1" d="M836.3,296.3v-7.9c0-0.6-0.6-1-1-1H715c-0.6,0-1,0.3-1,1v7.9c0,0.6,0.6,1,1,1h120.4
					C835.7,297.3,836.3,297,836.3,296.3z"/>
			</g>
			<g>
				<path class="st1" d="M836.3,232.9V225c0-0.6-0.6-1-1-1H715c-0.6,0-1,0.3-1,1v7.9c0,0.6,0.6,1,1,1h120.4
					C835.7,233.6,836.3,233.3,836.3,232.9z"/>
			</g>
			<g>
				<path class="st1" d="M995.4,296.3v-7.9c0-0.6-0.6-1-1.3-1H855c-0.6,0-1.3,0.3-1.3,1v7.9c0,0.6,0.6,1,1.3,1h139.1
					C994.8,297.3,995.4,297,995.4,296.3z"/>
			</g>
			<g>
				<path class="st1" d="M995.4,232.9V225c0-0.6-0.6-1-1-1H877.2c-0.6,0-1,0.3-1,1v7.9c0,0.6,0.6,1,1,1h117.3
					C994.8,233.6,995.4,233.3,995.4,232.9z"/>
			</g>
			<g>
				<path class="st1" d="M738.1,171.8v-6.3c0-2.9-2.2-5.4-5.1-5.4h-29.2c-2.9,0-5.1,2.2-5.1,5.4v157.2c0,2.9,2.2,5.4,5.1,5.4H733
					c2.9,0,5.1-2.2,5.1-5.4V182.9V171.8z"/>
			</g>
			<g>
				<path class="st1" d="M851.2,171.8v-6.3c0-2.9-2.2-5.4-5.1-5.4H817c-2.9,0-5.1,2.2-5.1,5.4v157.2c0,2.9,2.2,5.4,5.1,5.4h29.2
					c2.9,0,5.1-2.2,5.1-5.4V182.9V171.8z"/>
			</g>
			<g>
				<path class="st1" d="M953.3,201.2v-6.3c0-2.9-2.2-5.4-5.1-5.4h-29.2c-2.9,0-5.1,2.2-5.1,5.4V321c0,2.9,2.2,5.4,5.1,5.4h29.2
					c2.9,0,5.1-2.2,5.1-5.4V212.3V201.2z"/>
			</g>
			<g>
				<path class="st1" d="M844.9,109.6l1-6.3c0.6-2.9-1.3-5.4-4.1-5.4h-29.2c-2.9,0-5.4,2.2-6,5.4l-10.1,59.3
					c-0.6,2.9,1.3,5.4,4.1,5.4h29.2c2.9,0,5.4-2.2,6-5.4l7-41.8L844.9,109.6z"/>
			</g>
			<g>
				<path class="st1" d="M745.1,103.3l1-6.3c0.6-2.9-1.3-5.4-4.1-5.4h-29.2c-2.9,0-5.4,2.2-6,5.4l-8.2,49.4
					c-0.6,2.9,1.3,5.4,4.1,5.4h29.2c2.9,0,5.4-2.2,6-5.4l5.4-32L745.1,103.3z"/>
			</g>
			<g>
				<path class="st1" d="M794.8,171.8v-6.3c0-2.9-2.2-5.4-5.1-5.4h-29.2c-2.9,0-5.1,2.2-5.1,5.4v157.2c0,2.9,2.2,5.4,5.1,5.4h29.2
					c2.9,0,5.1-2.2,5.1-5.4V182.9V171.8z"/>
			</g>
			<g>
				<path class="st1" d="M824.3,327.1v-7.9c0-0.6,0-1-0.3-1h-20.3c0,0-0.3,0.3-0.3,1v7.9c0,0.6,0,1,0.3,1h20.6
					C824.3,328,824.3,327.4,824.3,327.1z"/>
			</g>
			<g>
				<path class="st1" d="M976.1,103.9v-8.2c0-0.6-0.6-1-1-1H855c-0.6,0-1,0.3-1,1v7.9c0,0.6,0.6,1,1,1h119.8
					C975.5,104.9,976.1,104.3,976.1,103.9z"/>
			</g>
			<g>
				<path class="st1" d="M995.8,106.5v-6.3c0-2.9-2.2-5.4-5.1-5.4h-29.2c-2.9,0-5.1,2.2-5.1,5.4v75.4c0,2.9,2.2,5.4,5.1,5.4h29.2
					c2.9,0,5.1-2.2,5.1-5.4v-58V106.5z"/>
			</g>
			<g>
				<path class="st1" d="M905.1,106.5l1-6.3c0.6-2.9-1.3-5.4-4.1-5.4h-29.2c-2.9,0-5.4,2.2-6,5.4l-12.7,75.4
					c-0.6,2.9,1.3,5.4,4.1,5.4h29.2c2.9,0,5.4-2.2,6-5.4l9.8-58L905.1,106.5z"/>
			</g>
			<g>
				<path class="st1" d="M905.1,201.2l1-6.3c0.6-2.9-1.3-5.4-4.1-5.4h-29.2c-2.9,0-5.4,2.2-6,5.4l-12.7,75.4
					c-0.6,2.9,1.3,5.4,4.1,5.4h29.2c2.9,0,5.4-2.2,6-5.4l9.8-58L905.1,201.2z"/>
			</g>
			<g>
				<path class="st1" d="M968.8,180v-7.9c0-0.6-0.3-1-0.3-1h-43.1c-0.3,0-0.3,0.3-0.3,1v7.9c0,0.6,0.3,1,0.3,1h43.1
					C968.5,181,968.8,180.6,968.8,180z"/>
			</g>
		</g>
		<g>
			<g>
				<path class="st1" d="M1088.9,140.7v-6.3c0-2.9-2.2-5.4-5.1-5.4h-29.2c-2.9,0-5.1,2.2-5.1,5.4v188.3c0,2.9,2.2,5.4,5.1,5.4h29.2
					c2.9,0,5.1-2.2,5.1-5.4V163.2V140.7z"/>
			</g>
			<g>
				<path class="st1" d="M1331.7,126.8c1.3-2.9,0-5.4-2.5-5.4H1300c-2.9,0-6,2.2-7.3,5.4l-86.5,195.6c-1.3,2.9,0,5.4,2.9,5.4h29.2
					c2.9,0,6-2.2,7.3-5.4L1331.7,126.8z"/>
			</g>
			<g>
				<path class="st1" d="M1186.2,192.4V186c0-2.9-2.2-5.4-5.1-5.4H1152c-2.9,0-5.1,2.2-5.1,5.4v136c0,2.9,2.2,5.4,5.1,5.4h29.2
					c2.9,0,5.1-2.2,5.1-5.4V203.5V192.4z"/>
			</g>
			<g>
				<path class="st1" d="M1258.8,192.4l-3.5-6.3c-1.6-2.9-5.1-5.4-7.9-5.4h-29.2c-2.9,0-3.8,2.2-2.2,5.4l75.4,136
					c1.6,2.9,5.1,5.4,7.9,5.4h29.2c2.9,0,3.8-2.2,2.2-5.4l-65.9-118.5L1258.8,192.4z"/>
			</g>
			<g>
				<path class="st1" d="M1242,103.3l1-6.3c0.6-2.9-1.3-5.4-4.1-5.4h-29.2c-2.9,0-5.4,2.2-6,5.4l-12.7,75.4
					c-0.6,2.9,1.3,5.4,4.1,5.4h29.2c2.9,0,5.4-2.2,6-5.4l9.8-58L1242,103.3z"/>
			</g>
			<g>
				<path class="st1" d="M1140.6,103.9l1-6.3c0.6-2.9-1.3-5.4-4.1-5.4h-29.2c-2.9,0-5.4,2.2-6,5.4l-5.7,32.3
					c-0.6,2.9,1.3,5.4,4.1,5.4h29.2c2.9,0,5.4-2.2,6-5.4l2.9-14.9L1140.6,103.9z"/>
			</g>
			<g>
				<path class="st1" d="M1190.7,134.7v-7.9c0-0.6-0.6-1-1.3-1H1036c-0.6,0-1.3,0.3-1.3,1v7.9c0,0.6,0.6,1,1.3,1h153.4
					C1190.1,135.6,1190.7,135.3,1190.7,134.7z"/>
			</g>
			<g>
				<path class="st1" d="M1167.9,189.8v-7.9c0-0.6-0.3-1-1-1h-102.4c-0.6,0-1,0.3-1,1v7.9c0,0.6,0.3,1,1,1h102.4
					C1167.2,190.8,1167.9,190.5,1167.9,189.8z"/>
			</g>
			<g>
				<path class="st1" d="M1167.9,326.4v-7.9c0-0.6-0.3-1-0.6-1H1107c-0.3,0-0.6,0.3-0.6,1v7.9c0,0.6,0.3,1,0.6,1h60.2
					C1167.5,327.4,1167.9,327.1,1167.9,326.4z"/>
			</g>
			<g>
				<path class="st1" d="M1322.5,130.6v-7.9c0-0.6-0.6-1-1-1h-120.4c-0.6,0-1,0.3-1,1v7.9c0,0.6,0.6,1,1,1h120.4
					C1321.9,131.5,1322.5,130.9,1322.5,130.6z"/>
			</g>
		</g>
		<g>
			<g>
				<g>
					<path class="st1" d="M1415.7,109.6v-6.3c0-2.9-2.2-5.4-5.1-5.4h-29.2c-2.9,0-5.1,2.2-5.1,5.4v85.3c0,2.9,2.2,5.4,5.1,5.4h29.2
						c2.9,0,5.1-2.2,5.1-5.4v-67.8V109.6z"/>
				</g>
				<g>
					<path class="st1" d="M1599.5,109.6v-6.3c0-2.9-2.2-5.4-5.1-5.4h-29.2c-2.9,0-5.1,2.2-5.1,5.4v85.3c0,2.9,2.2,5.4,5.1,5.4h29.2
						c2.9,0,5.1-2.2,5.1-5.4v-67.8V109.6z"/>
				</g>
				<g>
					<path class="st1" d="M1588.8,107.1v-7.9c0-0.6-1-1-1.9-1h-197.5c-1,0-1.9,0.3-1.9,1v7.9c0,0.6,1,1,1.9,1h197.5
						C1587.8,108.1,1588.8,107.7,1588.8,107.1z"/>
				</g>
				<g>
					<path class="st1" d="M1588.8,193v-7.9c0-0.6-1-1-1.9-1h-197.5c-1,0-1.9,0.3-1.9,1v7.9c0,0.6,1,1,1.9,1h197.5
						C1587.8,193.9,1588.8,193.6,1588.8,193z"/>
				</g>
			</g>
			<g>
				<path class="st1" d="M1630,217.4v-7.9c0-0.6-1.3-1-2.5-1h-279.9c-1.3,0-2.5,0.3-2.5,1v7.9c0,0.6,1,1,2.5,1h279.9
					C1629,218.4,1630,218,1630,217.4z"/>
			</g>
			<g>
				<g>
					<path class="st1" d="M1594.2,266.5v-7.9c0-0.6-1-1-1.9-1h-208.9c-1,0-1.9,0.3-1.9,1v7.9c0,0.6,1,1,1.9,1h208.9
						C1593.2,267.5,1594.2,267.2,1594.2,266.5z"/>
				</g>
				<g>
					<path class="st1" d="M1386.2,213l-8.2,49.1c-0.6,2.9,1.3,5.4,4.1,5.4h29.2c2.9,0,5.4-2.2,6-5.4l8.2-49.1H1386.2z"/>
				</g>
				<g>
					<g>
						<path class="st1" d="M1601.8,269.1v-6.3c0-2.9-2.2-5.4-5.1-5.4h-29.2c-2.9,0-5.1,2.2-5.1,5.4V322c0,2.9,2.2,5.4,5.1,5.4h29.2
							c2.9,0,5.1-2.2,5.1-5.4v-41.8V269.1z"/>
					</g>
					<g>
						<path class="st1" d="M1574.8,326.4v-7.9c0-0.6,0-1-0.3-1h-160.4c0,0-0.3,0.3-0.3,1v7.9c0,0.6,0,1,0.3,1h160.4
							C1574.8,327.4,1574.8,327.1,1574.8,326.4z"/>
					</g>
				</g>
			</g>
		</g>
	</g>
</g>
</svg>
