<?xml version="1.0" encoding="utf-8"?>
<!-- Generator: Adobe Illustrator 25.0.0, SVG Export Plug-In . SVG Version: 6.00 Build 0)  -->
<svg version="1.1" id="图层_1" xmlns="http://www.w3.org/2000/svg" xmlns:xlink="http://www.w3.org/1999/xlink" x="0px" y="0px"
	 viewBox="0 0 1860 560" style="enable-background:new 0 0 1860 560;" xml:space="preserve">
<style type="text/css">
	.st0{fill-rule:evenodd;clip-rule:evenodd;fill:#3DAB53;}
	.st1{fill:none;stroke:#006838;stroke-width:1.413;}
	.st2{fill:#111111;}
</style>
<g>
	<path class="st0" d="M342.8,346.8c-36.8,0-67.3-24.2-69.1-69.1c-1.8-42.2,35-70.9,70.9-70.9c40.4-0.9,65.5,45.8,65.5,45.8L515,214
		c0,0-43.1-112.2-160.6-112.2c-110.4-0.9-185.7,75.4-185.7,177.6c0,91.5,70.9,183,182.1,178.5c122-4.5,164.2-112.2,164.2-112.2
		L407.4,310C407.4,310,384.9,346.8,342.8,346.8"/>
	<path class="st1" d="M342.8,346.8c-36.8,0-67.3-24.2-69.1-69.1c-1.8-42.2,35-70.9,70.9-70.9c40.4-0.9,65.5,45.8,65.5,45.8L515,214
		c0,0-43.1-112.2-160.6-112.2c-110.4-0.9-185.7,75.4-185.7,177.6c0,91.5,70.9,183,182.1,178.5c122-4.5,164.2-112.2,164.2-112.2
		L407.4,310C407.4,310,384.9,346.8,342.8,346.8"/>
	<path class="st2" d="M680.1,341.4c34.1,0,50.2-28.7,50.2-61.9c0-32.3-17-61.9-50.2-61.9c-33.2,0-50.2,29.6-50.2,61.9
		S646,341.4,680.1,341.4z M680.1,378.2c-54.7,0-92.4-43.1-92.4-98.7s37.7-98.7,92.4-98.7c53.8,0,92.4,44,92.4,98.7
		C772.5,335.1,734.9,378.2,680.1,378.2z M849.7,180.8c15.3,0,52.9,5.4,52.9,26.9c0,10.8-7.2,19.7-17.9,19.7s-19.7-8.1-35.9-8.1
		c-11.7,0-22.4,6.3-22.4,17c0,27.8,89.7,9.9,89.7,79c0,38.6-31.4,61.9-69.1,61.9c-20.6,0-65.5-4.5-65.5-29.6
		c0-10.8,7.2-18.8,17.9-18.8c12.6,0,27.8,10.8,44.9,10.8c17.9,0,27.8-9.9,27.8-23.3c0-31.4-89.7-12.6-89.7-74.5
		C783.3,204.1,813.8,180.8,849.7,180.8z M926,279.5c0-55.6,37.7-98.7,92.4-98.7c19.7,0,57.4,6.3,57.4,29.6c0,9.9-6.3,17.9-17,17.9
		c-10.8,0-18.8-9-41.3-9c-33.2,0-50.2,27.8-50.2,61c0,32.3,17,59.2,50.2,59.2c22.4,0,31.4-11.7,43.1-11.7
		c11.7,0,17.9,11.7,17.9,17.9c0,26-40.4,31.4-60.1,31.4C963.6,378.2,926,335.1,926,279.5L926,279.5z M1097.3,355.7V203.2
		c0-13.5,9-20.6,19.7-20.6s19.7,7.2,19.7,20.6v56.5h84.3v-56.5c0-13.5,9-20.6,19.7-20.6s19.7,7.2,19.7,20.6v152.5
		c0,13.5-9,20.6-19.7,20.6s-19.7-7.2-19.7-20.6v-58.3h-84.3v58.3c0,13.5-9,20.6-19.7,20.6S1097.3,369.2,1097.3,355.7L1097.3,355.7z
		 M1286.6,355.7V203.2c0-13.5,9-20.6,19.7-20.6c11.7,0,19.7,7.2,19.7,20.6v152.5c0,13.5-9,20.6-19.7,20.6
		C1294.7,376.4,1286.6,369.2,1286.6,355.7L1286.6,355.7z M1349.5,355.7V203.2c0-13.5,9-20.6,19.7-20.6c5.4,0,13.5,3.6,17,9l85.2,113
		h0.9V203.2c0-13.5,9-20.6,19.7-20.6s19.7,7.2,19.7,20.6v152.5c0,13.5-9,20.6-19.7,20.6c-5.4,0-13.5-3.6-17-9l-85.2-112.2h-0.9v99.6
		c0,13.5-9,20.6-19.7,20.6C1357.5,376.4,1349.5,369.2,1349.5,355.7z M1525.3,348.6l53.8-146.2c4.5-12.6,15.3-22.4,28.7-22.4
		c14.4,0,24.2,9,28.7,22.4l52.9,146.2c1.8,4.5,1.8,8.1,1.8,9.9c0,10.8-9,17.9-18.8,17.9c-11.7,0-17-6.3-19.7-14.4l-8.1-25.1h-74.5
		l-8.1,25.1c-2.7,8.1-8.1,14.4-19.7,14.4c-10.8,0-19.7-8.1-19.7-18.8C1523.5,353.9,1524.4,350.4,1525.3,348.6L1525.3,348.6z
		 M1607.8,223l-25.1,78.1h51.1L1607.8,223L1607.8,223z"/>
</g>
</svg>
