<?xml version="1.0" encoding="utf-8"?>
<!-- Generator: Adobe Illustrator 25.0.0, SVG Export Plug-In . SVG Version: 6.00 Build 0)  -->
<svg version="1.1" id="图层_1" xmlns="http://www.w3.org/2000/svg" xmlns:xlink="http://www.w3.org/1999/xlink" x="0px" y="0px"
	 viewBox="0 0 1860 560" style="enable-background:new 0 0 1860 560;" xml:space="preserve">
<style type="text/css">
	.st0{fill:#898989;}
</style>
<path id="pateo_7_" class="st0" d="M650.4,110.7l139.8,364.7H677.7l-88.1-240.1l-91.2,240.1H389l142.8-364.7
	C531.9,110.7,650.4,110.7,650.4,110.7z M717.3,110.7h328.2v97.3H933v267.4H829.7V207.9H717.3C717.3,207.9,717.3,110.7,717.3,110.7z
	 M139.8,110.7h188.4c70.5,0,121.6,54.7,121.6,127.6S389,366,328.2,366c-40.7,0-68.7,0-85.1,0v109.4H139.8
	C139.8,475.4,139.8,110.7,139.8,110.7z M243.1,286.9h79c24.9,0,48.6-22.5,48.6-48.6c0-25.5-23.7-48.6-48.6-48.6h-79V286.9z
	 M1176.2,384.2h182.4l21.3,91.2h-307V110.7h307l-20.7,91.2h-183v42.5h176.3v91.2h-176.3V384.2z M1550,110.7
	c97.9,0,170.2,78.4,170.2,182.4s-73.5,182.4-170.8,182.4c-97.9,0-169.6-79-169.6-182.4S1452.1,110.7,1550,110.7z M1471,293
	c0,45.6,33.4,91.2,79,91.2c45.6,0,79-45.6,79-91.2s-33.4-91.2-79-91.2C1504.4,201.8,1471,247.4,1471,293z"/>
</svg>
