<?xml version="1.0" encoding="utf-8"?>
<!-- Generator: Adobe Illustrator 25.0.0, SVG Export Plug-In . SVG Version: 6.00 Build 0)  -->
<svg version="1.1" id="图层_1" xmlns="http://www.w3.org/2000/svg" xmlns:xlink="http://www.w3.org/1999/xlink" x="0px" y="0px"
	 viewBox="0 0 1860 560" style="enable-background:new 0 0 1860 560;" xml:space="preserve">
<style type="text/css">
	.st0{fill-rule:evenodd;clip-rule:evenodd;fill:#355AAB;}
</style>
<g>
	<polygon class="st0" points="1399,339.6 1491.2,339.4 1486.9,358.8 1403.8,358.8 1399,339.6 	"/>
	<path class="st0" d="M1366.5,252.9l-8.2,40.3l17.9-0.2l7-40.1H1366.5L1366.5,252.9z M1376.6,196.9l-7.2,37h17.1l6.6-33.3
		c0.4-2.3-1-3.9-2.9-3.9h-13.6V196.9z M1356.5,176.8h51.2c6.2,0.4,10.7,1.9,10.1,9.3l-35,201.3l-25.5,0.2l15-74.7h-17.7l-16.2,75.3
		l-25.3-0.2C1331,326.5,1346.4,252.6,1356.5,176.8L1356.5,176.8z"/>
	<path class="st0" d="M1488.5,288l-53.3,0.2l16,8.4l-3.1,14.4l35.4-0.2L1488.5,288L1488.5,288z M1478,252
		c-5.6,6.6-12.1,12.5-18.9,18.3l38.7,0.4c-4.7-6.2-8-11.9-11.1-18.3L1478,252z M1477.8,169.6l25.3,0.6l-4.7,33.3h9.7l11.9-28.8
		l24.7-0.4l-11.1,29l17.1,0.4l-4.5,19.1l-53.1-0.2l-4.7,11.5l65.4-0.2l-5.1,18.3h-37.4c11.9,15.8,28.6,20.8,42,24.1l-7.6,21.8
		c-15.4-4.3-21.8-8-30.6-13.4l-5.8,25.9l15.4,0.6c7.4,0.6,9.9,3.3,8.6,10.9c-3.1,22.8-7.4,43.4-11.1,65l-66,0.4l-4.7-18.9l48.3-0.4
		l6.6-33.3c0-3.1-0.8-4.9-5.1-4.9l-81.2-0.2l7.6-39.1c-7.6,2.7-14.4,5.6-23.4,7.4l5.1-23.4c19.5-4.7,31.7-14.2,41.1-22.2l-37.4-0.4
		l5.1-18.1h44.2c2.7-3.9,4.1-7.8,6-11.5l-48.9-0.2l4.1-18.5h16.2l-6.2-29.4l25.9,0.6l5.1,28.4l9-0.2L1477.8,169.6L1477.8,169.6z"/>
	<polygon class="st0" points="1592.1,169.6 1620.5,170.8 1633.1,221.8 1603.7,221.2 1592.1,169.6 	"/>
	<path class="st0" d="M1572.4,233.5l51.4,0.6l-17.1,104.1l28.4-22.2c-1.4,9.5-3.1,19.7-4.5,29.4c-19.7,17.9-43.8,33.3-64,45
		l25.3-135.7l-23.6,0.2L1572.4,233.5L1572.4,233.5L1572.4,233.5z"/>
	<path class="st0" d="M1644.4,176.6l120.3,0.2c8,0.8,11.5,4.9,10.5,13l-32.7,176.7l26.9-0.8l-7.8,21.8l-52.9,0.4l19.7-107.6
		l-37.8-0.8l-19.3,108.2l-29.6-0.6l19.9-106.3l-27.6-0.2l4.1-21.2l27.1-0.8l10.1-52l25.5,15l-6.4,36.8l38.7-0.2l9.5-55.1
		c0.6-2.5-1.4-4.9-4.3-4.9l-88.4-0.2L1644.4,176.6L1644.4,176.6L1644.4,176.6z"/>
	<path class="st0" d="M796.3,232.5l-10.7,47.9c-6.4-10.5-12.3-15.2-24.3-23c-12.8-3.3-22.6-3.9-38.5-2.1
		c-14.4,3.9-23.6,11.1-35.6,21c-8.2,10.5-12.8,20.6-16,33.3c-0.4,14.2,1,24.3,6.6,31.1c9,9.5,17.1,14.2,25.5,15.8
		c13.4,2.1,22.4,1,33.3-2.5c14.6-6.2,25.7-14,37.8-23.6l-11.7,47.9c-12.8,3.3-23.4,8.8-38.3,9.7c-15,2.1-28.8,3.5-46.7-2.9
		c-13.8-5.1-22.8-7.4-34.3-22c-7.4-6.6-13.8-16.7-16.2-35c0.4-16.7,3.5-31.7,10.5-44.6c9-13.4,17.9-25.7,30.2-35.2
		c15.2-10.9,29.4-18.3,45.4-22.4c12.8-3.7,22.8-5.3,37.4-4.9C768.3,222.4,779.2,223.9,796.3,232.5L796.3,232.5z"/>
	<path class="st0" d="M432.1,276.5c-0.8,13.2-1.4,24.5-5.3,35.4l-132,0.6c0.2,7.6-0.6,13.4,3.5,20.4c4.3,6.8,6.8,10.7,12.3,15.2
		c7.6,3.9,12.1,6.8,21,7.8c10.9,1.4,17.9,1.6,29.8,0.8c11.7-2.3,20.6-5.3,30.8-8l17.9,5.1c-14,9-27.1,19.5-42.8,25.9
		c-18.3,6.8-34.3,9.5-55.1,7.4c-19.5-1.4-33.1-7.4-48.7-22c-8-11.5-12.3-19.3-12.5-37.4c-0.4-15.8,2.7-31.3,9.9-47.1
		c11.3-18.9,20.6-28.8,35.4-40.3c20.8-11.5,33.5-17.9,54.5-18.9c15.2,0.6,28.6-0.6,44.4,5.6c12.1,4.7,19.3,9.5,26.9,18.9
		C429,257.6,430.8,264,432.1,276.5L432.1,276.5z M304.8,284.3H392c-1.4-11.1-4.3-14.8-9.3-21.8c-6.2-5.8-12.1-7.2-19.3-8.8
		c-5.1-0.6-9.5-0.6-14,0c-4.5,0.4-8.8,1.2-14,2.5c-8.4,3.5-16,8-22.4,13.8C309.3,274.7,306.6,278.4,304.8,284.3L304.8,284.3z"/>
	<path class="st0" d="M619,251c1.9,15.4,1.4,28.8-2.9,40.5L596,388.6l-42.6,0.8l21-93.8c1.2-8.6,4.3-16.5,0.4-27.8
		c-3.7-4.3-6.4-6.6-13-9.5c-7.6-1.4-14-2.5-22-0.8c-7.6,1.2-14.4,3.3-21.4,7.6c-8.4,9.9-15.4,19.9-19.5,34.1L480,389.6l-43,0.6
		l36.2-162.9l40.3,16.9c6.8-5.6,13.2-9.5,20.6-12.8c12.1-4.9,21.2-7.2,34.8-7.4c13,0.6,20.6,3.3,30.6,7.4
		C606.7,236.6,613.9,241.3,619,251L619,251z"/>
	<path class="st0" d="M977.2,276.5c-0.8,13.2-1.4,24.5-5.3,35.4l-132,0.6c0.2,7.6-0.6,13.4,3.5,20.4c4.3,6.8,6.8,10.7,12.3,15.2
		c7.6,3.9,12.1,6.8,21,7.8c10.9,1.4,17.9,1.6,29.8,0.8c11.7-2.3,20.6-5.3,30.8-8l18.1,5.1c-14,9-27.1,19.5-42.8,25.9
		c-18.3,6.8-34.3,9.5-55.1,7.4c-19.5-1.4-33.3-7.4-48.7-22c-7.8-11.5-12.3-19.3-12.5-37.4c-0.4-15.8,2.7-31.3,9.9-47.1
		c11.3-18.9,20.6-28.8,35.4-40.3c20.8-11.5,33.5-17.9,54.5-18.9c15.2,0.6,28.6-0.6,44.4,5.6c12.1,4.7,19.1,9.5,26.9,18.9
		C974.2,257.6,976,264,977.2,276.5L977.2,276.5z M849.9,284.3h87.2c-1.4-11.1-4.3-14.8-9.3-21.8c-6.2-5.8-12.1-7.2-19.3-8.8
		c-5.1-0.6-9.5-0.6-14,0c-4.5,0.4-8.8,1.2-14.2,2.5c-8.4,3.5-16,8-22.4,13.8C854.5,274.7,851.8,278.4,849.9,284.3L849.9,284.3z"/>
	<path class="st0" d="M1159.5,251c1.9,15.4,1.4,28.8-2.9,40.5l-19.9,97.1l-42,0.8l20.6-93.8c1.2-8.6,4.3-16.5,0.4-27.8
		c-3.7-4.3-6.4-6.6-13-9.5c-7.4-1.4-13.8-2.5-21.8-0.8c-7.4,1.2-14.4,3.3-21.2,7.6c-8.4,9.9-15.2,19.9-19.3,34.1l-18.5,90.3
		l-42.6,0.6l35.8-162.9l39.7,16.9c6.8-5.6,13-9.5,20.2-12.8c11.9-4.9,21-7.2,34.3-7.4c12.8,0.6,20.4,3.3,30.2,7.4
		C1147.3,236.6,1154.5,241.3,1159.5,251L1159.5,251z"/>
	<polygon class="st0" points="1247.5,268.3 1217.2,386.5 1177.1,387.8 1203.5,268.5 	"/>
	<polygon class="st0" points="1296.8,259.4 1173.4,260.5 1169.9,260.5 1176.7,230.6 1212.7,230.8 1220.9,190.3 	"/>
	<polygon class="st0" points="309.9,169.6 302.7,201 236.9,200.2 194.3,387.4 152.2,387.8 194.7,201.2 126.7,201.2 133,169.6 	"/>
</g>
</svg>
