<?xml version="1.0" encoding="utf-8"?>
<!-- Generator: Adobe Illustrator 24.1.0, SVG Export Plug-In . SVG Version: 6.00 Build 0)  -->
<svg version="1.1" id="图层_1" xmlns="http://www.w3.org/2000/svg" xmlns:xlink="http://www.w3.org/1999/xlink" x="0px" y="0px"
	 viewBox="0 0 12 14" style="enable-background:new 0 0 12 14;" xml:space="preserve">
<style type="text/css">
	.st0{fill-rule:evenodd;clip-rule:evenodd;fill:#AAAAAA;}
</style>
<path class="st0" d="M6,0C2.7,0,0,2.7,0,6c0,0.6,0.1,1.1,0.2,1.6c0.1,1.2,1.4,2.7,1.4,2.7l3.2,3.1c0.7,0.7,1.8,0.7,2.4,0l2.8-2.8
	c0,0,1.2-1.4,1.6-2.6C11.9,7.4,12,6.7,12,6C12,2.7,9.3,0,6,0z M6,8C4.9,8,4,7.1,4,6s0.9-2,2-2s2,0.9,2,2S7.1,8,6,8z"/>
</svg>
