<?xml version="1.0" encoding="utf-8"?>
<!-- Generator: Adobe Illustrator 25.0.0, SVG Export Plug-In . SVG Version: 6.00 Build 0)  -->
<svg version="1.1" id="图层_1" xmlns="http://www.w3.org/2000/svg" xmlns:xlink="http://www.w3.org/1999/xlink" x="0px" y="0px"
	 viewBox="0 0 113.4 113.4" style="enable-background:new 0 0 113.4 113.4;" xml:space="preserve">
<style type="text/css">
	.st0{fill-rule:evenodd;clip-rule:evenodd;fill:#254A9E;}
</style>
<g>
	<path class="st0" d="M60.9,60.9v43.9l0.7,0c11.4-1.2,21.6-6.3,29.3-13.9l2.2-2.4L77.2,60.9H60.9L60.9,60.9z M36.2,60.9L20.3,88.5
		l2.2,2.4c7.7,7.7,17.9,12.8,29.3,13.9l0.7,0V60.9H36.2L36.2,60.9z M56.7,25.4L41.1,52.5h31.2L56.7,25.4L56.7,25.4z M56.7,8.3
		l3.1,5.6l0,0l38.7,67l0.7-1.2c3.7-6.9,5.8-14.7,5.8-23.1c0-25.1-19-45.7-43.4-48.1L56.7,8.3z M56.7,8.3l-4.9,0.2
		C27.3,11,8.3,31.6,8.3,56.7c0,8.4,2.1,16.2,5.8,23.1l0.7,1.2l38.7-67l0,0L56.7,8.3L56.7,8.3z M56.7,0c31.3,0,56.7,25.4,56.7,56.7
		S88,113.4,56.7,113.4S0,88,0,56.7S25.4,0,56.7,0L56.7,0z"/>
</g>
</svg>
