<svg xmlns="http://www.w3.org/2000/svg" width="34.031" height="27.813" viewBox="0 0 34.031 27.813">
  <defs>
    <style>
      .cls-1 {
        fill: #c8c8c8;
        fill-rule: evenodd;
      }
    </style>
  </defs>
  <path id="推特" class="cls-1" d="M36.992,8.5A14.072,14.072,0,0,1,32.984,9.6a7.032,7.032,0,0,0,3.071-3.882,13.839,13.839,0,0,1-4.434,1.7,7,7,0,0,0-11.9,6.4A19.752,19.752,0,0,1,5.336,6.483,7.053,7.053,0,0,0,7.5,15.854a6.787,6.787,0,0,1-3.165-.876v0.087a7.01,7.01,0,0,0,5.6,6.88,7,7,0,0,1-1.838.246,6.556,6.556,0,0,1-1.312-.13,7,7,0,0,0,6.525,4.874,13.971,13.971,0,0,1-10.338,2.9,19.488,19.488,0,0,0,10.691,3.172c12.847,0,19.869-10.7,19.869-19.975,0-.3-0.007-0.608-0.022-0.905A14.363,14.363,0,0,0,36.992,8.5Z" transform="translate(-2.969 -5.188)"/>
</svg>
