<svg xmlns="http://www.w3.org/2000/svg" width="35.688" height="30.781" viewBox="0 0 35.688 30.781">
  <defs>
    <style>
      .cls-1 {
        fill: #c8c8c8;
        fill-rule: evenodd;
      }
    </style>
  </defs>
  <path id="微信" class="cls-1" d="M26.79,14.118a12.652,12.652,0,0,0-8.531,3.449,10.146,10.146,0,0,0-3.146,8.59c-1.295-.161-2.474-0.337-3.66-0.437a2.272,2.272,0,0,0-1.242.21c-1.152.65-2.256,1.384-3.564,2.2,0.24-1.087.4-2.039,0.671-2.954a1.124,1.124,0,0,0-.511-1.486c-3.976-2.81-5.652-7.015-4.4-11.344,1.16-4.005,4.01-6.434,7.882-7.7A13.207,13.207,0,0,1,24.73,8.884,9.906,9.906,0,0,1,26.79,14.118ZM11.546,12.769a1.527,1.527,0,0,0-1.469-1.529,1.484,1.484,0,0,0-1.544,1.435A1.466,1.466,0,0,0,9.985,14.2,1.508,1.508,0,0,0,11.546,12.769ZM19.5,11.24a1.529,1.529,0,0,0-1.493,1.507A1.491,1.491,0,0,0,19.539,14.2,1.483,1.483,0,1,0,19.5,11.24ZM34.232,34.786A11.261,11.261,0,0,0,31.2,33.511c-1.021-.107-2.093.483-3.16,0.592a10.555,10.555,0,0,1-8.567-2.8c-4.569-4.229-3.916-10.715,1.37-14.181,4.7-3.081,11.587-2.053,14.9,2.221a8.476,8.476,0,0,1-.978,11.814c-1.021.907-1.389,1.653-.733,2.849A3.4,3.4,0,0,1,34.232,34.786ZM22.293,23.217a1.235,1.235,0,1,0,.009-2.47A1.235,1.235,0,1,0,22.293,23.217Zm7.7-2.467a1.235,1.235,0,0,0-1.225,1.181A1.217,1.217,0,1,0,29.989,20.749Z" transform="translate(-2 -4)"/>
</svg>
