<svg xmlns="http://www.w3.org/2000/svg" width="35.906" height="29.219" viewBox="0 0 35.906 29.219">
  <defs>
    <style>
      .cls-1 {
        fill: #c8c8c8;
        fill-rule: evenodd;
      }
    </style>
  </defs>
  <path id="微博" class="cls-1" d="M15.4,27.2a1.678,1.678,0,0,0,.22-1.388,1.5,1.5,0,0,0-.9-1.006,2.03,2.03,0,0,0-1.462-.02,2.2,2.2,0,0,0-1.2.925,1.681,1.681,0,0,0-.26,1.378,1.5,1.5,0,0,0,.861,1.016,1.937,1.937,0,0,0,1.492.05A2.314,2.314,0,0,0,15.4,27.2Zm1.883-2.434a0.61,0.61,0,0,0,.07-0.533A0.571,0.571,0,0,0,17,23.858a0.8,0.8,0,0,0-.571.01A0.788,0.788,0,0,0,16,24.24a0.569,0.569,0,0,0,.26.905,0.83,0.83,0,0,0,.581-0.01A0.789,0.789,0,0,0,17.284,24.763Zm3.485,2.152A5.749,5.749,0,0,1,17.6,29.932a6.2,6.2,0,0,1-4.486.241,4.533,4.533,0,0,1-2.954-2.544,4.287,4.287,0,0,1,.13-3.771,5.949,5.949,0,0,1,3.034-2.8,6.3,6.3,0,0,1,4.216-.382,4.733,4.733,0,0,1,3.174,2.4A4.188,4.188,0,0,1,20.769,26.915ZM27.018,23.7a5.251,5.251,0,0,0-1.782-3.419,9.819,9.819,0,0,0-4.176-2.193,15.179,15.179,0,0,0-5.5-.422,13.68,13.68,0,0,0-7.4,2.846q-2.934,2.383-2.654,5.32a5.25,5.25,0,0,0,1.782,3.419,9.82,9.82,0,0,0,4.176,2.192,15.18,15.18,0,0,0,5.5.422,13.683,13.683,0,0,0,7.4-2.846Q27.3,26.634,27.018,23.7Zm6.168,0.081a6.1,6.1,0,0,1-.741,2.805,9.945,9.945,0,0,1-2.183,2.756A16.89,16.89,0,0,1,26.887,31.7a18.663,18.663,0,0,1-4.526,1.669,23.1,23.1,0,0,1-5.417.624,22.54,22.54,0,0,1-5.507-.674A19.5,19.5,0,0,1,6.62,31.45a10.3,10.3,0,0,1-3.435-3.037,6.8,6.8,0,0,1-1.3-4.013,10.54,10.54,0,0,1,1.392-4.928,22.32,22.32,0,0,1,3.955-5.189A20.2,20.2,0,0,1,14.07,9.537q3.455-1.348,4.937.141,1.3,1.287.4,4.2a0.605,0.605,0,0,0-.02.4,0.25,0.25,0,0,0,.2.141,0.855,0.855,0,0,0,.29-0.01,2.234,2.234,0,0,0,.27-0.07l0.12-.04A12.818,12.818,0,0,1,25.2,13.117a3.586,3.586,0,0,1,3.064,1.227q0.9,1.267,0,3.58a2.312,2.312,0,0,1-.09.4,0.212,0.212,0,0,0,.09.252,1.027,1.027,0,0,0,.24.151q0.1,0.04.34,0.121a8.808,8.808,0,0,1,2.063.945,5.283,5.283,0,0,1,1.6,1.639A4.234,4.234,0,0,1,33.186,23.777ZM31.7,11.227A4.6,4.6,0,0,1,32.8,13.409a4.482,4.482,0,0,1-.13,2.363,1.17,1.17,0,0,1-.591.684,1.146,1.146,0,0,1-.891.08,1.207,1.207,0,0,1-.761-1.488A2.281,2.281,0,0,0,27.8,12.112a1.188,1.188,0,0,1-.9-0.161,1.042,1.042,0,0,1-.5-0.744,1.172,1.172,0,0,1,.16-0.895A1.111,1.111,0,0,1,27.3,9.8a4.572,4.572,0,0,1,2.383.11A4.458,4.458,0,0,1,31.7,11.227Zm3.625-3.279a9.3,9.3,0,0,1,2.253,4.475,9.245,9.245,0,0,1-.27,4.857,1.355,1.355,0,0,1-.681.8,1.284,1.284,0,0,1-1.041.081,1.4,1.4,0,0,1-.9-1.73,6.77,6.77,0,0,0-1.4-6.637,6.5,6.5,0,0,0-2.964-1.921,6.836,6.836,0,0,0-3.465-.171,1.381,1.381,0,0,1-1.642-1.066,1.316,1.316,0,0,1,.19-1.036,1.341,1.341,0,0,1,.871-0.593,9.527,9.527,0,0,1,4.887.231A9.146,9.146,0,0,1,35.329,7.948Z" transform="translate(-1.875 -4.781)"/>
</svg>
