<svg data-name="Layer_1" xmlns="http://www.w3.org/2000/svg" viewBox="0 0 91.84 91.84">
    <path d="M49.36 49.35v35.57h.57a39.15 39.15 0 0023.71-11.28l1.78-2-12.88-22.29zm-20 0L16.42 71.67l1.78 2a39.15 39.15 0 0023.71 11.25h.58V49.35zm16.56-28.78L33.27 42.49h25.3L45.92 20.57zM46 6.72l2.51 4.55 31.31 54.27.57-.94A39.22 39.22 0 0049.93 6.92zm-.08 0l-4 .2A39.22 39.22 0 0011.45 64.6l.58.94 31.33-54.27 2.53-4.55zm0-6.72A45.92 45.92 0 110 45.92 45.92 45.92 0 0145.92 0z" fill-rule="evenodd" fill="#fff"/>
</svg>
